<svg xmlns="http://www.w3.org/2000/svg" viewBox="0 0 177.1 139.1">
    <g transform="matrix(1.8,0,0,1.8,-97,7)">
      <path
         d="m 82.157895,60 c 0,-1.375 0.226973,-1.9375 0.504386,-1.25 0.277412,0.6875 0.277412,1.8125 0,2.5 -0.277413,0.6875 -0.504386,0.125 -0.504386,-1.25 z m 9,0 c 0,-1.375 0.226973,-1.9375 0.504386,-1.25 0.277412,0.6875 0.277412,1.8125 0,2.5 -0.277413,0.6875 -0.504386,0.125 -0.504386,-1.25 z m 6,0 c 0,-1.375 0.226973,-1.9375 0.504386,-1.25 0.277412,0.6875 0.277412,1.8125 0,2.5 -0.277413,0.6875 -0.504386,0.125 -0.504386,-1.25 z m 5.999995,0 c 0,-1.375 0.22698,-1.9375 0.50439,-1.25 0.27741,0.6875 0.27741,1.8125 0,2.5 -0.27741,0.6875 -0.50439,0.125 -0.50439,-1.25 z m 6,0 c 0,-1.375 0.22698,-1.9375 0.50439,-1.25 0.27741,0.6875 0.27741,1.8125 0,2.5 -0.27741,0.6875 -0.50439,0.125 -0.50439,-1.25 z m 5.89286,1.5 c -0.0111,-0.55 0.39159,-1.650753 0.89479,-2.446118 0.5639,-0.891316 0.52695,-2.171035 -0.0963,-3.335646 -0.55618,-1.039241 -0.82288,-2.07789 -0.59266,-2.308108 0.23022,-0.230219 0.89201,0.620495 1.47066,1.890476 0.78052,1.713061 0.70254,2.940183 -0.30213,4.754226 C 115.6803,61.399673 115.06186,62.05 115.05079,61.5 Z M 86.353087,56.8403 C 85.780159,56.103135 84.995495,54.825 84.609388,54 c -0.386106,-0.825 0.07185,-0.452659 1.01768,0.827424 l 1.719692,2.327425 1.291185,-2.327425 c 0.710151,-1.280083 1.30713,-1.850932 1.32662,-1.268554 0.01949,0.582379 -0.550741,1.860514 -1.267178,2.8403 -1.065199,1.456746 -1.492471,1.537147 -2.3443,0.44113 z M 82.157895,55 c 0,-1.375 0.226973,-1.9375 0.504386,-1.25 0.277412,0.6875 0.277412,1.8125 0,2.5 -0.277413,0.6875 -0.504386,0.125 -0.504386,-1.25 z m 9,0 c 0,-1.375 0.226973,-1.9375 0.504386,-1.25 0.277412,0.6875 0.277412,1.8125 0,2.5 -0.277413,0.6875 -0.504386,0.125 -0.504386,-1.25 z m 6,0 c 0,-1.375 0.226973,-1.9375 0.504386,-1.25 0.277412,0.6875 0.277412,1.8125 0,2.5 -0.277413,0.6875 -0.504386,0.125 -0.504386,-1.25 z m 5.999995,0 c 0,-1.375 0.22698,-1.9375 0.50439,-1.25 0.27741,0.6875 0.27741,1.8125 0,2.5 -0.27741,0.6875 -0.50439,0.125 -0.50439,-1.25 z m 6,0 c 0,-1.375 0.22698,-1.9375 0.50439,-1.25 0.27741,0.6875 0.27741,1.8125 0,2.5 -0.27741,0.6875 -0.50439,0.125 -0.50439,-1.25 z M 67.157895,12 c 0,-1.375 0.226973,-1.9375 0.504386,-1.25 0.277412,0.6875 0.277412,1.8125 0,2.5 -0.277413,0.6875 -0.504386,0.125 -0.504386,-1.25 z m 12,0 c 0,-1.375 0.226973,-1.9375 0.504386,-1.25 0.277412,0.6875 0.277412,1.8125 0,2.5 -0.277413,0.6875 -0.504386,0.125 -0.504386,-1.25 z m 6.465644,0.461341 c -0.964979,-2.5146941 -0.680311,-3.1635549 0.498534,-1.136338 0.58369,1.003751 0.850598,2.035659 0.593129,2.293128 -0.257468,0.257469 -0.748717,-0.263087 -1.091663,-1.15679 z M 91.157895,12 c 0,-1.375 0.226973,-1.9375 0.504386,-1.25 0.277412,0.6875 0.277412,1.8125 0,2.5 -0.277413,0.6875 -0.504386,0.125 -0.504386,-1.25 z m 4.111137,1.307009 c 0.972967,-0.253543 2.322967,-0.236869 3,0.03705 C 98.946064,13.617986 98.15,13.825431 96.5,13.805051 94.85,13.784672 94.296064,13.560553 95.269032,13.307009 Z M 103.15789,12 c 0,-1.375 0.22698,-1.9375 0.50439,-1.25 0.27741,0.6875 0.27741,1.8125 0,2.5 -0.27741,0.6875 -0.50439,0.125 -0.50439,-1.25 z m 4.11114,1.307009 c 0.97297,-0.253543 2.32297,-0.236869 3,0.03705 0.67703,0.273923 -0.11903,0.481368 -1.76903,0.460988 -1.65,-0.02038 -2.20394,-0.244498 -1.23097,-0.498042 z M 118.15789,12 c 0,-1.375 0.22698,-1.9375 0.50439,-1.25 0.27741,0.6875 0.27741,1.8125 0,2.5 -0.27741,0.6875 -0.50439,0.125 -0.50439,-1.25 z m 8.87844,1.5 c 0.0143,-0.55 1.13474,-2.8 2.48976,-5 1.35501,-2.2 2.45192,-3.55 2.43758,-3 -0.0144,0.55 -1.13474,2.8 -2.48976,5 -1.35501,2.2 -2.45192,3.55 -2.43758,3 z M 67.157895,7 c 0,-1.375 0.226973,-1.9375 0.504386,-1.25 0.277412,0.6875 0.277412,1.8125 0,2.5 C 67.384868,8.9375 67.157895,8.375 67.157895,7 Z m 4.111137,1.3070093 c 0.972967,-0.2535434 2.322967,-0.2368691 3,0.037054 C 74.946064,8.6179864 74.15,8.825431 72.5,8.8050513 70.85,8.7846716 70.296064,8.5605527 71.269032,8.3070093 Z M 79.157895,7 c 0,-1.375 0.226973,-1.9375 0.504386,-1.25 0.277412,0.6875 0.277412,1.8125 0,2.5 C 79.384868,8.9375 79.157895,8.375 79.157895,7 Z m 4.635609,1.2885661 C 85.61938,7.9390192 85.953275,7.4060823 85.431109,5.6747482 84.914428,3.961599 85.039505,3.7510503 86.020388,4.6827826 87.834464,6.4059571 86.433468,9.022128 83.781385,8.8638179 L 81.5,8.7276359 Z M 91.157895,7 c 0,-1.375 0.226973,-1.9375 0.504386,-1.25 0.277412,0.6875 0.277412,1.8125 0,2.5 C 91.384868,8.9375 91.157895,8.375 91.157895,7 Z m 4.111137,1.3070093 c 0.972967,-0.2535434 2.322967,-0.2368691 3,0.037054 C 98.946064,8.6179864 98.15,8.825431 96.5,8.8050513 94.85,8.7846716 94.296064,8.5605527 95.269032,8.3070093 Z M 103.15789,7 c 0,-1.375 0.22698,-1.9375 0.50439,-1.25 0.27741,0.6875 0.27741,1.8125 0,2.5 -0.27741,0.6875 -0.50439,0.125 -0.50439,-1.25 z m 4.11114,1.3070093 c 0.97297,-0.2535434 2.32297,-0.2368691 3,0.037054 0.67703,0.2739231 -0.11903,0.4813677 -1.76903,0.460988 -1.65,-0.02038 -2.20394,-0.2444986 -1.23097,-0.498042 z M 118.15789,7 c 0,-1.375 0.22698,-1.9375 0.50439,-1.25 0.27741,0.6875 0.27741,1.8125 0,2.5 -0.27741,0.6875 -0.50439,0.125 -0.50439,-1.25 z M 71.269032,3.3070093 c 0.972967,-0.2535434 2.322967,-0.2368691 3,0.037054 C 74.946064,3.6179864 74.15,3.825431 72.5,3.8050513 70.85,3.7846716 70.296064,3.5605527 71.269032,3.3070093 Z m 24,0 c 0.972967,-0.2535434 2.322967,-0.2368691 3,0.037054 C 98.946064,3.6179864 98.15,3.825431 96.5,3.8050513 94.85,3.7846716 94.296064,3.5605527 95.269032,3.3070093 Z m 11.999998,0 c 0.97297,-0.2535434 2.32297,-0.2368691 3,0.037054 0.67703,0.2739231 -0.11903,0.4813677 -1.76903,0.460988 -1.65,-0.02038 -2.20394,-0.2444986 -1.23097,-0.498042 z M 116.75,3.294267 c 1.2375,-0.2383529 3.2625,-0.2383529 4.5,0 1.2375,0.2383529 0.225,0.4333689 -2.25,0.4333689 -2.475,0 -3.4875,-0.195016 -2.25,-0.4333689 z m 11.51903,0.012742 c 0.97297,-0.2535434 2.32297,-0.2368691 3,0.037054 0.67703,0.2739231 -0.11903,0.4813677 -1.76903,0.460988 -1.65,-0.02038 -2.20394,-0.2444986 -1.23097,-0.498042 z"
         style="fill:#b9b9b9;fill-opacity:1" />
      <path
         d="m 82.157895,60 c 0,-1.375 0.226973,-1.9375 0.504386,-1.25 0.277412,0.6875 0.277412,1.8125 0,2.5 -0.277413,0.6875 -0.504386,0.125 -0.504386,-1.25 z m 9,0 c 0,-1.375 0.226973,-1.9375 0.504386,-1.25 0.277412,0.6875 0.277412,1.8125 0,2.5 -0.277413,0.6875 -0.504386,0.125 -0.504386,-1.25 z m 6,0 c 0,-1.375 0.226973,-1.9375 0.504386,-1.25 0.277412,0.6875 0.277412,1.8125 0,2.5 -0.277413,0.6875 -0.504386,0.125 -0.504386,-1.25 z m 5.999995,0 c 0,-1.375 0.22698,-1.9375 0.50439,-1.25 0.27741,0.6875 0.27741,1.8125 0,2.5 -0.27741,0.6875 -0.50439,0.125 -0.50439,-1.25 z m 6,0 c 0,-1.375 0.22698,-1.9375 0.50439,-1.25 0.27741,0.6875 0.27741,1.8125 0,2.5 -0.27741,0.6875 -0.50439,0.125 -0.50439,-1.25 z m 5.89286,1.5 c -0.0111,-0.55 0.39159,-1.650753 0.89479,-2.446118 0.5639,-0.891316 0.52695,-2.171035 -0.0963,-3.335646 -0.55618,-1.039241 -0.82288,-2.07789 -0.59266,-2.308108 0.23022,-0.230219 0.89201,0.620495 1.47066,1.890476 0.78052,1.713061 0.70254,2.940183 -0.30213,4.754226 C 115.6803,61.399673 115.06186,62.05 115.05079,61.5 Z M 86.353087,56.8403 C 85.780159,56.103135 84.995495,54.825 84.609388,54 c -0.386106,-0.825 0.07185,-0.452659 1.01768,0.827424 l 1.719692,2.327425 1.291185,-2.327425 c 0.710151,-1.280083 1.30713,-1.850932 1.32662,-1.268554 0.01949,0.582379 -0.550741,1.860514 -1.267178,2.8403 -1.065199,1.456746 -1.492471,1.537147 -2.3443,0.44113 z M 82.157895,55 c 0,-1.375 0.226973,-1.9375 0.504386,-1.25 0.277412,0.6875 0.277412,1.8125 0,2.5 -0.277413,0.6875 -0.504386,0.125 -0.504386,-1.25 z m 9,0 c 0,-1.375 0.226973,-1.9375 0.504386,-1.25 0.277412,0.6875 0.277412,1.8125 0,2.5 -0.277413,0.6875 -0.504386,0.125 -0.504386,-1.25 z m 6,0 c 0,-1.375 0.226973,-1.9375 0.504386,-1.25 0.277412,0.6875 0.277412,1.8125 0,2.5 -0.277413,0.6875 -0.504386,0.125 -0.504386,-1.25 z m 5.999995,0 c 0,-1.375 0.22698,-1.9375 0.50439,-1.25 0.27741,0.6875 0.27741,1.8125 0,2.5 -0.27741,0.6875 -0.50439,0.125 -0.50439,-1.25 z m 6,0 c 0,-1.375 0.22698,-1.9375 0.50439,-1.25 0.27741,0.6875 0.27741,1.8125 0,2.5 -0.27741,0.6875 -0.50439,0.125 -0.50439,-1.25 z M 67.157895,12 c 0,-1.375 0.226973,-1.9375 0.504386,-1.25 0.277412,0.6875 0.277412,1.8125 0,2.5 -0.277413,0.6875 -0.504386,0.125 -0.504386,-1.25 z m 12,0 c 0,-1.375 0.226973,-1.9375 0.504386,-1.25 0.277412,0.6875 0.277412,1.8125 0,2.5 -0.277413,0.6875 -0.504386,0.125 -0.504386,-1.25 z m 6.465644,0.461341 c -0.964979,-2.5146941 -0.680311,-3.1635549 0.498534,-1.136338 0.58369,1.003751 0.850598,2.035659 0.593129,2.293128 -0.257468,0.257469 -0.748717,-0.263087 -1.091663,-1.15679 z M 91.157895,12 c 0,-1.375 0.226973,-1.9375 0.504386,-1.25 0.277412,0.6875 0.277412,1.8125 0,2.5 -0.277413,0.6875 -0.504386,0.125 -0.504386,-1.25 z m 4.111137,1.307009 c 0.972967,-0.253543 2.322967,-0.236869 3,0.03705 C 98.946064,13.617986 98.15,13.825431 96.5,13.805051 94.85,13.784672 94.296064,13.560553 95.269032,13.307009 Z M 103.15789,12 c 0,-1.375 0.22698,-1.9375 0.50439,-1.25 0.27741,0.6875 0.27741,1.8125 0,2.5 -0.27741,0.6875 -0.50439,0.125 -0.50439,-1.25 z m 4.11114,1.307009 c 0.97297,-0.253543 2.32297,-0.236869 3,0.03705 0.67703,0.273923 -0.11903,0.481368 -1.76903,0.460988 -1.65,-0.02038 -2.20394,-0.244498 -1.23097,-0.498042 z M 118.15789,12 c 0,-1.375 0.22698,-1.9375 0.50439,-1.25 0.27741,0.6875 0.27741,1.8125 0,2.5 -0.27741,0.6875 -0.50439,0.125 -0.50439,-1.25 z m 8.87844,1.5 c 0.0143,-0.55 1.13474,-2.8 2.48976,-5 1.35501,-2.2 2.45192,-3.55 2.43758,-3 -0.0144,0.55 -1.13474,2.8 -2.48976,5 -1.35501,2.2 -2.45192,3.55 -2.43758,3 z M 67.157895,7 c 0,-1.375 0.226973,-1.9375 0.504386,-1.25 0.277412,0.6875 0.277412,1.8125 0,2.5 C 67.384868,8.9375 67.157895,8.375 67.157895,7 Z m 4.111137,1.3070093 c 0.972967,-0.2535434 2.322967,-0.2368691 3,0.037054 C 74.946064,8.6179864 74.15,8.825431 72.5,8.8050513 70.85,8.7846716 70.296064,8.5605527 71.269032,8.3070093 Z M 79.157895,7 c 0,-1.375 0.226973,-1.9375 0.504386,-1.25 0.277412,0.6875 0.277412,1.8125 0,2.5 C 79.384868,8.9375 79.157895,8.375 79.157895,7 Z m 4.635609,1.2885661 C 85.61938,7.9390192 85.953275,7.4060823 85.431109,5.6747482 84.914428,3.961599 85.039505,3.7510503 86.020388,4.6827826 87.834464,6.4059571 86.433468,9.022128 83.781385,8.8638179 L 81.5,8.7276359 Z M 91.157895,7 c 0,-1.375 0.226973,-1.9375 0.504386,-1.25 0.277412,0.6875 0.277412,1.8125 0,2.5 C 91.384868,8.9375 91.157895,8.375 91.157895,7 Z m 4.111137,1.3070093 c 0.972967,-0.2535434 2.322967,-0.2368691 3,0.037054 C 98.946064,8.6179864 98.15,8.825431 96.5,8.8050513 94.85,8.7846716 94.296064,8.5605527 95.269032,8.3070093 Z M 103.15789,7 c 0,-1.375 0.22698,-1.9375 0.50439,-1.25 0.27741,0.6875 0.27741,1.8125 0,2.5 -0.27741,0.6875 -0.50439,0.125 -0.50439,-1.25 z m 4.11114,1.3070093 c 0.97297,-0.2535434 2.32297,-0.2368691 3,0.037054 0.67703,0.2739231 -0.11903,0.4813677 -1.76903,0.460988 -1.65,-0.02038 -2.20394,-0.2444986 -1.23097,-0.498042 z M 118.15789,7 c 0,-1.375 0.22698,-1.9375 0.50439,-1.25 0.27741,0.6875 0.27741,1.8125 0,2.5 -0.27741,0.6875 -0.50439,0.125 -0.50439,-1.25 z M 71.269032,3.3070093 c 0.972967,-0.2535434 2.322967,-0.2368691 3,0.037054 C 74.946064,3.6179864 74.15,3.825431 72.5,3.8050513 70.85,3.7846716 70.296064,3.5605527 71.269032,3.3070093 Z m 24,0 c 0.972967,-0.2535434 2.322967,-0.2368691 3,0.037054 C 98.946064,3.6179864 98.15,3.825431 96.5,3.8050513 94.85,3.7846716 94.296064,3.5605527 95.269032,3.3070093 Z m 11.999998,0 c 0.97297,-0.2535434 2.32297,-0.2368691 3,0.037054 0.67703,0.2739231 -0.11903,0.4813677 -1.76903,0.460988 -1.65,-0.02038 -2.20394,-0.2444986 -1.23097,-0.498042 z M 116.75,3.294267 c 1.2375,-0.2383529 3.2625,-0.2383529 4.5,0 1.2375,0.2383529 0.225,0.4333689 -2.25,0.4333689 -2.475,0 -3.4875,-0.195016 -2.25,-0.4333689 z m 11.51903,0.012742 c 0.97297,-0.2535434 2.32297,-0.2368691 3,0.037054 0.67703,0.2739231 -0.11903,0.4813677 -1.76903,0.460988 -1.65,-0.02038 -2.20394,-0.2444986 -1.23097,-0.498042 z"
         style="fill:#a3a3a3;fill-opacity:1" />
      <path
         d="m 82.157895,60 c 0,-1.375 0.226973,-1.9375 0.504386,-1.25 0.277412,0.6875 0.277412,1.8125 0,2.5 -0.277413,0.6875 -0.504386,0.125 -0.504386,-1.25 z m 9,0 c 0,-1.375 0.226973,-1.9375 0.504386,-1.25 0.277412,0.6875 0.277412,1.8125 0,2.5 -0.277413,0.6875 -0.504386,0.125 -0.504386,-1.25 z m 6,0 c 0,-1.375 0.226973,-1.9375 0.504386,-1.25 0.277412,0.6875 0.277412,1.8125 0,2.5 -0.277413,0.6875 -0.504386,0.125 -0.504386,-1.25 z m 5.999995,0 c 0,-1.375 0.22698,-1.9375 0.50439,-1.25 0.27741,0.6875 0.27741,1.8125 0,2.5 -0.27741,0.6875 -0.50439,0.125 -0.50439,-1.25 z m 6,0 c 0,-1.375 0.22698,-1.9375 0.50439,-1.25 0.27741,0.6875 0.27741,1.8125 0,2.5 -0.27741,0.6875 -0.50439,0.125 -0.50439,-1.25 z m 5.89286,1.5 c -0.0111,-0.55 0.39159,-1.650753 0.89479,-2.446118 0.5639,-0.891316 0.52695,-2.171035 -0.0963,-3.335646 -0.55618,-1.039241 -0.82288,-2.07789 -0.59266,-2.308108 0.23022,-0.230219 0.89201,0.620495 1.47066,1.890476 0.78052,1.713061 0.70254,2.940183 -0.30213,4.754226 C 115.6803,61.399673 115.06186,62.05 115.05079,61.5 Z M 86.353087,56.8403 C 85.780159,56.103135 84.995495,54.825 84.609388,54 c -0.386106,-0.825 0.07185,-0.452659 1.01768,0.827424 l 1.719692,2.327425 1.291185,-2.327425 c 0.710151,-1.280083 1.30713,-1.850932 1.32662,-1.268554 0.01949,0.582379 -0.550741,1.860514 -1.267178,2.8403 -1.065199,1.456746 -1.492471,1.537147 -2.3443,0.44113 z M 82.157895,55 c 0,-1.375 0.226973,-1.9375 0.504386,-1.25 0.277412,0.6875 0.277412,1.8125 0,2.5 -0.277413,0.6875 -0.504386,0.125 -0.504386,-1.25 z m 9,0 c 0,-1.375 0.226973,-1.9375 0.504386,-1.25 0.277412,0.6875 0.277412,1.8125 0,2.5 -0.277413,0.6875 -0.504386,0.125 -0.504386,-1.25 z m 6,0 c 0,-1.375 0.226973,-1.9375 0.504386,-1.25 0.277412,0.6875 0.277412,1.8125 0,2.5 -0.277413,0.6875 -0.504386,0.125 -0.504386,-1.25 z m 5.999995,0 c 0,-1.375 0.22698,-1.9375 0.50439,-1.25 0.27741,0.6875 0.27741,1.8125 0,2.5 -0.27741,0.6875 -0.50439,0.125 -0.50439,-1.25 z m 6,0 c 0,-1.375 0.22698,-1.9375 0.50439,-1.25 0.27741,0.6875 0.27741,1.8125 0,2.5 -0.27741,0.6875 -0.50439,0.125 -0.50439,-1.25 z M 67.157895,12 c 0,-1.375 0.226973,-1.9375 0.504386,-1.25 0.277412,0.6875 0.277412,1.8125 0,2.5 -0.277413,0.6875 -0.504386,0.125 -0.504386,-1.25 z m 12,0 c 0,-1.375 0.226973,-1.9375 0.504386,-1.25 0.277412,0.6875 0.277412,1.8125 0,2.5 -0.277413,0.6875 -0.504386,0.125 -0.504386,-1.25 z m 6.465644,0.461341 c -0.964979,-2.5146941 -0.680311,-3.1635549 0.498534,-1.136338 0.58369,1.003751 0.850598,2.035659 0.593129,2.293128 -0.257468,0.257469 -0.748717,-0.263087 -1.091663,-1.15679 z M 91.157895,12 c 0,-1.375 0.226973,-1.9375 0.504386,-1.25 0.277412,0.6875 0.277412,1.8125 0,2.5 -0.277413,0.6875 -0.504386,0.125 -0.504386,-1.25 z m 4.111137,1.307009 c 0.972967,-0.253543 2.322967,-0.236869 3,0.03705 C 98.946064,13.617986 98.15,13.825431 96.5,13.805051 94.85,13.784672 94.296064,13.560553 95.269032,13.307009 Z M 103.15789,12 c 0,-1.375 0.22698,-1.9375 0.50439,-1.25 0.27741,0.6875 0.27741,1.8125 0,2.5 -0.27741,0.6875 -0.50439,0.125 -0.50439,-1.25 z m 4.11114,1.307009 c 0.97297,-0.253543 2.32297,-0.236869 3,0.03705 0.67703,0.273923 -0.11903,0.481368 -1.76903,0.460988 -1.65,-0.02038 -2.20394,-0.244498 -1.23097,-0.498042 z M 118.15789,12 c 0,-1.375 0.22698,-1.9375 0.50439,-1.25 0.27741,0.6875 0.27741,1.8125 0,2.5 -0.27741,0.6875 -0.50439,0.125 -0.50439,-1.25 z m 8.87844,1.5 c 0.0143,-0.55 1.13474,-2.8 2.48976,-5 1.35501,-2.2 2.45192,-3.55 2.43758,-3 -0.0144,0.55 -1.13474,2.8 -2.48976,5 -1.35501,2.2 -2.45192,3.55 -2.43758,3 z M 67.157895,7 c 0,-1.375 0.226973,-1.9375 0.504386,-1.25 0.277412,0.6875 0.277412,1.8125 0,2.5 C 67.384868,8.9375 67.157895,8.375 67.157895,7 Z m 4.111137,1.3070093 c 0.972967,-0.2535434 2.322967,-0.2368691 3,0.037054 C 74.946064,8.6179864 74.15,8.825431 72.5,8.8050513 70.85,8.7846716 70.296064,8.5605527 71.269032,8.3070093 Z M 79.157895,7 c 0,-1.375 0.226973,-1.9375 0.504386,-1.25 0.277412,0.6875 0.277412,1.8125 0,2.5 C 79.384868,8.9375 79.157895,8.375 79.157895,7 Z m 4.635609,1.2885661 C 85.61938,7.9390192 85.953275,7.4060823 85.431109,5.6747482 84.914428,3.961599 85.039505,3.7510503 86.020388,4.6827826 87.834464,6.4059571 86.433468,9.022128 83.781385,8.8638179 L 81.5,8.7276359 Z M 91.157895,7 c 0,-1.375 0.226973,-1.9375 0.504386,-1.25 0.277412,0.6875 0.277412,1.8125 0,2.5 C 91.384868,8.9375 91.157895,8.375 91.157895,7 Z m 4.111137,1.3070093 c 0.972967,-0.2535434 2.322967,-0.2368691 3,0.037054 C 98.946064,8.6179864 98.15,8.825431 96.5,8.8050513 94.85,8.7846716 94.296064,8.5605527 95.269032,8.3070093 Z M 103.15789,7 c 0,-1.375 0.22698,-1.9375 0.50439,-1.25 0.27741,0.6875 0.27741,1.8125 0,2.5 -0.27741,0.6875 -0.50439,0.125 -0.50439,-1.25 z m 4.11114,1.3070093 c 0.97297,-0.2535434 2.32297,-0.2368691 3,0.037054 0.67703,0.2739231 -0.11903,0.4813677 -1.76903,0.460988 -1.65,-0.02038 -2.20394,-0.2444986 -1.23097,-0.498042 z M 118.15789,7 c 0,-1.375 0.22698,-1.9375 0.50439,-1.25 0.27741,0.6875 0.27741,1.8125 0,2.5 -0.27741,0.6875 -0.50439,0.125 -0.50439,-1.25 z M 71.269032,3.3070093 c 0.972967,-0.2535434 2.322967,-0.2368691 3,0.037054 C 74.946064,3.6179864 74.15,3.825431 72.5,3.8050513 70.85,3.7846716 70.296064,3.5605527 71.269032,3.3070093 Z m 24,0 c 0.972967,-0.2535434 2.322967,-0.2368691 3,0.037054 C 98.946064,3.6179864 98.15,3.825431 96.5,3.8050513 94.85,3.7846716 94.296064,3.5605527 95.269032,3.3070093 Z m 11.999998,0 c 0.97297,-0.2535434 2.32297,-0.2368691 3,0.037054 0.67703,0.2739231 -0.11903,0.4813677 -1.76903,0.460988 -1.65,-0.02038 -2.20394,-0.2444986 -1.23097,-0.498042 z M 116.75,3.294267 c 1.2375,-0.2383529 3.2625,-0.2383529 4.5,0 1.2375,0.2383529 0.225,0.4333689 -2.25,0.4333689 -2.475,0 -3.4875,-0.195016 -2.25,-0.4333689 z m 11.51903,0.012742 c 0.97297,-0.2535434 2.32297,-0.2368691 3,0.037054 0.67703,0.2739231 -0.11903,0.4813677 -1.76903,0.460988 -1.65,-0.02038 -2.20394,-0.2444986 -1.23097,-0.498042 z"
         style="fill:#8c8c8c;fill-opacity:1" />
      <path
         d="m 82.157895,60 c 0,-1.375 0.226973,-1.9375 0.504386,-1.25 0.277412,0.6875 0.277412,1.8125 0,2.5 -0.277413,0.6875 -0.504386,0.125 -0.504386,-1.25 z m 9,0 c 0,-1.375 0.226973,-1.9375 0.504386,-1.25 0.277412,0.6875 0.277412,1.8125 0,2.5 -0.277413,0.6875 -0.504386,0.125 -0.504386,-1.25 z m 6,0 c 0,-1.375 0.226973,-1.9375 0.504386,-1.25 0.277412,0.6875 0.277412,1.8125 0,2.5 -0.277413,0.6875 -0.504386,0.125 -0.504386,-1.25 z m 5.999995,0 c 0,-1.375 0.22698,-1.9375 0.50439,-1.25 0.27741,0.6875 0.27741,1.8125 0,2.5 -0.27741,0.6875 -0.50439,0.125 -0.50439,-1.25 z m 6,0 c 0,-1.375 0.22698,-1.9375 0.50439,-1.25 0.27741,0.6875 0.27741,1.8125 0,2.5 -0.27741,0.6875 -0.50439,0.125 -0.50439,-1.25 z m 5.89286,1.5 c -0.0111,-0.55 0.39159,-1.650753 0.89479,-2.446118 0.5639,-0.891316 0.52695,-2.171035 -0.0963,-3.335646 -0.55618,-1.039241 -0.82288,-2.07789 -0.59266,-2.308108 0.23022,-0.230219 0.89201,0.620495 1.47066,1.890476 0.78052,1.713061 0.70254,2.940183 -0.30213,4.754226 C 115.6803,61.399673 115.06186,62.05 115.05079,61.5 Z M 86.353087,56.8403 C 85.780159,56.103135 84.995495,54.825 84.609388,54 c -0.386106,-0.825 0.07185,-0.452659 1.01768,0.827424 l 1.719692,2.327425 1.291185,-2.327425 c 0.710151,-1.280083 1.30713,-1.850932 1.32662,-1.268554 0.01949,0.582379 -0.550741,1.860514 -1.267178,2.8403 -1.065199,1.456746 -1.492471,1.537147 -2.3443,0.44113 z M 82.157895,55 c 0,-1.375 0.226973,-1.9375 0.504386,-1.25 0.277412,0.6875 0.277412,1.8125 0,2.5 -0.277413,0.6875 -0.504386,0.125 -0.504386,-1.25 z m 9,0 c 0,-1.375 0.226973,-1.9375 0.504386,-1.25 0.277412,0.6875 0.277412,1.8125 0,2.5 -0.277413,0.6875 -0.504386,0.125 -0.504386,-1.25 z m 6,0 c 0,-1.375 0.226973,-1.9375 0.504386,-1.25 0.277412,0.6875 0.277412,1.8125 0,2.5 -0.277413,0.6875 -0.504386,0.125 -0.504386,-1.25 z m 5.999995,0 c 0,-1.375 0.22698,-1.9375 0.50439,-1.25 0.27741,0.6875 0.27741,1.8125 0,2.5 -0.27741,0.6875 -0.50439,0.125 -0.50439,-1.25 z m 6,0 c 0,-1.375 0.22698,-1.9375 0.50439,-1.25 0.27741,0.6875 0.27741,1.8125 0,2.5 -0.27741,0.6875 -0.50439,0.125 -0.50439,-1.25 z M 67.157895,12 c 0,-1.375 0.226973,-1.9375 0.504386,-1.25 0.277412,0.6875 0.277412,1.8125 0,2.5 -0.277413,0.6875 -0.504386,0.125 -0.504386,-1.25 z m 12,0 c 0,-1.375 0.226973,-1.9375 0.504386,-1.25 0.277412,0.6875 0.277412,1.8125 0,2.5 -0.277413,0.6875 -0.504386,0.125 -0.504386,-1.25 z m 6.465644,0.461341 c -0.964979,-2.5146941 -0.680311,-3.1635549 0.498534,-1.136338 0.58369,1.003751 0.850598,2.035659 0.593129,2.293128 -0.257468,0.257469 -0.748717,-0.263087 -1.091663,-1.15679 z M 91.157895,12 c 0,-1.375 0.226973,-1.9375 0.504386,-1.25 0.277412,0.6875 0.277412,1.8125 0,2.5 -0.277413,0.6875 -0.504386,0.125 -0.504386,-1.25 z m 4.111137,1.307009 c 0.972967,-0.253543 2.322967,-0.236869 3,0.03705 C 98.946064,13.617986 98.15,13.825431 96.5,13.805051 94.85,13.784672 94.296064,13.560553 95.269032,13.307009 Z M 103.15789,12 c 0,-1.375 0.22698,-1.9375 0.50439,-1.25 0.27741,0.6875 0.27741,1.8125 0,2.5 -0.27741,0.6875 -0.50439,0.125 -0.50439,-1.25 z m 4.11114,1.307009 c 0.97297,-0.253543 2.32297,-0.236869 3,0.03705 0.67703,0.273923 -0.11903,0.481368 -1.76903,0.460988 -1.65,-0.02038 -2.20394,-0.244498 -1.23097,-0.498042 z M 118.15789,12 c 0,-1.375 0.22698,-1.9375 0.50439,-1.25 0.27741,0.6875 0.27741,1.8125 0,2.5 -0.27741,0.6875 -0.50439,0.125 -0.50439,-1.25 z m 8.87844,1.5 c 0.0143,-0.55 1.13474,-2.8 2.48976,-5 1.35501,-2.2 2.45192,-3.55 2.43758,-3 -0.0144,0.55 -1.13474,2.8 -2.48976,5 -1.35501,2.2 -2.45192,3.55 -2.43758,3 z M 67.157895,7 c 0,-1.375 0.226973,-1.9375 0.504386,-1.25 0.277412,0.6875 0.277412,1.8125 0,2.5 C 67.384868,8.9375 67.157895,8.375 67.157895,7 Z m 4.111137,1.3070093 c 0.972967,-0.2535434 2.322967,-0.2368691 3,0.037054 C 74.946064,8.6179864 74.15,8.825431 72.5,8.8050513 70.85,8.7846716 70.296064,8.5605527 71.269032,8.3070093 Z M 79.157895,7 c 0,-1.375 0.226973,-1.9375 0.504386,-1.25 0.277412,0.6875 0.277412,1.8125 0,2.5 C 79.384868,8.9375 79.157895,8.375 79.157895,7 Z m 4.635609,1.2885661 C 85.61938,7.9390192 85.953275,7.4060823 85.431109,5.6747482 84.914428,3.961599 85.039505,3.7510503 86.020388,4.6827826 87.834464,6.4059571 86.433468,9.022128 83.781385,8.8638179 L 81.5,8.7276359 Z M 91.157895,7 c 0,-1.375 0.226973,-1.9375 0.504386,-1.25 0.277412,0.6875 0.277412,1.8125 0,2.5 C 91.384868,8.9375 91.157895,8.375 91.157895,7 Z m 4.111137,1.3070093 c 0.972967,-0.2535434 2.322967,-0.2368691 3,0.037054 C 98.946064,8.6179864 98.15,8.825431 96.5,8.8050513 94.85,8.7846716 94.296064,8.5605527 95.269032,8.3070093 Z M 103.15789,7 c 0,-1.375 0.22698,-1.9375 0.50439,-1.25 0.27741,0.6875 0.27741,1.8125 0,2.5 -0.27741,0.6875 -0.50439,0.125 -0.50439,-1.25 z m 4.11114,1.3070093 c 0.97297,-0.2535434 2.32297,-0.2368691 3,0.037054 0.67703,0.2739231 -0.11903,0.4813677 -1.76903,0.460988 -1.65,-0.02038 -2.20394,-0.2444986 -1.23097,-0.498042 z M 118.15789,7 c 0,-1.375 0.22698,-1.9375 0.50439,-1.25 0.27741,0.6875 0.27741,1.8125 0,2.5 -0.27741,0.6875 -0.50439,0.125 -0.50439,-1.25 z M 71.269032,3.3070093 c 0.972967,-0.2535434 2.322967,-0.2368691 3,0.037054 C 74.946064,3.6179864 74.15,3.825431 72.5,3.8050513 70.85,3.7846716 70.296064,3.5605527 71.269032,3.3070093 Z m 24,0 c 0.972967,-0.2535434 2.322967,-0.2368691 3,0.037054 C 98.946064,3.6179864 98.15,3.825431 96.5,3.8050513 94.85,3.7846716 94.296064,3.5605527 95.269032,3.3070093 Z m 11.999998,0 c 0.97297,-0.2535434 2.32297,-0.2368691 3,0.037054 0.67703,0.2739231 -0.11903,0.4813677 -1.76903,0.460988 -1.65,-0.02038 -2.20394,-0.2444986 -1.23097,-0.498042 z M 116.75,3.294267 c 1.2375,-0.2383529 3.2625,-0.2383529 4.5,0 1.2375,0.2383529 0.225,0.4333689 -2.25,0.4333689 -2.475,0 -3.4875,-0.195016 -2.25,-0.4333689 z m 11.51903,0.012742 c 0.97297,-0.2535434 2.32297,-0.2368691 3,0.037054 0.67703,0.2739231 -0.11903,0.4813677 -1.76903,0.460988 -1.65,-0.02038 -2.20394,-0.2444986 -1.23097,-0.498042 z"
         style="fill:#767676;fill-opacity:1" />
      <path
         d="m 82.157895,60 c 0,-1.375 0.226973,-1.9375 0.504386,-1.25 0.277412,0.6875 0.277412,1.8125 0,2.5 -0.277413,0.6875 -0.504386,0.125 -0.504386,-1.25 z m 9,0 c 0,-1.375 0.226973,-1.9375 0.504386,-1.25 0.277412,0.6875 0.277412,1.8125 0,2.5 -0.277413,0.6875 -0.504386,0.125 -0.504386,-1.25 z m 6,0 c 0,-1.375 0.226973,-1.9375 0.504386,-1.25 0.277412,0.6875 0.277412,1.8125 0,2.5 -0.277413,0.6875 -0.504386,0.125 -0.504386,-1.25 z m 5.999995,0 c 0,-1.375 0.22698,-1.9375 0.50439,-1.25 0.27741,0.6875 0.27741,1.8125 0,2.5 -0.27741,0.6875 -0.50439,0.125 -0.50439,-1.25 z m 6,0 c 0,-1.375 0.22698,-1.9375 0.50439,-1.25 0.27741,0.6875 0.27741,1.8125 0,2.5 -0.27741,0.6875 -0.50439,0.125 -0.50439,-1.25 z m 5.89286,1.5 c -0.0111,-0.55 0.39159,-1.650753 0.89479,-2.446118 0.5639,-0.891316 0.52695,-2.171035 -0.0963,-3.335646 -0.55618,-1.039241 -0.82288,-2.07789 -0.59266,-2.308108 0.23022,-0.230219 0.89201,0.620495 1.47066,1.890476 0.78052,1.713061 0.70254,2.940183 -0.30213,4.754226 C 115.6803,61.399673 115.06186,62.05 115.05079,61.5 Z M 86.353087,56.8403 C 85.780159,56.103135 84.995495,54.825 84.609388,54 c -0.386106,-0.825 0.07185,-0.452659 1.01768,0.827424 l 1.719692,2.327425 1.291185,-2.327425 c 0.710151,-1.280083 1.30713,-1.850932 1.32662,-1.268554 0.01949,0.582379 -0.550741,1.860514 -1.267178,2.8403 -1.065199,1.456746 -1.492471,1.537147 -2.3443,0.44113 z M 82.157895,55 c 0,-1.375 0.226973,-1.9375 0.504386,-1.25 0.277412,0.6875 0.277412,1.8125 0,2.5 -0.277413,0.6875 -0.504386,0.125 -0.504386,-1.25 z m 9,0 c 0,-1.375 0.226973,-1.9375 0.504386,-1.25 0.277412,0.6875 0.277412,1.8125 0,2.5 -0.277413,0.6875 -0.504386,0.125 -0.504386,-1.25 z m 6,0 c 0,-1.375 0.226973,-1.9375 0.504386,-1.25 0.277412,0.6875 0.277412,1.8125 0,2.5 -0.277413,0.6875 -0.504386,0.125 -0.504386,-1.25 z m 5.999995,0 c 0,-1.375 0.22698,-1.9375 0.50439,-1.25 0.27741,0.6875 0.27741,1.8125 0,2.5 -0.27741,0.6875 -0.50439,0.125 -0.50439,-1.25 z m 6,0 c 0,-1.375 0.22698,-1.9375 0.50439,-1.25 0.27741,0.6875 0.27741,1.8125 0,2.5 -0.27741,0.6875 -0.50439,0.125 -0.50439,-1.25 z M 67.157895,12 c 0,-1.375 0.226973,-1.9375 0.504386,-1.25 0.277412,0.6875 0.277412,1.8125 0,2.5 -0.277413,0.6875 -0.504386,0.125 -0.504386,-1.25 z m 12,0 c 0,-1.375 0.226973,-1.9375 0.504386,-1.25 0.277412,0.6875 0.277412,1.8125 0,2.5 -0.277413,0.6875 -0.504386,0.125 -0.504386,-1.25 z m 6.465644,0.461341 c -0.964979,-2.5146941 -0.680311,-3.1635549 0.498534,-1.136338 0.58369,1.003751 0.850598,2.035659 0.593129,2.293128 -0.257468,0.257469 -0.748717,-0.263087 -1.091663,-1.15679 z M 91.157895,12 c 0,-1.375 0.226973,-1.9375 0.504386,-1.25 0.277412,0.6875 0.277412,1.8125 0,2.5 -0.277413,0.6875 -0.504386,0.125 -0.504386,-1.25 z m 4.111137,1.307009 c 0.972967,-0.253543 2.322967,-0.236869 3,0.03705 C 98.946064,13.617986 98.15,13.825431 96.5,13.805051 94.85,13.784672 94.296064,13.560553 95.269032,13.307009 Z M 103.15789,12 c 0,-1.375 0.22698,-1.9375 0.50439,-1.25 0.27741,0.6875 0.27741,1.8125 0,2.5 -0.27741,0.6875 -0.50439,0.125 -0.50439,-1.25 z m 4.11114,1.307009 c 0.97297,-0.253543 2.32297,-0.236869 3,0.03705 0.67703,0.273923 -0.11903,0.481368 -1.76903,0.460988 -1.65,-0.02038 -2.20394,-0.244498 -1.23097,-0.498042 z M 118.15789,12 c 0,-1.375 0.22698,-1.9375 0.50439,-1.25 0.27741,0.6875 0.27741,1.8125 0,2.5 -0.27741,0.6875 -0.50439,0.125 -0.50439,-1.25 z m 8.87844,1.5 c 0.0143,-0.55 1.13474,-2.8 2.48976,-5 1.35501,-2.2 2.45192,-3.55 2.43758,-3 -0.0144,0.55 -1.13474,2.8 -2.48976,5 -1.35501,2.2 -2.45192,3.55 -2.43758,3 z M 67.157895,7 c 0,-1.375 0.226973,-1.9375 0.504386,-1.25 0.277412,0.6875 0.277412,1.8125 0,2.5 C 67.384868,8.9375 67.157895,8.375 67.157895,7 Z m 4.111137,1.3070093 c 0.972967,-0.2535434 2.322967,-0.2368691 3,0.037054 C 74.946064,8.6179864 74.15,8.825431 72.5,8.8050513 70.85,8.7846716 70.296064,8.5605527 71.269032,8.3070093 Z M 79.157895,7 c 0,-1.375 0.226973,-1.9375 0.504386,-1.25 0.277412,0.6875 0.277412,1.8125 0,2.5 C 79.384868,8.9375 79.157895,8.375 79.157895,7 Z m 4.635609,1.2885661 C 85.61938,7.9390192 85.953275,7.4060823 85.431109,5.6747482 84.914428,3.961599 85.039505,3.7510503 86.020388,4.6827826 87.834464,6.4059571 86.433468,9.022128 83.781385,8.8638179 L 81.5,8.7276359 Z M 91.157895,7 c 0,-1.375 0.226973,-1.9375 0.504386,-1.25 0.277412,0.6875 0.277412,1.8125 0,2.5 C 91.384868,8.9375 91.157895,8.375 91.157895,7 Z m 4.111137,1.3070093 c 0.972967,-0.2535434 2.322967,-0.2368691 3,0.037054 C 98.946064,8.6179864 98.15,8.825431 96.5,8.8050513 94.85,8.7846716 94.296064,8.5605527 95.269032,8.3070093 Z M 103.15789,7 c 0,-1.375 0.22698,-1.9375 0.50439,-1.25 0.27741,0.6875 0.27741,1.8125 0,2.5 -0.27741,0.6875 -0.50439,0.125 -0.50439,-1.25 z m 4.11114,1.3070093 c 0.97297,-0.2535434 2.32297,-0.2368691 3,0.037054 0.67703,0.2739231 -0.11903,0.4813677 -1.76903,0.460988 -1.65,-0.02038 -2.20394,-0.2444986 -1.23097,-0.498042 z M 118.15789,7 c 0,-1.375 0.22698,-1.9375 0.50439,-1.25 0.27741,0.6875 0.27741,1.8125 0,2.5 -0.27741,0.6875 -0.50439,0.125 -0.50439,-1.25 z M 71.269032,3.3070093 c 0.972967,-0.2535434 2.322967,-0.2368691 3,0.037054 C 74.946064,3.6179864 74.15,3.825431 72.5,3.8050513 70.85,3.7846716 70.296064,3.5605527 71.269032,3.3070093 Z m 24,0 c 0.972967,-0.2535434 2.322967,-0.2368691 3,0.037054 C 98.946064,3.6179864 98.15,3.825431 96.5,3.8050513 94.85,3.7846716 94.296064,3.5605527 95.269032,3.3070093 Z m 11.999998,0 c 0.97297,-0.2535434 2.32297,-0.2368691 3,0.037054 0.67703,0.2739231 -0.11903,0.4813677 -1.76903,0.460988 -1.65,-0.02038 -2.20394,-0.2444986 -1.23097,-0.498042 z M 116.75,3.294267 c 1.2375,-0.2383529 3.2625,-0.2383529 4.5,0 1.2375,0.2383529 0.225,0.4333689 -2.25,0.4333689 -2.475,0 -3.4875,-0.195016 -2.25,-0.4333689 z m 11.51903,0.012742 c 0.97297,-0.2535434 2.32297,-0.2368691 3,0.037054 0.67703,0.2739231 -0.11903,0.4813677 -1.76903,0.460988 -1.65,-0.02038 -2.20394,-0.2444986 -1.23097,-0.498042 z"
         style="fill:#606060;fill-opacity:1" />
      <path
         d="m 82.157895,60 c 0,-1.375 0.226973,-1.9375 0.504386,-1.25 0.277412,0.6875 0.277412,1.8125 0,2.5 -0.277413,0.6875 -0.504386,0.125 -0.504386,-1.25 z m 9,0 c 0,-1.375 0.226973,-1.9375 0.504386,-1.25 0.277412,0.6875 0.277412,1.8125 0,2.5 -0.277413,0.6875 -0.504386,0.125 -0.504386,-1.25 z m 6,0 c 0,-1.375 0.226973,-1.9375 0.504386,-1.25 0.277412,0.6875 0.277412,1.8125 0,2.5 -0.277413,0.6875 -0.504386,0.125 -0.504386,-1.25 z m 5.999995,0 c 0,-1.375 0.22698,-1.9375 0.50439,-1.25 0.27741,0.6875 0.27741,1.8125 0,2.5 -0.27741,0.6875 -0.50439,0.125 -0.50439,-1.25 z m 6,0 c 0,-1.375 0.22698,-1.9375 0.50439,-1.25 0.27741,0.6875 0.27741,1.8125 0,2.5 -0.27741,0.6875 -0.50439,0.125 -0.50439,-1.25 z m 5.89286,1.5 c -0.0111,-0.55 0.39159,-1.650753 0.89479,-2.446118 0.5639,-0.891316 0.52695,-2.171035 -0.0963,-3.335646 -0.55618,-1.039241 -0.82288,-2.07789 -0.59266,-2.308108 0.23022,-0.230219 0.89201,0.620495 1.47066,1.890476 0.78052,1.713061 0.70254,2.940183 -0.30213,4.754226 C 115.6803,61.399673 115.06186,62.05 115.05079,61.5 Z M 86.353087,56.8403 C 85.780159,56.103135 84.995495,54.825 84.609388,54 c -0.386106,-0.825 0.07185,-0.452659 1.01768,0.827424 l 1.719692,2.327425 1.291185,-2.327425 c 0.710151,-1.280083 1.30713,-1.850932 1.32662,-1.268554 0.01949,0.582379 -0.550741,1.860514 -1.267178,2.8403 -1.065199,1.456746 -1.492471,1.537147 -2.3443,0.44113 z M 82.157895,55 c 0,-1.375 0.226973,-1.9375 0.504386,-1.25 0.277412,0.6875 0.277412,1.8125 0,2.5 -0.277413,0.6875 -0.504386,0.125 -0.504386,-1.25 z m 9,0 c 0,-1.375 0.226973,-1.9375 0.504386,-1.25 0.277412,0.6875 0.277412,1.8125 0,2.5 -0.277413,0.6875 -0.504386,0.125 -0.504386,-1.25 z m 6,0 c 0,-1.375 0.226973,-1.9375 0.504386,-1.25 0.277412,0.6875 0.277412,1.8125 0,2.5 -0.277413,0.6875 -0.504386,0.125 -0.504386,-1.25 z m 5.999995,0 c 0,-1.375 0.22698,-1.9375 0.50439,-1.25 0.27741,0.6875 0.27741,1.8125 0,2.5 -0.27741,0.6875 -0.50439,0.125 -0.50439,-1.25 z m 6,0 c 0,-1.375 0.22698,-1.9375 0.50439,-1.25 0.27741,0.6875 0.27741,1.8125 0,2.5 -0.27741,0.6875 -0.50439,0.125 -0.50439,-1.25 z M 67.157895,12 c 0,-1.375 0.226973,-1.9375 0.504386,-1.25 0.277412,0.6875 0.277412,1.8125 0,2.5 -0.277413,0.6875 -0.504386,0.125 -0.504386,-1.25 z m 12,0 c 0,-1.375 0.226973,-1.9375 0.504386,-1.25 0.277412,0.6875 0.277412,1.8125 0,2.5 -0.277413,0.6875 -0.504386,0.125 -0.504386,-1.25 z m 6.465644,0.461341 c -0.964979,-2.5146941 -0.680311,-3.1635549 0.498534,-1.136338 0.58369,1.003751 0.850598,2.035659 0.593129,2.293128 -0.257468,0.257469 -0.748717,-0.263087 -1.091663,-1.15679 z M 91.157895,12 c 0,-1.375 0.226973,-1.9375 0.504386,-1.25 0.277412,0.6875 0.277412,1.8125 0,2.5 -0.277413,0.6875 -0.504386,0.125 -0.504386,-1.25 z m 4.111137,1.307009 c 0.972967,-0.253543 2.322967,-0.236869 3,0.03705 C 98.946064,13.617986 98.15,13.825431 96.5,13.805051 94.85,13.784672 94.296064,13.560553 95.269032,13.307009 Z M 103.15789,12 c 0,-1.375 0.22698,-1.9375 0.50439,-1.25 0.27741,0.6875 0.27741,1.8125 0,2.5 -0.27741,0.6875 -0.50439,0.125 -0.50439,-1.25 z m 4.11114,1.307009 c 0.97297,-0.253543 2.32297,-0.236869 3,0.03705 0.67703,0.273923 -0.11903,0.481368 -1.76903,0.460988 -1.65,-0.02038 -2.20394,-0.244498 -1.23097,-0.498042 z M 118.15789,12 c 0,-1.375 0.22698,-1.9375 0.50439,-1.25 0.27741,0.6875 0.27741,1.8125 0,2.5 -0.27741,0.6875 -0.50439,0.125 -0.50439,-1.25 z m 8.87844,1.5 c 0.0143,-0.55 1.13474,-2.8 2.48976,-5 1.35501,-2.2 2.45192,-3.55 2.43758,-3 -0.0144,0.55 -1.13474,2.8 -2.48976,5 -1.35501,2.2 -2.45192,3.55 -2.43758,3 z M 67.157895,7 c 0,-1.375 0.226973,-1.9375 0.504386,-1.25 0.277412,0.6875 0.277412,1.8125 0,2.5 C 67.384868,8.9375 67.157895,8.375 67.157895,7 Z m 4.111137,1.3070093 c 0.972967,-0.2535434 2.322967,-0.2368691 3,0.037054 C 74.946064,8.6179864 74.15,8.825431 72.5,8.8050513 70.85,8.7846716 70.296064,8.5605527 71.269032,8.3070093 Z M 79.157895,7 c 0,-1.375 0.226973,-1.9375 0.504386,-1.25 0.277412,0.6875 0.277412,1.8125 0,2.5 C 79.384868,8.9375 79.157895,8.375 79.157895,7 Z m 4.635609,1.2885661 C 85.61938,7.9390192 85.953275,7.4060823 85.431109,5.6747482 84.914428,3.961599 85.039505,3.7510503 86.020388,4.6827826 87.834464,6.4059571 86.433468,9.022128 83.781385,8.8638179 L 81.5,8.7276359 Z M 91.157895,7 c 0,-1.375 0.226973,-1.9375 0.504386,-1.25 0.277412,0.6875 0.277412,1.8125 0,2.5 C 91.384868,8.9375 91.157895,8.375 91.157895,7 Z m 4.111137,1.3070093 c 0.972967,-0.2535434 2.322967,-0.2368691 3,0.037054 C 98.946064,8.6179864 98.15,8.825431 96.5,8.8050513 94.85,8.7846716 94.296064,8.5605527 95.269032,8.3070093 Z M 103.15789,7 c 0,-1.375 0.22698,-1.9375 0.50439,-1.25 0.27741,0.6875 0.27741,1.8125 0,2.5 -0.27741,0.6875 -0.50439,0.125 -0.50439,-1.25 z m 4.11114,1.3070093 c 0.97297,-0.2535434 2.32297,-0.2368691 3,0.037054 0.67703,0.2739231 -0.11903,0.4813677 -1.76903,0.460988 -1.65,-0.02038 -2.20394,-0.2444986 -1.23097,-0.498042 z M 118.15789,7 c 0,-1.375 0.22698,-1.9375 0.50439,-1.25 0.27741,0.6875 0.27741,1.8125 0,2.5 -0.27741,0.6875 -0.50439,0.125 -0.50439,-1.25 z M 71.269032,3.3070093 c 0.972967,-0.2535434 2.322967,-0.2368691 3,0.037054 C 74.946064,3.6179864 74.15,3.825431 72.5,3.8050513 70.85,3.7846716 70.296064,3.5605527 71.269032,3.3070093 Z m 24,0 c 0.972967,-0.2535434 2.322967,-0.2368691 3,0.037054 C 98.946064,3.6179864 98.15,3.825431 96.5,3.8050513 94.85,3.7846716 94.296064,3.5605527 95.269032,3.3070093 Z m 11.999998,0 c 0.97297,-0.2535434 2.32297,-0.2368691 3,0.037054 0.67703,0.2739231 -0.11903,0.4813677 -1.76903,0.460988 -1.65,-0.02038 -2.20394,-0.2444986 -1.23097,-0.498042 z M 116.75,3.294267 c 1.2375,-0.2383529 3.2625,-0.2383529 4.5,0 1.2375,0.2383529 0.225,0.4333689 -2.25,0.4333689 -2.475,0 -3.4875,-0.195016 -2.25,-0.4333689 z m 11.51903,0.012742 c 0.97297,-0.2535434 2.32297,-0.2368691 3,0.037054 0.67703,0.2739231 -0.11903,0.4813677 -1.76903,0.460988 -1.65,-0.02038 -2.20394,-0.2444986 -1.23097,-0.498042 z"
         style="fill:#494949;fill-opacity:1" />
      <path
         d="m 82.157895,60 c 0,-1.375 0.226973,-1.9375 0.504386,-1.25 0.277412,0.6875 0.277412,1.8125 0,2.5 -0.277413,0.6875 -0.504386,0.125 -0.504386,-1.25 z m 9,0 c 0,-1.375 0.226973,-1.9375 0.504386,-1.25 0.277412,0.6875 0.277412,1.8125 0,2.5 -0.277413,0.6875 -0.504386,0.125 -0.504386,-1.25 z m 6,0 c 0,-1.375 0.226973,-1.9375 0.504386,-1.25 0.277412,0.6875 0.277412,1.8125 0,2.5 -0.277413,0.6875 -0.504386,0.125 -0.504386,-1.25 z m 5.999995,0 c 0,-1.375 0.22698,-1.9375 0.50439,-1.25 0.27741,0.6875 0.27741,1.8125 0,2.5 -0.27741,0.6875 -0.50439,0.125 -0.50439,-1.25 z m 6,0 c 0,-1.375 0.22698,-1.9375 0.50439,-1.25 0.27741,0.6875 0.27741,1.8125 0,2.5 -0.27741,0.6875 -0.50439,0.125 -0.50439,-1.25 z m 5.89286,1.5 c -0.0111,-0.55 0.39159,-1.650753 0.89479,-2.446118 0.5639,-0.891316 0.52695,-2.171035 -0.0963,-3.335646 -0.55618,-1.039241 -0.82288,-2.07789 -0.59266,-2.308108 0.23022,-0.230219 0.89201,0.620495 1.47066,1.890476 0.78052,1.713061 0.70254,2.940183 -0.30213,4.754226 C 115.6803,61.399673 115.06186,62.05 115.05079,61.5 Z M 86.353087,56.8403 C 85.780159,56.103135 84.995495,54.825 84.609388,54 c -0.386106,-0.825 0.07185,-0.452659 1.01768,0.827424 l 1.719692,2.327425 1.291185,-2.327425 c 0.710151,-1.280083 1.30713,-1.850932 1.32662,-1.268554 0.01949,0.582379 -0.550741,1.860514 -1.267178,2.8403 -1.065199,1.456746 -1.492471,1.537147 -2.3443,0.44113 z M 82.157895,55 c 0,-1.375 0.226973,-1.9375 0.504386,-1.25 0.277412,0.6875 0.277412,1.8125 0,2.5 -0.277413,0.6875 -0.504386,0.125 -0.504386,-1.25 z m 9,0 c 0,-1.375 0.226973,-1.9375 0.504386,-1.25 0.277412,0.6875 0.277412,1.8125 0,2.5 -0.277413,0.6875 -0.504386,0.125 -0.504386,-1.25 z m 6,0 c 0,-1.375 0.226973,-1.9375 0.504386,-1.25 0.277412,0.6875 0.277412,1.8125 0,2.5 -0.277413,0.6875 -0.504386,0.125 -0.504386,-1.25 z m 5.999995,0 c 0,-1.375 0.22698,-1.9375 0.50439,-1.25 0.27741,0.6875 0.27741,1.8125 0,2.5 -0.27741,0.6875 -0.50439,0.125 -0.50439,-1.25 z m 6,0 c 0,-1.375 0.22698,-1.9375 0.50439,-1.25 0.27741,0.6875 0.27741,1.8125 0,2.5 -0.27741,0.6875 -0.50439,0.125 -0.50439,-1.25 z M 67.157895,12 c 0,-1.375 0.226973,-1.9375 0.504386,-1.25 0.277412,0.6875 0.277412,1.8125 0,2.5 -0.277413,0.6875 -0.504386,0.125 -0.504386,-1.25 z m 12,0 c 0,-1.375 0.226973,-1.9375 0.504386,-1.25 0.277412,0.6875 0.277412,1.8125 0,2.5 -0.277413,0.6875 -0.504386,0.125 -0.504386,-1.25 z m 6.465644,0.461341 c -0.964979,-2.5146941 -0.680311,-3.1635549 0.498534,-1.136338 0.58369,1.003751 0.850598,2.035659 0.593129,2.293128 -0.257468,0.257469 -0.748717,-0.263087 -1.091663,-1.15679 z M 91.157895,12 c 0,-1.375 0.226973,-1.9375 0.504386,-1.25 0.277412,0.6875 0.277412,1.8125 0,2.5 -0.277413,0.6875 -0.504386,0.125 -0.504386,-1.25 z m 4.111137,1.307009 c 0.972967,-0.253543 2.322967,-0.236869 3,0.03705 C 98.946064,13.617986 98.15,13.825431 96.5,13.805051 94.85,13.784672 94.296064,13.560553 95.269032,13.307009 Z M 103.15789,12 c 0,-1.375 0.22698,-1.9375 0.50439,-1.25 0.27741,0.6875 0.27741,1.8125 0,2.5 -0.27741,0.6875 -0.50439,0.125 -0.50439,-1.25 z m 4.11114,1.307009 c 0.97297,-0.253543 2.32297,-0.236869 3,0.03705 0.67703,0.273923 -0.11903,0.481368 -1.76903,0.460988 -1.65,-0.02038 -2.20394,-0.244498 -1.23097,-0.498042 z M 118.15789,12 c 0,-1.375 0.22698,-1.9375 0.50439,-1.25 0.27741,0.6875 0.27741,1.8125 0,2.5 -0.27741,0.6875 -0.50439,0.125 -0.50439,-1.25 z m 8.87844,1.5 c 0.0143,-0.55 1.13474,-2.8 2.48976,-5 1.35501,-2.2 2.45192,-3.55 2.43758,-3 -0.0144,0.55 -1.13474,2.8 -2.48976,5 -1.35501,2.2 -2.45192,3.55 -2.43758,3 z M 67.157895,7 c 0,-1.375 0.226973,-1.9375 0.504386,-1.25 0.277412,0.6875 0.277412,1.8125 0,2.5 C 67.384868,8.9375 67.157895,8.375 67.157895,7 Z m 4.111137,1.3070093 c 0.972967,-0.2535434 2.322967,-0.2368691 3,0.037054 C 74.946064,8.6179864 74.15,8.825431 72.5,8.8050513 70.85,8.7846716 70.296064,8.5605527 71.269032,8.3070093 Z M 79.157895,7 c 0,-1.375 0.226973,-1.9375 0.504386,-1.25 0.277412,0.6875 0.277412,1.8125 0,2.5 C 79.384868,8.9375 79.157895,8.375 79.157895,7 Z m 4.635609,1.2885661 C 85.61938,7.9390192 85.953275,7.4060823 85.431109,5.6747482 84.914428,3.961599 85.039505,3.7510503 86.020388,4.6827826 87.834464,6.4059571 86.433468,9.022128 83.781385,8.8638179 L 81.5,8.7276359 Z M 91.157895,7 c 0,-1.375 0.226973,-1.9375 0.504386,-1.25 0.277412,0.6875 0.277412,1.8125 0,2.5 C 91.384868,8.9375 91.157895,8.375 91.157895,7 Z m 4.111137,1.3070093 c 0.972967,-0.2535434 2.322967,-0.2368691 3,0.037054 C 98.946064,8.6179864 98.15,8.825431 96.5,8.8050513 94.85,8.7846716 94.296064,8.5605527 95.269032,8.3070093 Z M 103.15789,7 c 0,-1.375 0.22698,-1.9375 0.50439,-1.25 0.27741,0.6875 0.27741,1.8125 0,2.5 -0.27741,0.6875 -0.50439,0.125 -0.50439,-1.25 z m 4.11114,1.3070093 c 0.97297,-0.2535434 2.32297,-0.2368691 3,0.037054 0.67703,0.2739231 -0.11903,0.4813677 -1.76903,0.460988 -1.65,-0.02038 -2.20394,-0.2444986 -1.23097,-0.498042 z M 118.15789,7 c 0,-1.375 0.22698,-1.9375 0.50439,-1.25 0.27741,0.6875 0.27741,1.8125 0,2.5 -0.27741,0.6875 -0.50439,0.125 -0.50439,-1.25 z M 71.269032,3.3070093 c 0.972967,-0.2535434 2.322967,-0.2368691 3,0.037054 C 74.946064,3.6179864 74.15,3.825431 72.5,3.8050513 70.85,3.7846716 70.296064,3.5605527 71.269032,3.3070093 Z m 24,0 c 0.972967,-0.2535434 2.322967,-0.2368691 3,0.037054 C 98.946064,3.6179864 98.15,3.825431 96.5,3.8050513 94.85,3.7846716 94.296064,3.5605527 95.269032,3.3070093 Z m 11.999998,0 c 0.97297,-0.2535434 2.32297,-0.2368691 3,0.037054 0.67703,0.2739231 -0.11903,0.4813677 -1.76903,0.460988 -1.65,-0.02038 -2.20394,-0.2444986 -1.23097,-0.498042 z M 116.75,3.294267 c 1.2375,-0.2383529 3.2625,-0.2383529 4.5,0 1.2375,0.2383529 0.225,0.4333689 -2.25,0.4333689 -2.475,0 -3.4875,-0.195016 -2.25,-0.4333689 z m 11.51903,0.012742 c 0.97297,-0.2535434 2.32297,-0.2368691 3,0.037054 0.67703,0.2739231 -0.11903,0.4813677 -1.76903,0.460988 -1.65,-0.02038 -2.20394,-0.2444986 -1.23097,-0.498042 z"
         style="fill:#333333;fill-opacity:1" />
    </g>
</svg>
