<svg xmlns="http://www.w3.org/2000/svg" viewBox="0 0 177.1 139.1">
<path d="M21,23.48V14.92l2.18,2.19v5.81l-1.37,1.37Zm2.18,3V32.3L21,34.48V26l.81-.84Zm10-11.92-2.16,2.18H23.6l-2.16-2.18Zm-2.3,9L32,24.68l-1.1,1.1h-7.6l-1.07-1.1,1.07-1.09Z"/>
<path d="M43.19,22.92l-1.37,1.37L41,23.48V14.92l2.19,2.19Zm0,9.78L41,34.89V26l.82-.84,1.37,1.36Zm8.52-17.08-1.08,1.11H43.56l-2.15-2.18h9.22Zm-.81,8L52,24.71,50.9,25.8H43.3l-1.07-1.09,1.07-1.09Zm-6.25,4.27,0-1.53h1.54l7,7v1.55H51.65Zm8.54-4.41-.79.81L51,22.92V17.11L52.1,16l1.09,1.11Z"/>
<path d="M61,23.48V14.92l2.18,2.19v5.81l-1.36,1.37Zm2.18,3v5.82L61,34.47V26l.82-.84Zm10-11.92L71,16.73H63.53l-2.15-2.18Zm0,20.33H61.38l2.15-2.18H71Zm-2.3-11.26L72,24.71,70.86,25.8H63.27l-1.08-1.09,1.08-1.09Z"/>
<path d="M80.94,23.48V14.92l2.18,2.19v5.81l-1.37,1.37Zm2.18,3v5.82l-2.18,2.18V26l.81-.84Zm10-11.92L91,16.73H83.5l-2.15-2.18Zm0,20.33H81.35L83.5,32.7H91Zm-2.3-11.26,1.11,1.09L90.83,25.8H83.24l-1.08-1.09,1.08-1.09Z"/>
<path d="M113.1,14.55l-2.16,2.18h-7.85l-2.18-2.18Zm-5,10-.81.78L105.91,24V18.21L107,17.14l1.1,1.07Zm0,9.22L107,34.89l-1.08-1.08V27.55l1.37-1.37.81.82Z"/>
<path d="M133.06,15.62,132,16.73h-8.93l-2.18-2.18H132Zm-7.79,9.49,1.18-.12.27,1.94-4.25,5.24h-1.59V30.66Zm7.39,9.77H122l-1.07-1.08L122,32.7h8.55Zm-3.8-10.72-1.92.23-.09-1.17,4.7-5.94h1.51l0,1.58Z"/>
<path d="M61,109.48v-8.94l2.18,2.18v6.21l-1.36,1.36Zm2.18,3v6.23L61,120.89V112l.82-.84Zm.51-8.21V102.7h1.53L70.46,108v1.55H69ZM71,108.92V102.7l2.18-2.18v9l-.79.81Zm2.18,3v8.93L71,118.7v-6.23l1.39-1.36Z"/>
<path d="M83.12,108.92l-1.37,1.37-.81-.81v-6.37L82,102l1.1,1.11Zm0,9.37L82,119.4l-1.08-1.11V112l.81-.84,1.37,1.36Zm9.6-17.74-2.15,2.18H83.5l-1.08-1.11,1.08-1.07Zm-2.15,20.33,1.08-1.08-1.08-1.1H83.5l-1.08,1.1,1.08,1.08Zm1.37-10.17-1.11,1.09H88.39l-1.08-1.09,1.08-1.09h2.44Zm1.19,7.58L92,119.4,91,118.29v-5.82l1.38-1.36.8.84Z"/>
</svg>

