<svg xmlns="http://www.w3.org/2000/svg" viewBox="0 0 177.1 139.1">
    <g transform="matrix(1.8,0,0,1.8,-97,7)">
      <path
         d="m 87.194949,60.5 c 0.02038,-1.65 0.244498,-2.203936 0.498042,-1.230968 0.253543,0.972967 0.236869,2.322967 -0.03705,3 C 87.382014,62.946064 87.174569,62.15 87.194949,60.5 Z m 4.759214,0.414354 c -0.613912,-1.147106 -0.895832,-2.306018 -0.626489,-2.575361 0.269342,-0.269343 0.835196,0.556698 1.257452,1.835646 L 93.352864,62.5 94.076752,60 l 0.723888,-2.5 0.09968,2.75 c 0.118092,3.257951 -1.377601,3.595227 -2.946157,0.664354 z m 7,0 c -0.613912,-1.147106 -0.891204,-2.310647 -0.616204,-2.585647 0.275,-0.275 1.002292,0.438541 1.616204,1.585647 C 101.43097,62.673789 106,62.793928 106,60.073324 c 0,-1.059672 -0.7875,-2.158834 -1.75,-2.442582 -1.36412,-0.402147 -1.30899,-0.471556 0.25,-0.314774 1.37276,0.138054 2.09924,1.060905 2.31642,2.942583 C 107.10853,62.789326 106.86148,63 103.60161,63 101.04549,63 99.762138,62.424068 98.954163,60.914354 Z M 87.09968,54.75 C 87.044856,53.2375 87.434167,52 87.964816,52 c 1.132477,0 3.423867,3.944651 2.70751,4.661007 -0.269342,0.269343 -0.835196,-0.556698 -1.257452,-1.835646 L 88.647136,52.5 87.923248,55 87.19936,57.5 Z m 7.095269,-0.25 c 0.02038,-1.65 0.244498,-2.203936 0.498042,-1.230968 0.253543,0.972967 0.236869,2.322967 -0.03705,3 C 94.382014,56.946064 94.174569,56.15 94.194949,54.5 Z m 5.047678,0.25 c 1.670113,-2.527794 5.419473,-3.487897 7.091463,-1.815915 0.80455,0.804553 0.25887,0.934508 -2.01467,0.479799 -2.5887,-0.517739 -3.2315,-0.266256 -3.78614,1.48125 C 100.16585,56.05281 99.390662,57 98.81064,57 98.19919,57 98.38071,56.054554 99.242627,54.75 Z M 65.194949,11.5 c 0.02038,-1.65 0.244498,-2.2039356 0.498042,-1.230968 0.253543,0.972967 0.236869,2.322967 -0.03705,3 C 65.382014,13.946064 65.174569,13.15 65.194949,11.5 Z m 12,0 c 0.02038,-1.65 0.244498,-2.2039356 0.498042,-1.230968 0.253543,0.972967 0.236869,2.322967 -0.03705,3 C 77.382014,13.946064 77.174569,13.15 77.194949,11.5 Z m 6.411809,0.06934 C 83.240834,10.111376 82.096952,8.9653298 80.74835,8.7055168 78.872247,8.3440789 78.967443,8.2498172 81.323324,8.1361821 84.900937,7.9636171 84.664814,4.914723 80.994749,3.8935254 78.700022,3.2550164 78.675667,3.191368 80.690983,3.09968 c 2.839266,-0.129174 3.757624,1.428185 3.92162,6.65032 0.151625,4.828204 -0.12506,5.328662 -1.005845,1.819335 z M 89.194949,11.5 c 0.02038,-1.65 0.244498,-2.2039356 0.498042,-1.230968 0.253543,0.972967 0.236869,2.322967 -0.03705,3 C 89.382014,13.946064 89.174569,13.15 89.194949,11.5 Z m 3.56671,1.792739 c 1.243913,-0.239193 3.043913,-0.230112 4,0.02018 C 97.717747,13.563212 96.7,13.758916 94.5,13.747817 92.3,13.736717 91.517747,13.531932 92.761659,13.292739 Z M 102.19495,11.5 c 0.0204,-1.65 0.2445,-2.2039356 0.49804,-1.230968 0.25354,0.972967 0.23687,2.322967 -0.037,3 C 102.38201,13.946064 102.17457,13.15 102.19495,11.5 Z m 3.56671,1.792739 c 1.24391,-0.239193 3.04391,-0.230112 4,0.02018 0.95609,0.250292 -0.0617,0.445996 -2.26166,0.434897 -2.2,-0.0111 -2.98225,-0.215885 -1.73834,-0.455078 z M 117.19495,11.5 c 0.0204,-1.65 0.2445,-2.2039356 0.49804,-1.230968 0.25354,0.972967 0.23687,2.322967 -0.037,3 C 117.38201,13.946064 117.17457,13.15 117.19495,11.5 Z m 7.90532,0.25 c 1.65423,-3.1794813 2.26153,-3.6191438 1.47903,-1.070758 -0.56137,1.828217 -0.21896,2.247044 2.12577,2.600168 2.28098,0.343523 2.09888,0.448478 -0.99025,0.570758 -3.62059,0.143317 -3.73428,0.05199 -2.61455,-2.100168 z M 68.269032,8.3070093 c 0.972967,-0.2535434 2.322967,-0.2368691 3,0.037054 C 71.946064,8.6179864 71.15,8.825431 69.5,8.8050513 67.85,8.7846716 67.296064,8.5605527 68.269032,8.3070093 Z m 24,0 c 0.972967,-0.2535434 2.322967,-0.2368691 3,0.037054 C 95.946064,8.6179864 95.15,8.825431 93.5,8.8050513 91.85,8.7846716 91.296064,8.5605527 92.269032,8.3070093 Z m 12.999998,0 c 0.97297,-0.2535434 2.32297,-0.2368691 3,0.037054 0.67703,0.2739231 -0.11903,0.4813677 -1.76903,0.460988 -1.65,-0.02038 -2.20394,-0.2444986 -1.23097,-0.498042 z M 65.157895,6 c 0,-1.375 0.226973,-1.9375 0.504386,-1.25 0.277412,0.6875 0.277412,1.8125 0,2.5 C 65.384868,7.9375 65.157895,7.375 65.157895,6 Z m 12,0 c 0,-1.375 0.226973,-1.9375 0.504386,-1.25 0.277412,0.6875 0.277412,1.8125 0,2.5 C 77.384868,7.9375 77.157895,7.375 77.157895,6 Z m 12,0 c 0,-1.375 0.226973,-1.9375 0.504386,-1.25 0.277412,0.6875 0.277412,1.8125 0,2.5 C 89.384868,7.9375 89.157895,7.375 89.157895,6 Z m 12.999995,0 c 0,-1.375 0.22698,-1.9375 0.50439,-1.25 0.27741,0.6875 0.27741,1.8125 0,2.5 -0.27741,0.6875 -0.50439,0.125 -0.50439,-1.25 z m 14.97829,0.319551 c -0.0879,-1.4077454 -0.93353,-2.3340256 -2.38618,-2.613818 -1.2375,-0.2383529 0,-0.4333689 2.75,-0.4333689 2.75,0 4.01517,0.1913898 2.81149,0.4253107 -1.26305,0.24546 -2.36836,1.3507625 -2.61382,2.6138179 L 117.27236,8.5 Z m 11.28452,0.00121 c 0.56137,-1.8282165 0.21896,-2.2470435 -2.12577,-2.6001679 -2.28098,-0.343523 -2.09888,-0.448478 0.99025,-0.5707579 3.62059,-0.1433166 3.73428,-0.051991 2.61455,2.1001679 -1.65423,3.1794813 -2.26153,3.6191438 -1.47903,1.0707579 z M 68.25,3.3106745 c 0.9625,-0.2515276 2.5375,-0.2515276 3.5,0 0.9625,0.2515275 0.175,0.4573228 -1.75,0.4573228 -1.925,0 -2.7125,-0.2057953 -1.75,-0.4573228 z m 24.511659,-0.017935 c 1.243913,-0.2391932 3.043913,-0.2301119 4,0.020181 C 97.717747,3.5632124 96.7,3.758916 94.5,3.7478166 92.3,3.7367172 91.517747,3.5319324 92.761659,3.2927395 Z m 13.000001,0 c 1.24391,-0.2391932 3.04391,-0.2301119 4,0.020181 C 110.71775,3.5632124 109.7,3.758916 107.5,3.7478166 105.3,3.7367172 104.51775,3.5319324 105.76166,3.2927395 Z"
         style="fill:#b9b9b9;fill-opacity:1" />
      <path
         d="m 87.194949,60.5 c 0.02038,-1.65 0.244498,-2.203936 0.498042,-1.230968 0.253543,0.972967 0.236869,2.322967 -0.03705,3 C 87.382014,62.946064 87.174569,62.15 87.194949,60.5 Z m 4.759214,0.414354 c -0.613912,-1.147106 -0.895832,-2.306018 -0.626489,-2.575361 0.269342,-0.269343 0.835196,0.556698 1.257452,1.835646 L 93.352864,62.5 94.076752,60 l 0.723888,-2.5 0.09968,2.75 c 0.118092,3.257951 -1.377601,3.595227 -2.946157,0.664354 z m 7,0 c -0.613912,-1.147106 -0.891204,-2.310647 -0.616204,-2.585647 0.275,-0.275 1.002292,0.438541 1.616204,1.585647 C 101.43097,62.673789 106,62.793928 106,60.073324 c 0,-1.059672 -0.7875,-2.158834 -1.75,-2.442582 -1.36412,-0.402147 -1.30899,-0.471556 0.25,-0.314774 1.37276,0.138054 2.09924,1.060905 2.31642,2.942583 C 107.10853,62.789326 106.86148,63 103.60161,63 101.04549,63 99.762138,62.424068 98.954163,60.914354 Z M 87.09968,54.75 C 87.044856,53.2375 87.434167,52 87.964816,52 c 1.132477,0 3.423867,3.944651 2.70751,4.661007 -0.269342,0.269343 -0.835196,-0.556698 -1.257452,-1.835646 L 88.647136,52.5 87.923248,55 87.19936,57.5 Z m 7.095269,-0.25 c 0.02038,-1.65 0.244498,-2.203936 0.498042,-1.230968 0.253543,0.972967 0.236869,2.322967 -0.03705,3 C 94.382014,56.946064 94.174569,56.15 94.194949,54.5 Z m 5.047678,0.25 c 1.670113,-2.527794 5.419473,-3.487897 7.091463,-1.815915 0.80455,0.804553 0.25887,0.934508 -2.01467,0.479799 -2.5887,-0.517739 -3.2315,-0.266256 -3.78614,1.48125 C 100.16585,56.05281 99.390662,57 98.81064,57 98.19919,57 98.38071,56.054554 99.242627,54.75 Z M 65.194949,11.5 c 0.02038,-1.65 0.244498,-2.2039356 0.498042,-1.230968 0.253543,0.972967 0.236869,2.322967 -0.03705,3 C 65.382014,13.946064 65.174569,13.15 65.194949,11.5 Z m 12,0 c 0.02038,-1.65 0.244498,-2.2039356 0.498042,-1.230968 0.253543,0.972967 0.236869,2.322967 -0.03705,3 C 77.382014,13.946064 77.174569,13.15 77.194949,11.5 Z m 6.411809,0.06934 C 83.240834,10.111376 82.096952,8.9653298 80.74835,8.7055168 78.872247,8.3440789 78.967443,8.2498172 81.323324,8.1361821 84.900937,7.9636171 84.664814,4.914723 80.994749,3.8935254 78.700022,3.2550164 78.675667,3.191368 80.690983,3.09968 c 2.839266,-0.129174 3.757624,1.428185 3.92162,6.65032 0.151625,4.828204 -0.12506,5.328662 -1.005845,1.819335 z M 89.194949,11.5 c 0.02038,-1.65 0.244498,-2.2039356 0.498042,-1.230968 0.253543,0.972967 0.236869,2.322967 -0.03705,3 C 89.382014,13.946064 89.174569,13.15 89.194949,11.5 Z m 3.56671,1.792739 c 1.243913,-0.239193 3.043913,-0.230112 4,0.02018 C 97.717747,13.563212 96.7,13.758916 94.5,13.747817 92.3,13.736717 91.517747,13.531932 92.761659,13.292739 Z M 102.19495,11.5 c 0.0204,-1.65 0.2445,-2.2039356 0.49804,-1.230968 0.25354,0.972967 0.23687,2.322967 -0.037,3 C 102.38201,13.946064 102.17457,13.15 102.19495,11.5 Z m 3.56671,1.792739 c 1.24391,-0.239193 3.04391,-0.230112 4,0.02018 0.95609,0.250292 -0.0617,0.445996 -2.26166,0.434897 -2.2,-0.0111 -2.98225,-0.215885 -1.73834,-0.455078 z M 117.19495,11.5 c 0.0204,-1.65 0.2445,-2.2039356 0.49804,-1.230968 0.25354,0.972967 0.23687,2.322967 -0.037,3 C 117.38201,13.946064 117.17457,13.15 117.19495,11.5 Z m 7.90532,0.25 c 1.65423,-3.1794813 2.26153,-3.6191438 1.47903,-1.070758 -0.56137,1.828217 -0.21896,2.247044 2.12577,2.600168 2.28098,0.343523 2.09888,0.448478 -0.99025,0.570758 -3.62059,0.143317 -3.73428,0.05199 -2.61455,-2.100168 z M 68.269032,8.3070093 c 0.972967,-0.2535434 2.322967,-0.2368691 3,0.037054 C 71.946064,8.6179864 71.15,8.825431 69.5,8.8050513 67.85,8.7846716 67.296064,8.5605527 68.269032,8.3070093 Z m 24,0 c 0.972967,-0.2535434 2.322967,-0.2368691 3,0.037054 C 95.946064,8.6179864 95.15,8.825431 93.5,8.8050513 91.85,8.7846716 91.296064,8.5605527 92.269032,8.3070093 Z m 12.999998,0 c 0.97297,-0.2535434 2.32297,-0.2368691 3,0.037054 0.67703,0.2739231 -0.11903,0.4813677 -1.76903,0.460988 -1.65,-0.02038 -2.20394,-0.2444986 -1.23097,-0.498042 z M 65.157895,6 c 0,-1.375 0.226973,-1.9375 0.504386,-1.25 0.277412,0.6875 0.277412,1.8125 0,2.5 C 65.384868,7.9375 65.157895,7.375 65.157895,6 Z m 12,0 c 0,-1.375 0.226973,-1.9375 0.504386,-1.25 0.277412,0.6875 0.277412,1.8125 0,2.5 C 77.384868,7.9375 77.157895,7.375 77.157895,6 Z m 12,0 c 0,-1.375 0.226973,-1.9375 0.504386,-1.25 0.277412,0.6875 0.277412,1.8125 0,2.5 C 89.384868,7.9375 89.157895,7.375 89.157895,6 Z m 12.999995,0 c 0,-1.375 0.22698,-1.9375 0.50439,-1.25 0.27741,0.6875 0.27741,1.8125 0,2.5 -0.27741,0.6875 -0.50439,0.125 -0.50439,-1.25 z m 14.97829,0.319551 c -0.0879,-1.4077454 -0.93353,-2.3340256 -2.38618,-2.613818 -1.2375,-0.2383529 0,-0.4333689 2.75,-0.4333689 2.75,0 4.01517,0.1913898 2.81149,0.4253107 -1.26305,0.24546 -2.36836,1.3507625 -2.61382,2.6138179 L 117.27236,8.5 Z m 11.28452,0.00121 c 0.56137,-1.8282165 0.21896,-2.2470435 -2.12577,-2.6001679 -2.28098,-0.343523 -2.09888,-0.448478 0.99025,-0.5707579 3.62059,-0.1433166 3.73428,-0.051991 2.61455,2.1001679 -1.65423,3.1794813 -2.26153,3.6191438 -1.47903,1.0707579 z M 68.25,3.3106745 c 0.9625,-0.2515276 2.5375,-0.2515276 3.5,0 0.9625,0.2515275 0.175,0.4573228 -1.75,0.4573228 -1.925,0 -2.7125,-0.2057953 -1.75,-0.4573228 z m 24.511659,-0.017935 c 1.243913,-0.2391932 3.043913,-0.2301119 4,0.020181 C 97.717747,3.5632124 96.7,3.758916 94.5,3.7478166 92.3,3.7367172 91.517747,3.5319324 92.761659,3.2927395 Z m 13.000001,0 c 1.24391,-0.2391932 3.04391,-0.2301119 4,0.020181 C 110.71775,3.5632124 109.7,3.758916 107.5,3.7478166 105.3,3.7367172 104.51775,3.5319324 105.76166,3.2927395 Z"
         style="fill:#a3a3a3;fill-opacity:1" />
      <path
         d="m 87.194949,60.5 c 0.02038,-1.65 0.244498,-2.203936 0.498042,-1.230968 0.253543,0.972967 0.236869,2.322967 -0.03705,3 C 87.382014,62.946064 87.174569,62.15 87.194949,60.5 Z m 4.759214,0.414354 c -0.613912,-1.147106 -0.895832,-2.306018 -0.626489,-2.575361 0.269342,-0.269343 0.835196,0.556698 1.257452,1.835646 L 93.352864,62.5 94.076752,60 l 0.723888,-2.5 0.09968,2.75 c 0.118092,3.257951 -1.377601,3.595227 -2.946157,0.664354 z m 7,0 c -0.613912,-1.147106 -0.891204,-2.310647 -0.616204,-2.585647 0.275,-0.275 1.002292,0.438541 1.616204,1.585647 C 101.43097,62.673789 106,62.793928 106,60.073324 c 0,-1.059672 -0.7875,-2.158834 -1.75,-2.442582 -1.36412,-0.402147 -1.30899,-0.471556 0.25,-0.314774 1.37276,0.138054 2.09924,1.060905 2.31642,2.942583 C 107.10853,62.789326 106.86148,63 103.60161,63 101.04549,63 99.762138,62.424068 98.954163,60.914354 Z M 87.09968,54.75 C 87.044856,53.2375 87.434167,52 87.964816,52 c 1.132477,0 3.423867,3.944651 2.70751,4.661007 -0.269342,0.269343 -0.835196,-0.556698 -1.257452,-1.835646 L 88.647136,52.5 87.923248,55 87.19936,57.5 Z m 7.095269,-0.25 c 0.02038,-1.65 0.244498,-2.203936 0.498042,-1.230968 0.253543,0.972967 0.236869,2.322967 -0.03705,3 C 94.382014,56.946064 94.174569,56.15 94.194949,54.5 Z m 5.047678,0.25 c 1.670113,-2.527794 5.419473,-3.487897 7.091463,-1.815915 0.80455,0.804553 0.25887,0.934508 -2.01467,0.479799 -2.5887,-0.517739 -3.2315,-0.266256 -3.78614,1.48125 C 100.16585,56.05281 99.390662,57 98.81064,57 98.19919,57 98.38071,56.054554 99.242627,54.75 Z M 65.194949,11.5 c 0.02038,-1.65 0.244498,-2.2039356 0.498042,-1.230968 0.253543,0.972967 0.236869,2.322967 -0.03705,3 C 65.382014,13.946064 65.174569,13.15 65.194949,11.5 Z m 12,0 c 0.02038,-1.65 0.244498,-2.2039356 0.498042,-1.230968 0.253543,0.972967 0.236869,2.322967 -0.03705,3 C 77.382014,13.946064 77.174569,13.15 77.194949,11.5 Z m 6.411809,0.06934 C 83.240834,10.111376 82.096952,8.9653298 80.74835,8.7055168 78.872247,8.3440789 78.967443,8.2498172 81.323324,8.1361821 84.900937,7.9636171 84.664814,4.914723 80.994749,3.8935254 78.700022,3.2550164 78.675667,3.191368 80.690983,3.09968 c 2.839266,-0.129174 3.757624,1.428185 3.92162,6.65032 0.151625,4.828204 -0.12506,5.328662 -1.005845,1.819335 z M 89.194949,11.5 c 0.02038,-1.65 0.244498,-2.2039356 0.498042,-1.230968 0.253543,0.972967 0.236869,2.322967 -0.03705,3 C 89.382014,13.946064 89.174569,13.15 89.194949,11.5 Z m 3.56671,1.792739 c 1.243913,-0.239193 3.043913,-0.230112 4,0.02018 C 97.717747,13.563212 96.7,13.758916 94.5,13.747817 92.3,13.736717 91.517747,13.531932 92.761659,13.292739 Z M 102.19495,11.5 c 0.0204,-1.65 0.2445,-2.2039356 0.49804,-1.230968 0.25354,0.972967 0.23687,2.322967 -0.037,3 C 102.38201,13.946064 102.17457,13.15 102.19495,11.5 Z m 3.56671,1.792739 c 1.24391,-0.239193 3.04391,-0.230112 4,0.02018 0.95609,0.250292 -0.0617,0.445996 -2.26166,0.434897 -2.2,-0.0111 -2.98225,-0.215885 -1.73834,-0.455078 z M 117.19495,11.5 c 0.0204,-1.65 0.2445,-2.2039356 0.49804,-1.230968 0.25354,0.972967 0.23687,2.322967 -0.037,3 C 117.38201,13.946064 117.17457,13.15 117.19495,11.5 Z m 7.90532,0.25 c 1.65423,-3.1794813 2.26153,-3.6191438 1.47903,-1.070758 -0.56137,1.828217 -0.21896,2.247044 2.12577,2.600168 2.28098,0.343523 2.09888,0.448478 -0.99025,0.570758 -3.62059,0.143317 -3.73428,0.05199 -2.61455,-2.100168 z M 68.269032,8.3070093 c 0.972967,-0.2535434 2.322967,-0.2368691 3,0.037054 C 71.946064,8.6179864 71.15,8.825431 69.5,8.8050513 67.85,8.7846716 67.296064,8.5605527 68.269032,8.3070093 Z m 24,0 c 0.972967,-0.2535434 2.322967,-0.2368691 3,0.037054 C 95.946064,8.6179864 95.15,8.825431 93.5,8.8050513 91.85,8.7846716 91.296064,8.5605527 92.269032,8.3070093 Z m 12.999998,0 c 0.97297,-0.2535434 2.32297,-0.2368691 3,0.037054 0.67703,0.2739231 -0.11903,0.4813677 -1.76903,0.460988 -1.65,-0.02038 -2.20394,-0.2444986 -1.23097,-0.498042 z M 65.157895,6 c 0,-1.375 0.226973,-1.9375 0.504386,-1.25 0.277412,0.6875 0.277412,1.8125 0,2.5 C 65.384868,7.9375 65.157895,7.375 65.157895,6 Z m 12,0 c 0,-1.375 0.226973,-1.9375 0.504386,-1.25 0.277412,0.6875 0.277412,1.8125 0,2.5 C 77.384868,7.9375 77.157895,7.375 77.157895,6 Z m 12,0 c 0,-1.375 0.226973,-1.9375 0.504386,-1.25 0.277412,0.6875 0.277412,1.8125 0,2.5 C 89.384868,7.9375 89.157895,7.375 89.157895,6 Z m 12.999995,0 c 0,-1.375 0.22698,-1.9375 0.50439,-1.25 0.27741,0.6875 0.27741,1.8125 0,2.5 -0.27741,0.6875 -0.50439,0.125 -0.50439,-1.25 z m 14.97829,0.319551 c -0.0879,-1.4077454 -0.93353,-2.3340256 -2.38618,-2.613818 -1.2375,-0.2383529 0,-0.4333689 2.75,-0.4333689 2.75,0 4.01517,0.1913898 2.81149,0.4253107 -1.26305,0.24546 -2.36836,1.3507625 -2.61382,2.6138179 L 117.27236,8.5 Z m 11.28452,0.00121 c 0.56137,-1.8282165 0.21896,-2.2470435 -2.12577,-2.6001679 -2.28098,-0.343523 -2.09888,-0.448478 0.99025,-0.5707579 3.62059,-0.1433166 3.73428,-0.051991 2.61455,2.1001679 -1.65423,3.1794813 -2.26153,3.6191438 -1.47903,1.0707579 z M 68.25,3.3106745 c 0.9625,-0.2515276 2.5375,-0.2515276 3.5,0 0.9625,0.2515275 0.175,0.4573228 -1.75,0.4573228 -1.925,0 -2.7125,-0.2057953 -1.75,-0.4573228 z m 24.511659,-0.017935 c 1.243913,-0.2391932 3.043913,-0.2301119 4,0.020181 C 97.717747,3.5632124 96.7,3.758916 94.5,3.7478166 92.3,3.7367172 91.517747,3.5319324 92.761659,3.2927395 Z m 13.000001,0 c 1.24391,-0.2391932 3.04391,-0.2301119 4,0.020181 C 110.71775,3.5632124 109.7,3.758916 107.5,3.7478166 105.3,3.7367172 104.51775,3.5319324 105.76166,3.2927395 Z"
         style="fill:#8c8c8c;fill-opacity:1" />
      <path
         d="m 87.194949,60.5 c 0.02038,-1.65 0.244498,-2.203936 0.498042,-1.230968 0.253543,0.972967 0.236869,2.322967 -0.03705,3 C 87.382014,62.946064 87.174569,62.15 87.194949,60.5 Z m 4.759214,0.414354 c -0.613912,-1.147106 -0.895832,-2.306018 -0.626489,-2.575361 0.269342,-0.269343 0.835196,0.556698 1.257452,1.835646 L 93.352864,62.5 94.076752,60 l 0.723888,-2.5 0.09968,2.75 c 0.118092,3.257951 -1.377601,3.595227 -2.946157,0.664354 z m 7,0 c -0.613912,-1.147106 -0.891204,-2.310647 -0.616204,-2.585647 0.275,-0.275 1.002292,0.438541 1.616204,1.585647 C 101.43097,62.673789 106,62.793928 106,60.073324 c 0,-1.059672 -0.7875,-2.158834 -1.75,-2.442582 -1.36412,-0.402147 -1.30899,-0.471556 0.25,-0.314774 1.37276,0.138054 2.09924,1.060905 2.31642,2.942583 C 107.10853,62.789326 106.86148,63 103.60161,63 101.04549,63 99.762138,62.424068 98.954163,60.914354 Z M 87.09968,54.75 C 87.044856,53.2375 87.434167,52 87.964816,52 c 1.132477,0 3.423867,3.944651 2.70751,4.661007 -0.269342,0.269343 -0.835196,-0.556698 -1.257452,-1.835646 L 88.647136,52.5 87.923248,55 87.19936,57.5 Z m 7.095269,-0.25 c 0.02038,-1.65 0.244498,-2.203936 0.498042,-1.230968 0.253543,0.972967 0.236869,2.322967 -0.03705,3 C 94.382014,56.946064 94.174569,56.15 94.194949,54.5 Z m 5.047678,0.25 c 1.670113,-2.527794 5.419473,-3.487897 7.091463,-1.815915 0.80455,0.804553 0.25887,0.934508 -2.01467,0.479799 -2.5887,-0.517739 -3.2315,-0.266256 -3.78614,1.48125 C 100.16585,56.05281 99.390662,57 98.81064,57 98.19919,57 98.38071,56.054554 99.242627,54.75 Z M 65.194949,11.5 c 0.02038,-1.65 0.244498,-2.2039356 0.498042,-1.230968 0.253543,0.972967 0.236869,2.322967 -0.03705,3 C 65.382014,13.946064 65.174569,13.15 65.194949,11.5 Z m 12,0 c 0.02038,-1.65 0.244498,-2.2039356 0.498042,-1.230968 0.253543,0.972967 0.236869,2.322967 -0.03705,3 C 77.382014,13.946064 77.174569,13.15 77.194949,11.5 Z m 6.411809,0.06934 C 83.240834,10.111376 82.096952,8.9653298 80.74835,8.7055168 78.872247,8.3440789 78.967443,8.2498172 81.323324,8.1361821 84.900937,7.9636171 84.664814,4.914723 80.994749,3.8935254 78.700022,3.2550164 78.675667,3.191368 80.690983,3.09968 c 2.839266,-0.129174 3.757624,1.428185 3.92162,6.65032 0.151625,4.828204 -0.12506,5.328662 -1.005845,1.819335 z M 89.194949,11.5 c 0.02038,-1.65 0.244498,-2.2039356 0.498042,-1.230968 0.253543,0.972967 0.236869,2.322967 -0.03705,3 C 89.382014,13.946064 89.174569,13.15 89.194949,11.5 Z m 3.56671,1.792739 c 1.243913,-0.239193 3.043913,-0.230112 4,0.02018 C 97.717747,13.563212 96.7,13.758916 94.5,13.747817 92.3,13.736717 91.517747,13.531932 92.761659,13.292739 Z M 102.19495,11.5 c 0.0204,-1.65 0.2445,-2.2039356 0.49804,-1.230968 0.25354,0.972967 0.23687,2.322967 -0.037,3 C 102.38201,13.946064 102.17457,13.15 102.19495,11.5 Z m 3.56671,1.792739 c 1.24391,-0.239193 3.04391,-0.230112 4,0.02018 0.95609,0.250292 -0.0617,0.445996 -2.26166,0.434897 -2.2,-0.0111 -2.98225,-0.215885 -1.73834,-0.455078 z M 117.19495,11.5 c 0.0204,-1.65 0.2445,-2.2039356 0.49804,-1.230968 0.25354,0.972967 0.23687,2.322967 -0.037,3 C 117.38201,13.946064 117.17457,13.15 117.19495,11.5 Z m 7.90532,0.25 c 1.65423,-3.1794813 2.26153,-3.6191438 1.47903,-1.070758 -0.56137,1.828217 -0.21896,2.247044 2.12577,2.600168 2.28098,0.343523 2.09888,0.448478 -0.99025,0.570758 -3.62059,0.143317 -3.73428,0.05199 -2.61455,-2.100168 z M 68.269032,8.3070093 c 0.972967,-0.2535434 2.322967,-0.2368691 3,0.037054 C 71.946064,8.6179864 71.15,8.825431 69.5,8.8050513 67.85,8.7846716 67.296064,8.5605527 68.269032,8.3070093 Z m 24,0 c 0.972967,-0.2535434 2.322967,-0.2368691 3,0.037054 C 95.946064,8.6179864 95.15,8.825431 93.5,8.8050513 91.85,8.7846716 91.296064,8.5605527 92.269032,8.3070093 Z m 12.999998,0 c 0.97297,-0.2535434 2.32297,-0.2368691 3,0.037054 0.67703,0.2739231 -0.11903,0.4813677 -1.76903,0.460988 -1.65,-0.02038 -2.20394,-0.2444986 -1.23097,-0.498042 z M 65.157895,6 c 0,-1.375 0.226973,-1.9375 0.504386,-1.25 0.277412,0.6875 0.277412,1.8125 0,2.5 C 65.384868,7.9375 65.157895,7.375 65.157895,6 Z m 12,0 c 0,-1.375 0.226973,-1.9375 0.504386,-1.25 0.277412,0.6875 0.277412,1.8125 0,2.5 C 77.384868,7.9375 77.157895,7.375 77.157895,6 Z m 12,0 c 0,-1.375 0.226973,-1.9375 0.504386,-1.25 0.277412,0.6875 0.277412,1.8125 0,2.5 C 89.384868,7.9375 89.157895,7.375 89.157895,6 Z m 12.999995,0 c 0,-1.375 0.22698,-1.9375 0.50439,-1.25 0.27741,0.6875 0.27741,1.8125 0,2.5 -0.27741,0.6875 -0.50439,0.125 -0.50439,-1.25 z m 14.97829,0.319551 c -0.0879,-1.4077454 -0.93353,-2.3340256 -2.38618,-2.613818 -1.2375,-0.2383529 0,-0.4333689 2.75,-0.4333689 2.75,0 4.01517,0.1913898 2.81149,0.4253107 -1.26305,0.24546 -2.36836,1.3507625 -2.61382,2.6138179 L 117.27236,8.5 Z m 11.28452,0.00121 c 0.56137,-1.8282165 0.21896,-2.2470435 -2.12577,-2.6001679 -2.28098,-0.343523 -2.09888,-0.448478 0.99025,-0.5707579 3.62059,-0.1433166 3.73428,-0.051991 2.61455,2.1001679 -1.65423,3.1794813 -2.26153,3.6191438 -1.47903,1.0707579 z M 68.25,3.3106745 c 0.9625,-0.2515276 2.5375,-0.2515276 3.5,0 0.9625,0.2515275 0.175,0.4573228 -1.75,0.4573228 -1.925,0 -2.7125,-0.2057953 -1.75,-0.4573228 z m 24.511659,-0.017935 c 1.243913,-0.2391932 3.043913,-0.2301119 4,0.020181 C 97.717747,3.5632124 96.7,3.758916 94.5,3.7478166 92.3,3.7367172 91.517747,3.5319324 92.761659,3.2927395 Z m 13.000001,0 c 1.24391,-0.2391932 3.04391,-0.2301119 4,0.020181 C 110.71775,3.5632124 109.7,3.758916 107.5,3.7478166 105.3,3.7367172 104.51775,3.5319324 105.76166,3.2927395 Z"
         style="fill:#767676;fill-opacity:1" />
      <path
         d="m 87.194949,60.5 c 0.02038,-1.65 0.244498,-2.203936 0.498042,-1.230968 0.253543,0.972967 0.236869,2.322967 -0.03705,3 C 87.382014,62.946064 87.174569,62.15 87.194949,60.5 Z m 4.759214,0.414354 c -0.613912,-1.147106 -0.895832,-2.306018 -0.626489,-2.575361 0.269342,-0.269343 0.835196,0.556698 1.257452,1.835646 L 93.352864,62.5 94.076752,60 l 0.723888,-2.5 0.09968,2.75 c 0.118092,3.257951 -1.377601,3.595227 -2.946157,0.664354 z m 7,0 c -0.613912,-1.147106 -0.891204,-2.310647 -0.616204,-2.585647 0.275,-0.275 1.002292,0.438541 1.616204,1.585647 C 101.43097,62.673789 106,62.793928 106,60.073324 c 0,-1.059672 -0.7875,-2.158834 -1.75,-2.442582 -1.36412,-0.402147 -1.30899,-0.471556 0.25,-0.314774 1.37276,0.138054 2.09924,1.060905 2.31642,2.942583 C 107.10853,62.789326 106.86148,63 103.60161,63 101.04549,63 99.762138,62.424068 98.954163,60.914354 Z M 87.09968,54.75 C 87.044856,53.2375 87.434167,52 87.964816,52 c 1.132477,0 3.423867,3.944651 2.70751,4.661007 -0.269342,0.269343 -0.835196,-0.556698 -1.257452,-1.835646 L 88.647136,52.5 87.923248,55 87.19936,57.5 Z m 7.095269,-0.25 c 0.02038,-1.65 0.244498,-2.203936 0.498042,-1.230968 0.253543,0.972967 0.236869,2.322967 -0.03705,3 C 94.382014,56.946064 94.174569,56.15 94.194949,54.5 Z m 5.047678,0.25 c 1.670113,-2.527794 5.419473,-3.487897 7.091463,-1.815915 0.80455,0.804553 0.25887,0.934508 -2.01467,0.479799 -2.5887,-0.517739 -3.2315,-0.266256 -3.78614,1.48125 C 100.16585,56.05281 99.390662,57 98.81064,57 98.19919,57 98.38071,56.054554 99.242627,54.75 Z M 65.194949,11.5 c 0.02038,-1.65 0.244498,-2.2039356 0.498042,-1.230968 0.253543,0.972967 0.236869,2.322967 -0.03705,3 C 65.382014,13.946064 65.174569,13.15 65.194949,11.5 Z m 12,0 c 0.02038,-1.65 0.244498,-2.2039356 0.498042,-1.230968 0.253543,0.972967 0.236869,2.322967 -0.03705,3 C 77.382014,13.946064 77.174569,13.15 77.194949,11.5 Z m 6.411809,0.06934 C 83.240834,10.111376 82.096952,8.9653298 80.74835,8.7055168 78.872247,8.3440789 78.967443,8.2498172 81.323324,8.1361821 84.900937,7.9636171 84.664814,4.914723 80.994749,3.8935254 78.700022,3.2550164 78.675667,3.191368 80.690983,3.09968 c 2.839266,-0.129174 3.757624,1.428185 3.92162,6.65032 0.151625,4.828204 -0.12506,5.328662 -1.005845,1.819335 z M 89.194949,11.5 c 0.02038,-1.65 0.244498,-2.2039356 0.498042,-1.230968 0.253543,0.972967 0.236869,2.322967 -0.03705,3 C 89.382014,13.946064 89.174569,13.15 89.194949,11.5 Z m 3.56671,1.792739 c 1.243913,-0.239193 3.043913,-0.230112 4,0.02018 C 97.717747,13.563212 96.7,13.758916 94.5,13.747817 92.3,13.736717 91.517747,13.531932 92.761659,13.292739 Z M 102.19495,11.5 c 0.0204,-1.65 0.2445,-2.2039356 0.49804,-1.230968 0.25354,0.972967 0.23687,2.322967 -0.037,3 C 102.38201,13.946064 102.17457,13.15 102.19495,11.5 Z m 3.56671,1.792739 c 1.24391,-0.239193 3.04391,-0.230112 4,0.02018 0.95609,0.250292 -0.0617,0.445996 -2.26166,0.434897 -2.2,-0.0111 -2.98225,-0.215885 -1.73834,-0.455078 z M 117.19495,11.5 c 0.0204,-1.65 0.2445,-2.2039356 0.49804,-1.230968 0.25354,0.972967 0.23687,2.322967 -0.037,3 C 117.38201,13.946064 117.17457,13.15 117.19495,11.5 Z m 7.90532,0.25 c 1.65423,-3.1794813 2.26153,-3.6191438 1.47903,-1.070758 -0.56137,1.828217 -0.21896,2.247044 2.12577,2.600168 2.28098,0.343523 2.09888,0.448478 -0.99025,0.570758 -3.62059,0.143317 -3.73428,0.05199 -2.61455,-2.100168 z M 68.269032,8.3070093 c 0.972967,-0.2535434 2.322967,-0.2368691 3,0.037054 C 71.946064,8.6179864 71.15,8.825431 69.5,8.8050513 67.85,8.7846716 67.296064,8.5605527 68.269032,8.3070093 Z m 24,0 c 0.972967,-0.2535434 2.322967,-0.2368691 3,0.037054 C 95.946064,8.6179864 95.15,8.825431 93.5,8.8050513 91.85,8.7846716 91.296064,8.5605527 92.269032,8.3070093 Z m 12.999998,0 c 0.97297,-0.2535434 2.32297,-0.2368691 3,0.037054 0.67703,0.2739231 -0.11903,0.4813677 -1.76903,0.460988 -1.65,-0.02038 -2.20394,-0.2444986 -1.23097,-0.498042 z M 65.157895,6 c 0,-1.375 0.226973,-1.9375 0.504386,-1.25 0.277412,0.6875 0.277412,1.8125 0,2.5 C 65.384868,7.9375 65.157895,7.375 65.157895,6 Z m 12,0 c 0,-1.375 0.226973,-1.9375 0.504386,-1.25 0.277412,0.6875 0.277412,1.8125 0,2.5 C 77.384868,7.9375 77.157895,7.375 77.157895,6 Z m 12,0 c 0,-1.375 0.226973,-1.9375 0.504386,-1.25 0.277412,0.6875 0.277412,1.8125 0,2.5 C 89.384868,7.9375 89.157895,7.375 89.157895,6 Z m 12.999995,0 c 0,-1.375 0.22698,-1.9375 0.50439,-1.25 0.27741,0.6875 0.27741,1.8125 0,2.5 -0.27741,0.6875 -0.50439,0.125 -0.50439,-1.25 z m 14.97829,0.319551 c -0.0879,-1.4077454 -0.93353,-2.3340256 -2.38618,-2.613818 -1.2375,-0.2383529 0,-0.4333689 2.75,-0.4333689 2.75,0 4.01517,0.1913898 2.81149,0.4253107 -1.26305,0.24546 -2.36836,1.3507625 -2.61382,2.6138179 L 117.27236,8.5 Z m 11.28452,0.00121 c 0.56137,-1.8282165 0.21896,-2.2470435 -2.12577,-2.6001679 -2.28098,-0.343523 -2.09888,-0.448478 0.99025,-0.5707579 3.62059,-0.1433166 3.73428,-0.051991 2.61455,2.1001679 -1.65423,3.1794813 -2.26153,3.6191438 -1.47903,1.0707579 z M 68.25,3.3106745 c 0.9625,-0.2515276 2.5375,-0.2515276 3.5,0 0.9625,0.2515275 0.175,0.4573228 -1.75,0.4573228 -1.925,0 -2.7125,-0.2057953 -1.75,-0.4573228 z m 24.511659,-0.017935 c 1.243913,-0.2391932 3.043913,-0.2301119 4,0.020181 C 97.717747,3.5632124 96.7,3.758916 94.5,3.7478166 92.3,3.7367172 91.517747,3.5319324 92.761659,3.2927395 Z m 13.000001,0 c 1.24391,-0.2391932 3.04391,-0.2301119 4,0.020181 C 110.71775,3.5632124 109.7,3.758916 107.5,3.7478166 105.3,3.7367172 104.51775,3.5319324 105.76166,3.2927395 Z"
         style="fill:#606060;fill-opacity:1" />
      <path
         d="m 87.194949,60.5 c 0.02038,-1.65 0.244498,-2.203936 0.498042,-1.230968 0.253543,0.972967 0.236869,2.322967 -0.03705,3 C 87.382014,62.946064 87.174569,62.15 87.194949,60.5 Z m 4.759214,0.414354 c -0.613912,-1.147106 -0.895832,-2.306018 -0.626489,-2.575361 0.269342,-0.269343 0.835196,0.556698 1.257452,1.835646 L 93.352864,62.5 94.076752,60 l 0.723888,-2.5 0.09968,2.75 c 0.118092,3.257951 -1.377601,3.595227 -2.946157,0.664354 z m 7,0 c -0.613912,-1.147106 -0.891204,-2.310647 -0.616204,-2.585647 0.275,-0.275 1.002292,0.438541 1.616204,1.585647 C 101.43097,62.673789 106,62.793928 106,60.073324 c 0,-1.059672 -0.7875,-2.158834 -1.75,-2.442582 -1.36412,-0.402147 -1.30899,-0.471556 0.25,-0.314774 1.37276,0.138054 2.09924,1.060905 2.31642,2.942583 C 107.10853,62.789326 106.86148,63 103.60161,63 101.04549,63 99.762138,62.424068 98.954163,60.914354 Z M 87.09968,54.75 C 87.044856,53.2375 87.434167,52 87.964816,52 c 1.132477,0 3.423867,3.944651 2.70751,4.661007 -0.269342,0.269343 -0.835196,-0.556698 -1.257452,-1.835646 L 88.647136,52.5 87.923248,55 87.19936,57.5 Z m 7.095269,-0.25 c 0.02038,-1.65 0.244498,-2.203936 0.498042,-1.230968 0.253543,0.972967 0.236869,2.322967 -0.03705,3 C 94.382014,56.946064 94.174569,56.15 94.194949,54.5 Z m 5.047678,0.25 c 1.670113,-2.527794 5.419473,-3.487897 7.091463,-1.815915 0.80455,0.804553 0.25887,0.934508 -2.01467,0.479799 -2.5887,-0.517739 -3.2315,-0.266256 -3.78614,1.48125 C 100.16585,56.05281 99.390662,57 98.81064,57 98.19919,57 98.38071,56.054554 99.242627,54.75 Z M 65.194949,11.5 c 0.02038,-1.65 0.244498,-2.2039356 0.498042,-1.230968 0.253543,0.972967 0.236869,2.322967 -0.03705,3 C 65.382014,13.946064 65.174569,13.15 65.194949,11.5 Z m 12,0 c 0.02038,-1.65 0.244498,-2.2039356 0.498042,-1.230968 0.253543,0.972967 0.236869,2.322967 -0.03705,3 C 77.382014,13.946064 77.174569,13.15 77.194949,11.5 Z m 6.411809,0.06934 C 83.240834,10.111376 82.096952,8.9653298 80.74835,8.7055168 78.872247,8.3440789 78.967443,8.2498172 81.323324,8.1361821 84.900937,7.9636171 84.664814,4.914723 80.994749,3.8935254 78.700022,3.2550164 78.675667,3.191368 80.690983,3.09968 c 2.839266,-0.129174 3.757624,1.428185 3.92162,6.65032 0.151625,4.828204 -0.12506,5.328662 -1.005845,1.819335 z M 89.194949,11.5 c 0.02038,-1.65 0.244498,-2.2039356 0.498042,-1.230968 0.253543,0.972967 0.236869,2.322967 -0.03705,3 C 89.382014,13.946064 89.174569,13.15 89.194949,11.5 Z m 3.56671,1.792739 c 1.243913,-0.239193 3.043913,-0.230112 4,0.02018 C 97.717747,13.563212 96.7,13.758916 94.5,13.747817 92.3,13.736717 91.517747,13.531932 92.761659,13.292739 Z M 102.19495,11.5 c 0.0204,-1.65 0.2445,-2.2039356 0.49804,-1.230968 0.25354,0.972967 0.23687,2.322967 -0.037,3 C 102.38201,13.946064 102.17457,13.15 102.19495,11.5 Z m 3.56671,1.792739 c 1.24391,-0.239193 3.04391,-0.230112 4,0.02018 0.95609,0.250292 -0.0617,0.445996 -2.26166,0.434897 -2.2,-0.0111 -2.98225,-0.215885 -1.73834,-0.455078 z M 117.19495,11.5 c 0.0204,-1.65 0.2445,-2.2039356 0.49804,-1.230968 0.25354,0.972967 0.23687,2.322967 -0.037,3 C 117.38201,13.946064 117.17457,13.15 117.19495,11.5 Z m 7.90532,0.25 c 1.65423,-3.1794813 2.26153,-3.6191438 1.47903,-1.070758 -0.56137,1.828217 -0.21896,2.247044 2.12577,2.600168 2.28098,0.343523 2.09888,0.448478 -0.99025,0.570758 -3.62059,0.143317 -3.73428,0.05199 -2.61455,-2.100168 z M 68.269032,8.3070093 c 0.972967,-0.2535434 2.322967,-0.2368691 3,0.037054 C 71.946064,8.6179864 71.15,8.825431 69.5,8.8050513 67.85,8.7846716 67.296064,8.5605527 68.269032,8.3070093 Z m 24,0 c 0.972967,-0.2535434 2.322967,-0.2368691 3,0.037054 C 95.946064,8.6179864 95.15,8.825431 93.5,8.8050513 91.85,8.7846716 91.296064,8.5605527 92.269032,8.3070093 Z m 12.999998,0 c 0.97297,-0.2535434 2.32297,-0.2368691 3,0.037054 0.67703,0.2739231 -0.11903,0.4813677 -1.76903,0.460988 -1.65,-0.02038 -2.20394,-0.2444986 -1.23097,-0.498042 z M 65.157895,6 c 0,-1.375 0.226973,-1.9375 0.504386,-1.25 0.277412,0.6875 0.277412,1.8125 0,2.5 C 65.384868,7.9375 65.157895,7.375 65.157895,6 Z m 12,0 c 0,-1.375 0.226973,-1.9375 0.504386,-1.25 0.277412,0.6875 0.277412,1.8125 0,2.5 C 77.384868,7.9375 77.157895,7.375 77.157895,6 Z m 12,0 c 0,-1.375 0.226973,-1.9375 0.504386,-1.25 0.277412,0.6875 0.277412,1.8125 0,2.5 C 89.384868,7.9375 89.157895,7.375 89.157895,6 Z m 12.999995,0 c 0,-1.375 0.22698,-1.9375 0.50439,-1.25 0.27741,0.6875 0.27741,1.8125 0,2.5 -0.27741,0.6875 -0.50439,0.125 -0.50439,-1.25 z m 14.97829,0.319551 c -0.0879,-1.4077454 -0.93353,-2.3340256 -2.38618,-2.613818 -1.2375,-0.2383529 0,-0.4333689 2.75,-0.4333689 2.75,0 4.01517,0.1913898 2.81149,0.4253107 -1.26305,0.24546 -2.36836,1.3507625 -2.61382,2.6138179 L 117.27236,8.5 Z m 11.28452,0.00121 c 0.56137,-1.8282165 0.21896,-2.2470435 -2.12577,-2.6001679 -2.28098,-0.343523 -2.09888,-0.448478 0.99025,-0.5707579 3.62059,-0.1433166 3.73428,-0.051991 2.61455,2.1001679 -1.65423,3.1794813 -2.26153,3.6191438 -1.47903,1.0707579 z M 68.25,3.3106745 c 0.9625,-0.2515276 2.5375,-0.2515276 3.5,0 0.9625,0.2515275 0.175,0.4573228 -1.75,0.4573228 -1.925,0 -2.7125,-0.2057953 -1.75,-0.4573228 z m 24.511659,-0.017935 c 1.243913,-0.2391932 3.043913,-0.2301119 4,0.020181 C 97.717747,3.5632124 96.7,3.758916 94.5,3.7478166 92.3,3.7367172 91.517747,3.5319324 92.761659,3.2927395 Z m 13.000001,0 c 1.24391,-0.2391932 3.04391,-0.2301119 4,0.020181 C 110.71775,3.5632124 109.7,3.758916 107.5,3.7478166 105.3,3.7367172 104.51775,3.5319324 105.76166,3.2927395 Z"
         style="fill:#494949;fill-opacity:1" />
      <path
         d="m 87.194949,60.5 c 0.02038,-1.65 0.244498,-2.203936 0.498042,-1.230968 0.253543,0.972967 0.236869,2.322967 -0.03705,3 C 87.382014,62.946064 87.174569,62.15 87.194949,60.5 Z m 4.759214,0.414354 c -0.613912,-1.147106 -0.895832,-2.306018 -0.626489,-2.575361 0.269342,-0.269343 0.835196,0.556698 1.257452,1.835646 L 93.352864,62.5 94.076752,60 l 0.723888,-2.5 0.09968,2.75 c 0.118092,3.257951 -1.377601,3.595227 -2.946157,0.664354 z m 7,0 c -0.613912,-1.147106 -0.891204,-2.310647 -0.616204,-2.585647 0.275,-0.275 1.002292,0.438541 1.616204,1.585647 C 101.43097,62.673789 106,62.793928 106,60.073324 c 0,-1.059672 -0.7875,-2.158834 -1.75,-2.442582 -1.36412,-0.402147 -1.30899,-0.471556 0.25,-0.314774 1.37276,0.138054 2.09924,1.060905 2.31642,2.942583 C 107.10853,62.789326 106.86148,63 103.60161,63 101.04549,63 99.762138,62.424068 98.954163,60.914354 Z M 87.09968,54.75 C 87.044856,53.2375 87.434167,52 87.964816,52 c 1.132477,0 3.423867,3.944651 2.70751,4.661007 -0.269342,0.269343 -0.835196,-0.556698 -1.257452,-1.835646 L 88.647136,52.5 87.923248,55 87.19936,57.5 Z m 7.095269,-0.25 c 0.02038,-1.65 0.244498,-2.203936 0.498042,-1.230968 0.253543,0.972967 0.236869,2.322967 -0.03705,3 C 94.382014,56.946064 94.174569,56.15 94.194949,54.5 Z m 5.047678,0.25 c 1.670113,-2.527794 5.419473,-3.487897 7.091463,-1.815915 0.80455,0.804553 0.25887,0.934508 -2.01467,0.479799 -2.5887,-0.517739 -3.2315,-0.266256 -3.78614,1.48125 C 100.16585,56.05281 99.390662,57 98.81064,57 98.19919,57 98.38071,56.054554 99.242627,54.75 Z M 65.194949,11.5 c 0.02038,-1.65 0.244498,-2.2039356 0.498042,-1.230968 0.253543,0.972967 0.236869,2.322967 -0.03705,3 C 65.382014,13.946064 65.174569,13.15 65.194949,11.5 Z m 12,0 c 0.02038,-1.65 0.244498,-2.2039356 0.498042,-1.230968 0.253543,0.972967 0.236869,2.322967 -0.03705,3 C 77.382014,13.946064 77.174569,13.15 77.194949,11.5 Z m 6.411809,0.06934 C 83.240834,10.111376 82.096952,8.9653298 80.74835,8.7055168 78.872247,8.3440789 78.967443,8.2498172 81.323324,8.1361821 84.900937,7.9636171 84.664814,4.914723 80.994749,3.8935254 78.700022,3.2550164 78.675667,3.191368 80.690983,3.09968 c 2.839266,-0.129174 3.757624,1.428185 3.92162,6.65032 0.151625,4.828204 -0.12506,5.328662 -1.005845,1.819335 z M 89.194949,11.5 c 0.02038,-1.65 0.244498,-2.2039356 0.498042,-1.230968 0.253543,0.972967 0.236869,2.322967 -0.03705,3 C 89.382014,13.946064 89.174569,13.15 89.194949,11.5 Z m 3.56671,1.792739 c 1.243913,-0.239193 3.043913,-0.230112 4,0.02018 C 97.717747,13.563212 96.7,13.758916 94.5,13.747817 92.3,13.736717 91.517747,13.531932 92.761659,13.292739 Z M 102.19495,11.5 c 0.0204,-1.65 0.2445,-2.2039356 0.49804,-1.230968 0.25354,0.972967 0.23687,2.322967 -0.037,3 C 102.38201,13.946064 102.17457,13.15 102.19495,11.5 Z m 3.56671,1.792739 c 1.24391,-0.239193 3.04391,-0.230112 4,0.02018 0.95609,0.250292 -0.0617,0.445996 -2.26166,0.434897 -2.2,-0.0111 -2.98225,-0.215885 -1.73834,-0.455078 z M 117.19495,11.5 c 0.0204,-1.65 0.2445,-2.2039356 0.49804,-1.230968 0.25354,0.972967 0.23687,2.322967 -0.037,3 C 117.38201,13.946064 117.17457,13.15 117.19495,11.5 Z m 7.90532,0.25 c 1.65423,-3.1794813 2.26153,-3.6191438 1.47903,-1.070758 -0.56137,1.828217 -0.21896,2.247044 2.12577,2.600168 2.28098,0.343523 2.09888,0.448478 -0.99025,0.570758 -3.62059,0.143317 -3.73428,0.05199 -2.61455,-2.100168 z M 68.269032,8.3070093 c 0.972967,-0.2535434 2.322967,-0.2368691 3,0.037054 C 71.946064,8.6179864 71.15,8.825431 69.5,8.8050513 67.85,8.7846716 67.296064,8.5605527 68.269032,8.3070093 Z m 24,0 c 0.972967,-0.2535434 2.322967,-0.2368691 3,0.037054 C 95.946064,8.6179864 95.15,8.825431 93.5,8.8050513 91.85,8.7846716 91.296064,8.5605527 92.269032,8.3070093 Z m 12.999998,0 c 0.97297,-0.2535434 2.32297,-0.2368691 3,0.037054 0.67703,0.2739231 -0.11903,0.4813677 -1.76903,0.460988 -1.65,-0.02038 -2.20394,-0.2444986 -1.23097,-0.498042 z M 65.157895,6 c 0,-1.375 0.226973,-1.9375 0.504386,-1.25 0.277412,0.6875 0.277412,1.8125 0,2.5 C 65.384868,7.9375 65.157895,7.375 65.157895,6 Z m 12,0 c 0,-1.375 0.226973,-1.9375 0.504386,-1.25 0.277412,0.6875 0.277412,1.8125 0,2.5 C 77.384868,7.9375 77.157895,7.375 77.157895,6 Z m 12,0 c 0,-1.375 0.226973,-1.9375 0.504386,-1.25 0.277412,0.6875 0.277412,1.8125 0,2.5 C 89.384868,7.9375 89.157895,7.375 89.157895,6 Z m 12.999995,0 c 0,-1.375 0.22698,-1.9375 0.50439,-1.25 0.27741,0.6875 0.27741,1.8125 0,2.5 -0.27741,0.6875 -0.50439,0.125 -0.50439,-1.25 z m 14.97829,0.319551 c -0.0879,-1.4077454 -0.93353,-2.3340256 -2.38618,-2.613818 -1.2375,-0.2383529 0,-0.4333689 2.75,-0.4333689 2.75,0 4.01517,0.1913898 2.81149,0.4253107 -1.26305,0.24546 -2.36836,1.3507625 -2.61382,2.6138179 L 117.27236,8.5 Z m 11.28452,0.00121 c 0.56137,-1.8282165 0.21896,-2.2470435 -2.12577,-2.6001679 -2.28098,-0.343523 -2.09888,-0.448478 0.99025,-0.5707579 3.62059,-0.1433166 3.73428,-0.051991 2.61455,2.1001679 -1.65423,3.1794813 -2.26153,3.6191438 -1.47903,1.0707579 z M 68.25,3.3106745 c 0.9625,-0.2515276 2.5375,-0.2515276 3.5,0 0.9625,0.2515275 0.175,0.4573228 -1.75,0.4573228 -1.925,0 -2.7125,-0.2057953 -1.75,-0.4573228 z m 24.511659,-0.017935 c 1.243913,-0.2391932 3.043913,-0.2301119 4,0.020181 C 97.717747,3.5632124 96.7,3.758916 94.5,3.7478166 92.3,3.7367172 91.517747,3.5319324 92.761659,3.2927395 Z m 13.000001,0 c 1.24391,-0.2391932 3.04391,-0.2301119 4,0.020181 C 110.71775,3.5632124 109.7,3.758916 107.5,3.7478166 105.3,3.7367172 104.51775,3.5319324 105.76166,3.2927395 Z"
         style="fill:#333333;fill-opacity:1" />
    </g>
</svg>
