<svg xmlns="http://www.w3.org/2000/svg" viewBox="0 0 177.1 139.1">
  <g>
    <path d="M19.15,23V15.09l3,3v4.14l-1.89,1.94Zm3,4.19v4.11l-3,3V26.42l1.13-1.14ZM32,14.52l-3,3H22.75l-3-3Zm-3.2,8.67,1.52,1.51-1.52,1.51H22.38L20.86,24.7l1.52-1.51Z" style="stroke: #fff;stroke-miterlimit: 10;stroke-width: 0.25px"/>
    <path d="M39.72,23V15.09l3,3v4.14l-1.89,1.94Zm3,4.19v4.69l-3,3V26.42l1.14-1.14ZM50.55,16,49,17.54h-5.7l-3-3H49Zm-1.14,7.17,1.51,1.51-1.51,1.51H43L41.44,24.7,43,23.19Zm-5.29,5.87V26.91h2.17l5.81,5.8,0,2.16H49.94ZM52.61,23l-1.13,1.17-1.89-1.92V18.12l1.51-1.51,1.51,1.51Z" style="stroke: #fff;stroke-miterlimit: 10;stroke-width: 0.25px"/>
    <path d="M60.3,23V15.09l3,3v4.14l-1.89,1.94Zm3,4.2v4.11l-3,3V26.42l1.14-1.14Zm9.86-12.66-3,3H63.91l-3-3Zm0,20.36H60.89l3-3h6.26ZM70,23.19,71.5,24.7,70,26.21H63.53L62,24.7l1.51-1.51Z" style="stroke: #fff;stroke-miterlimit: 10;stroke-width: 0.25px"/>
    <path d="M80.88,23V15.09l3,3v4.14L82,24.15Zm3,4.2v4.11l-3,3V26.42L82,25.28Zm9.86-12.66-3,3H84.49l-3-3Zm0,20.36H81.46l3-3h6.25Zm-3.2-11.69,1.51,1.51-1.51,1.51H84.11L82.6,24.7l1.51-1.51Z" style="stroke: #fff;stroke-miterlimit: 10;stroke-width: 0.25px"/>
    <path d="M115.05,16l-1.55,1.52H102.31L100.79,16l1.52-1.5H113.5Zm-5.62,7-1.13,1.17-1.89-1.93V19.88l1.51-1.52,1.51,1.52Zm0,10.5L107.92,35l-1.51-1.51V27.17l1.89-1.89,1.13,1.13Z" style="stroke: #fff;stroke-miterlimit: 10;stroke-width: 0.25px"/>
    <path d="M134.93,16l-1.51,1.52h-8.35l-3-3h11.38Zm-.35,18.86h-11L122,33.37l1.51-1.51h8Zm-6.3-7.4-2.46,3.68h-2.27v-2.1L126.32,25l1.61-.15Zm5.11-7L131,24.11l-2.7.29-.11-1.59,3.08-4.57h2.16Z" style="stroke: #fff;stroke-miterlimit: 10;stroke-width: 0.25px"/>
    <path d="M60.3,109v-8.46l3,3v4.66l-1.89,1.93Zm3,4.19v4.69l-3,3v-8.47l1.14-1.14Zm-2.21-12.65h4.43l3.93,4.15v2.2H67.31Zm9.05,7.71v-4.66l3-3V109l-1.13,1.17Zm3,4.19v8.46l-3-3v-4.69l1.89-1.89Z" style="stroke: #fff;stroke-miterlimit: 10;stroke-width: 0.25px"/>
    <path d="M83.91,107.82,82,109.71l-1.14-1.13v-4.46l1.52-1.51,1.51,1.51Zm0,9.45-1.51,1.52-1.52-1.52V112L82,110.84l1.89,1.9Zm9.86-16.75-3,3H84.49L83,102l1.51-1.5Zm-3.58,20.36,1.51-1.51-1.51-1.51h-5.7L83,119.37l1.51,1.51Zm1.89-10.6-1.51,1.5H87.14l-1.52-1.5,1.52-1.53h3.43Zm1.69,7-1.51,1.52-1.52-1.52v-4.53l1.9-1.9L93.77,112Z" style="stroke: #fff;stroke-miterlimit: 10;stroke-width: 0.25px"/>
  </g>
</svg>
