<svg xmlns="http://www.w3.org/2000/svg" viewBox="0 0 177.1 139.1">
  <g>
    <path d="M47.911,105.046a12.8,12.8,0,0,1,3.521-3.376,7.362,7.362,0,0,1,3.872-1.1,3.013,3.013,0,0,1,1.807.5,1.558,1.558,0,0,1,.688,1.327,2.065,2.065,0,0,1-.8,1.568,2.68,2.68,0,0,1-1.823.7.885.885,0,0,1-.353-.048.526.526,0,0,1-.192-.24c-.022-.063-.043-.133-.064-.208s-.043-.165-.064-.271a.1.1,0,0,0-.031-.065.576.576,0,0,0-.225-.176,1.307,1.307,0,0,0-.319-.112h-.336a.325.325,0,0,0-.145.032,2.731,2.731,0,0,0-1.311.512,4.658,4.658,0,0,0-1.153,1.185,7.748,7.748,0,0,1,4.8,2.351,6.694,6.694,0,0,1,1.792,4.72,8.232,8.232,0,0,1-1.9,5.408,5.712,5.712,0,0,1-4.527,2.3,3.938,3.938,0,0,1-2.7-.976,3.1,3.1,0,0,1-1.1-2.416v-.256a4.668,4.668,0,0,1,.513-1.887q.447-.866.96-.993H49a.406.406,0,0,1,.225.064.508.508,0,0,1,.16.192c.02.043.042.091.063.144s.043.112.065.177a.884.884,0,0,0,.319.416.815.815,0,0,0,.481.159,1.719,1.719,0,0,0,1.359-.88,3.672,3.672,0,0,0,.688-1.936v-.192a3.3,3.3,0,0,0-.832-2.256,3.934,3.934,0,0,0-2.24-1.232q-.478,1.152-.752,1.808a10.712,10.712,0,0,0-.431,1.232c-.022.064-.043.129-.065.192a1.372,1.372,0,0,1-.063.16,1.275,1.275,0,0,0-.048.176.65.65,0,0,1-.049.145q-.192.608-.4,1.391l-.463,1.744-.641,2.56-.288,1.312a16.226,16.226,0,0,1-4.336,8.272,10.517,10.517,0,0,1-7.472,2.832,7.574,7.574,0,0,1-5.12-1.792,5.606,5.606,0,0,1-2.08-4.416,6.991,6.991,0,0,1,2.528-5.328,8.543,8.543,0,0,1,5.92-2.288,2.69,2.69,0,0,1,1.3.272.812.812,0,0,1,.5.72v.16a1.108,1.108,0,0,1-.143.256c-.075.107-.22.3-.433.576-.021.043-.048.091-.08.145a.279.279,0,0,0-.048.143,1.578,1.578,0,0,0-.048.176.791.791,0,0,0-.015.143,1.363,1.363,0,0,0,.511,1.057,1.784,1.784,0,0,0,1.216.448,2.41,2.41,0,0,0,.56-.064c.182-.043.379-.1.593-.16a5.206,5.206,0,0,0,1.135-.624,4.553,4.553,0,0,0,.976-.944q.192-.257.385-.544a5.634,5.634,0,0,0,.351-.608,8.172,8.172,0,0,0,.56-1.152q.273-.672.624-1.6.321-.832.5-1.344a7.348,7.348,0,0,1,.368-.9.2.2,0,0,1,.032-.112.2.2,0,0,0,.033-.112c.148-.362.336-.773.559-1.232s.549-1.147.977-2.064c.02-.043.052-.123.1-.24a2.667,2.667,0,0,1,.192-.4c-.085.021-.159.038-.224.048s-.138.027-.223.048a6.464,6.464,0,0,0-.96.224,4.6,4.6,0,0,0-.737.32.979.979,0,0,1-.175.1.432.432,0,0,0-.145.1,3.751,3.751,0,0,0-.56.465,2.5,2.5,0,0,0-.431.559,3.014,3.014,0,0,0-.208.432,1.03,1.03,0,0,0-.08.368.65.65,0,0,0,.288.608,1.812,1.812,0,0,0,.287.176,4.28,4.28,0,0,0,.416.176.288.288,0,0,1,.192.16.635.635,0,0,1,.065.288,2.377,2.377,0,0,1-.225.736,3.937,3.937,0,0,1-.607.9,6.725,6.725,0,0,1-1.985,1.584,4.893,4.893,0,0,1-2.272.56,3.96,3.96,0,0,1-2.72-.992,3.156,3.156,0,0,1-1.12-2.464q0-3.07,3.681-5.3a16.685,16.685,0,0,1,8.8-2.225Z" style="fill: #ff9d00;stroke: #000;stroke-miterlimit: 10;stroke-width: 4px"/>
    <path d="M58.056,117.622c.042-.213.074-.4.1-.559a3.594,3.594,0,0,0,.033-.465,1.125,1.125,0,0,0-.177-.624,1.417,1.417,0,0,0-.528-.464,9.272,9.272,0,0,1,2.192-1.392,5.209,5.209,0,0,1,2.064-.464,1.989,1.989,0,0,1,1.312.4,1.455,1.455,0,0,1,.513,1.1v.336a.889.889,0,0,1-.065.336l-1.088,5.088a.621.621,0,0,1-.015.128.716.716,0,0,1-.049.128c-.022.107-.037.214-.048.32s-.016.192-.016.256a1.219,1.219,0,0,0,.256.815.868.868,0,0,0,.7.305h.193c.063-.021.132-.043.208-.064a.988.988,0,0,0,.175-.064,4.6,4.6,0,0,1,.5-.192,1.216,1.216,0,0,1,.335-.064.428.428,0,0,1,.3.144.54.54,0,0,1,.144.4,1.357,1.357,0,0,1-.192.64,3.685,3.685,0,0,1-.511.7c-.128.106-.257.219-.385.336a3.2,3.2,0,0,1-.447.336q-.354.223-.721.416t-.72.351a9.236,9.236,0,0,1-1.183.353,5.061,5.061,0,0,1-1.088.128,3.218,3.218,0,0,1-2.16-.72,2.339,2.339,0,0,1-.849-1.872,2.381,2.381,0,0,1,.016-.272,2.939,2.939,0,0,0,.016-.3.561.561,0,0,0,.048-.145.7.7,0,0,0,.017-.143Zm6.015-9.392a1.968,1.968,0,0,1,.672,1.552,2.478,2.478,0,0,1-1.088,1.952,3.941,3.941,0,0,1-2.528.864,2.289,2.289,0,0,1-1.616-.576,1.915,1.915,0,0,1-.624-1.472A2.621,2.621,0,0,1,59.9,108.5a3.54,3.54,0,0,1,2.383-.864A2.617,2.617,0,0,1,64.071,108.23Z" style="fill: #ff9d00;stroke: #000;stroke-miterlimit: 10;stroke-width: 4px"/>
    <path d="M65.575,126.006l1.823-8.319a.6.6,0,0,0,.033-.193.348.348,0,0,1,.032-.16c.02-.128.037-.256.048-.384s.016-.234.016-.32a1.43,1.43,0,0,0-.144-.72,1.225,1.225,0,0,0-.56-.431,13.358,13.358,0,0,1,1.072-.8A5.689,5.689,0,0,1,69,114.1a4.888,4.888,0,0,1,1.088-.369,5.206,5.206,0,0,1,1.056-.112,1.77,1.77,0,0,1,1.312.481,1.972,1.972,0,0,1,.512,1.376,14.782,14.782,0,0,1,1.632-1.153,6.124,6.124,0,0,1,1.343-.608,3.393,3.393,0,0,1,.657-.128q.336-.031.688-.032a3.183,3.183,0,0,1,1.84.5,2.459,2.459,0,0,1,.976,1.425,10.453,10.453,0,0,1,1.36-.96,7.36,7.36,0,0,1,1.3-.609,5.477,5.477,0,0,1,1.856-.32,3.1,3.1,0,0,1,2.1.7,2.3,2.3,0,0,1,.816,1.824,2.909,2.909,0,0,1-.016.3,2.407,2.407,0,0,0-.016.272.324.324,0,0,0-.032.144.321.321,0,0,1-.032.144l-.865,4.1a.134.134,0,0,1-.015.064.138.138,0,0,0-.016.064l-.064.384a1.856,1.856,0,0,0-.033.288.986.986,0,0,0,.273.7.873.873,0,0,0,.656.288h.144a.577.577,0,0,0,.176-.032.406.406,0,0,0,.144-.032c.053-.021.1-.042.144-.064q.257-.1.448-.16a1.039,1.039,0,0,1,.32-.064.44.44,0,0,1,.336.16.555.555,0,0,1,.144.384,1.749,1.749,0,0,1-.32.784,4.162,4.162,0,0,1-.832.88,1.6,1.6,0,0,1-.208.176c-.075.053-.155.112-.24.176a5.824,5.824,0,0,1-1.28.72,7.068,7.068,0,0,1-1.376.4l-.512.064a4.206,4.206,0,0,1-.513.032,3.266,3.266,0,0,1-2.191-.72A2.341,2.341,0,0,1,80.9,123.7a1.432,1.432,0,0,1,.016-.208,1.648,1.648,0,0,0,.016-.24.83.83,0,0,0,.047-.112A.347.347,0,0,0,81,123.03l.768-3.328a1.165,1.165,0,0,0,.08-.32c.01-.107.016-.2.016-.288a1.076,1.076,0,0,0-.224-.752.876.876,0,0,0-.672-.239,1.211,1.211,0,0,0-.992.479,4.1,4.1,0,0,0-.64,1.6l-.769,3.616-.416,2.208H73.159l1.184-6.3a1.347,1.347,0,0,0,.048-.192,1.246,1.246,0,0,0,.016-.193.653.653,0,0,0,.031-.208v-.271a.766.766,0,0,0-.8-.8,1.272,1.272,0,0,0-1.024.512,4.074,4.074,0,0,0-.673,1.632l-1.247,5.824h-5.12Z" style="fill: #ff9d00;stroke: #000;stroke-miterlimit: 10;stroke-width: 4px"/>
    <path d="M87.719,133.654l4.32-18.336c.042-.213.08-.416.111-.608a2.716,2.716,0,0,0,.048-.416,1.058,1.058,0,0,0-.063-.384,1.317,1.317,0,0,0-.193-.32c-.063-.064-.128-.122-.191-.176s-.14-.112-.225-.176a16.765,16.765,0,0,1,1.617-1.088,5.154,5.154,0,0,1,1.423-.576,3.462,3.462,0,0,1,.624-.128,6.09,6.09,0,0,1,.624-.032,2.24,2.24,0,0,1,1.409.4,1.145,1.145,0,0,1,.448,1.072c0,.107-.006.219-.017.336a2.178,2.178,0,0,1-.079.4l-.224,1.152a8.976,8.976,0,0,1,1.007-.624,4.943,4.943,0,0,1,.913-.368,3.427,3.427,0,0,1,.624-.128,6.363,6.363,0,0,1,.656-.032,3.537,3.537,0,0,1,2.767,1.2,4.506,4.506,0,0,1,1.073,3.12,9.726,9.726,0,0,1-1.84,5.9,5.285,5.285,0,0,1-4.3,2.511,4.289,4.289,0,0,1-1.584-.271,3.632,3.632,0,0,1-1.3-.912.828.828,0,0,1-.177-.16,2.537,2.537,0,0,0-.175-.192L94.15,128.6l-1.183,5.056Zm10.048-17.6q-.481.224-1.073,1.616a12.754,12.754,0,0,0-.847,3.12.231.231,0,0,1-.016.1.3.3,0,0,0-.017.128,6.405,6.405,0,0,0-.031,1.9q.127.751.512.784.511.1,1.136-1.408a14.63,14.63,0,0,0,.912-3.521,6.6,6.6,0,0,0,.048-1.855q-.114-.7-.464-.832A.535.535,0,0,1,97.767,116.054Z" style="fill: #ff9d00;stroke: #000;stroke-miterlimit: 10;stroke-width: 4px"/>
    <path d="M111.751,121.617a1.188,1.188,0,0,0,.464.98,1.818,1.818,0,0,0,1.168.369,4.241,4.241,0,0,0,.9-.112,5.518,5.518,0,0,0,1.024-.336c.128-.042.257-.09.385-.144s.255-.112.383-.176c.042-.021.075-.037.1-.049a.218.218,0,0,0,.064-.047c.042-.021.133-.069.272-.144s.5-.293,1.072-.656c.085-.042.171-.08.256-.113s.171-.057.256-.08a.3.3,0,0,1,.128-.031h.128a.749.749,0,0,1,.528.192.7.7,0,0,1,.208.543,1.938,1.938,0,0,1-.448,1.121,7.25,7.25,0,0,1-1.279,1.28,11.406,11.406,0,0,1-2.865,1.648,8.132,8.132,0,0,1-2.927.56,5.623,5.623,0,0,1-3.985-1.443,4.929,4.929,0,0,1-1.552-3.787,6.949,6.949,0,0,1,2.544-5.324,8.622,8.622,0,0,1,5.936-2.278,4.65,4.65,0,0,1,2.992.931,2.944,2.944,0,0,1,1.168,2.409,3.667,3.667,0,0,1-1.935,3.1,9.909,9.909,0,0,1-4.977,1.429Zm2.256-3.579a1.028,1.028,0,0,0,.624-.895.75.75,0,0,0-.192-.529.627.627,0,0,0-.48-.208,1.489,1.489,0,0,0-1.12.576,3.731,3.731,0,0,0-.768,1.6A5.845,5.845,0,0,0,114.007,118.038Z" style="fill: #ff9d00;stroke: #000;stroke-miterlimit: 10;stroke-width: 4px"/>
    <path d="M130.76,109.814a1.457,1.457,0,0,0,.048-.192,1.067,1.067,0,0,0,.015-.16,2.1,2.1,0,0,1,.017-.288,2.185,2.185,0,0,0,.015-.256,1.677,1.677,0,0,0-.047-.432.691.691,0,0,0-.176-.3,2.245,2.245,0,0,0-.225-.192c-.085-.064-.191-.138-.319-.224a14.184,14.184,0,0,1,1.775-1.168,5.041,5.041,0,0,1,1.456-.528,2.819,2.819,0,0,1,.481-.08c.148-.011.308-.016.479-.016a2.123,2.123,0,0,1,1.441.448,1.61,1.61,0,0,1,.511,1.28v.288a.264.264,0,0,0-.032.113.272.272,0,0,1-.031.111l-2.816,12.736a.479.479,0,0,1-.016.1.206.206,0,0,1-.049.1c-.021.128-.037.255-.048.383s-.015.236-.015.321a.966.966,0,0,0,.255.688.841.841,0,0,0,.64.272,1.07,1.07,0,0,0,.208-.016.879.879,0,0,1,.177-.017.514.514,0,0,0,.128-.015.692.692,0,0,0,.128-.048q.286-.1.5-.16a1.194,1.194,0,0,1,.3-.064.485.485,0,0,1,.351.16.523.523,0,0,1,.16.384,1.652,1.652,0,0,1-.416,1.008,5.179,5.179,0,0,1-1.248,1.071,6.017,6.017,0,0,1-.9.513q-.481.224-.929.384c-.319.085-.635.154-.943.208a5.408,5.408,0,0,1-.912.08,2.723,2.723,0,0,1-1.937-.7,2.349,2.349,0,0,1-.752-1.792v-.144a.572.572,0,0,1,.032-.176v-.384a16.546,16.546,0,0,1-1.536,1.776,6.434,6.434,0,0,1-1.407,1.071c-.3.108-.593.2-.881.273a3.515,3.515,0,0,1-.88.112,2.8,2.8,0,0,1-2.336-1.12,4.857,4.857,0,0,1-.863-3.04,8.93,8.93,0,0,1,2.159-5.9,6.292,6.292,0,0,1,4.88-2.575,5.591,5.591,0,0,1,1.313.127,2.867,2.867,0,0,1,.992.48.409.409,0,0,1,.111.08.414.414,0,0,0,.112.08ZM128.2,115.8a2.63,2.63,0,0,0-.847,1.28,10.637,10.637,0,0,0-.689,2.464.124.124,0,0,1-.016.08.224.224,0,0,0-.015.111,4.74,4.74,0,0,0-.017,1.5c.075.406.208.608.4.608q.415.1.912-1.1a11.547,11.547,0,0,0,.719-2.8,4.908,4.908,0,0,0,.033-1.456c-.065-.373-.182-.591-.353-.656A.288.288,0,0,1,128.2,115.8Z" style="fill: #ff9d00;stroke: #000;stroke-miterlimit: 10;stroke-width: 4px"/>
  </g>
  <g>
    <path d="M47.911,105.046a12.8,12.8,0,0,1,3.521-3.376,7.362,7.362,0,0,1,3.872-1.1,3.013,3.013,0,0,1,1.807.5,1.558,1.558,0,0,1,.688,1.327,2.065,2.065,0,0,1-.8,1.568,2.68,2.68,0,0,1-1.823.7.885.885,0,0,1-.353-.048.526.526,0,0,1-.192-.24c-.022-.063-.043-.133-.064-.208s-.043-.165-.064-.271a.1.1,0,0,0-.031-.065.576.576,0,0,0-.225-.176,1.307,1.307,0,0,0-.319-.112h-.336a.325.325,0,0,0-.145.032,2.731,2.731,0,0,0-1.311.512,4.658,4.658,0,0,0-1.153,1.185,7.748,7.748,0,0,1,4.8,2.351,6.694,6.694,0,0,1,1.792,4.72,8.232,8.232,0,0,1-1.9,5.408,5.712,5.712,0,0,1-4.527,2.3,3.938,3.938,0,0,1-2.7-.976,3.1,3.1,0,0,1-1.1-2.416v-.256a4.668,4.668,0,0,1,.513-1.887q.447-.866.96-.993H49a.406.406,0,0,1,.225.064.508.508,0,0,1,.16.192c.02.043.042.091.063.144s.043.112.065.177a.884.884,0,0,0,.319.416.815.815,0,0,0,.481.159,1.719,1.719,0,0,0,1.359-.88,3.672,3.672,0,0,0,.688-1.936v-.192a3.3,3.3,0,0,0-.832-2.256,3.934,3.934,0,0,0-2.24-1.232q-.478,1.152-.752,1.808a10.712,10.712,0,0,0-.431,1.232c-.022.064-.043.129-.065.192a1.372,1.372,0,0,1-.063.16,1.275,1.275,0,0,0-.048.176.65.65,0,0,1-.049.145q-.192.608-.4,1.391l-.463,1.744-.641,2.56-.288,1.312a16.226,16.226,0,0,1-4.336,8.272,10.517,10.517,0,0,1-7.472,2.832,7.574,7.574,0,0,1-5.12-1.792,5.606,5.606,0,0,1-2.08-4.416,6.991,6.991,0,0,1,2.528-5.328,8.543,8.543,0,0,1,5.92-2.288,2.69,2.69,0,0,1,1.3.272.812.812,0,0,1,.5.72v.16a1.108,1.108,0,0,1-.143.256c-.075.107-.22.3-.433.576-.021.043-.048.091-.08.145a.279.279,0,0,0-.048.143,1.578,1.578,0,0,0-.048.176.791.791,0,0,0-.015.143,1.363,1.363,0,0,0,.511,1.057,1.784,1.784,0,0,0,1.216.448,2.41,2.41,0,0,0,.56-.064c.182-.043.379-.1.593-.16a5.206,5.206,0,0,0,1.135-.624,4.553,4.553,0,0,0,.976-.944q.192-.257.385-.544a5.634,5.634,0,0,0,.351-.608,8.172,8.172,0,0,0,.56-1.152q.273-.672.624-1.6.321-.832.5-1.344a7.348,7.348,0,0,1,.368-.9.2.2,0,0,1,.032-.112.2.2,0,0,0,.033-.112c.148-.362.336-.773.559-1.232s.549-1.147.977-2.064c.02-.043.052-.123.1-.24a2.667,2.667,0,0,1,.192-.4c-.085.021-.159.038-.224.048s-.138.027-.223.048a6.464,6.464,0,0,0-.96.224,4.6,4.6,0,0,0-.737.32.979.979,0,0,1-.175.1.432.432,0,0,0-.145.1,3.751,3.751,0,0,0-.56.465,2.5,2.5,0,0,0-.431.559,3.014,3.014,0,0,0-.208.432,1.03,1.03,0,0,0-.08.368.65.65,0,0,0,.288.608,1.812,1.812,0,0,0,.287.176,4.28,4.28,0,0,0,.416.176.288.288,0,0,1,.192.16.635.635,0,0,1,.065.288,2.377,2.377,0,0,1-.225.736,3.937,3.937,0,0,1-.607.9,6.725,6.725,0,0,1-1.985,1.584,4.893,4.893,0,0,1-2.272.56,3.96,3.96,0,0,1-2.72-.992,3.156,3.156,0,0,1-1.12-2.464q0-3.07,3.681-5.3a16.685,16.685,0,0,1,8.8-2.225Z" style="fill: #ff9d00"/>
    <path d="M58.056,117.622c.042-.213.074-.4.1-.559a3.594,3.594,0,0,0,.033-.465,1.125,1.125,0,0,0-.177-.624,1.417,1.417,0,0,0-.528-.464,9.272,9.272,0,0,1,2.192-1.392,5.209,5.209,0,0,1,2.064-.464,1.989,1.989,0,0,1,1.312.4,1.455,1.455,0,0,1,.513,1.1v.336a.889.889,0,0,1-.065.336l-1.088,5.088a.621.621,0,0,1-.015.128.716.716,0,0,1-.049.128c-.022.107-.037.214-.048.32s-.016.192-.016.256a1.219,1.219,0,0,0,.256.815.868.868,0,0,0,.7.305h.193c.063-.021.132-.043.208-.064a.988.988,0,0,0,.175-.064,4.6,4.6,0,0,1,.5-.192,1.216,1.216,0,0,1,.335-.064.428.428,0,0,1,.3.144.54.54,0,0,1,.144.4,1.357,1.357,0,0,1-.192.64,3.685,3.685,0,0,1-.511.7c-.128.106-.257.219-.385.336a3.2,3.2,0,0,1-.447.336q-.354.223-.721.416t-.72.351a9.236,9.236,0,0,1-1.183.353,5.061,5.061,0,0,1-1.088.128,3.218,3.218,0,0,1-2.16-.72,2.339,2.339,0,0,1-.849-1.872,2.381,2.381,0,0,1,.016-.272,2.939,2.939,0,0,0,.016-.3.561.561,0,0,0,.048-.145.7.7,0,0,0,.017-.143Zm6.015-9.392a1.968,1.968,0,0,1,.672,1.552,2.478,2.478,0,0,1-1.088,1.952,3.941,3.941,0,0,1-2.528.864,2.289,2.289,0,0,1-1.616-.576,1.915,1.915,0,0,1-.624-1.472A2.621,2.621,0,0,1,59.9,108.5a3.54,3.54,0,0,1,2.383-.864A2.617,2.617,0,0,1,64.071,108.23Z" style="fill: #ff9d00"/>
    <path d="M65.575,126.006l1.823-8.319a.6.6,0,0,0,.033-.193.348.348,0,0,1,.032-.16c.02-.128.037-.256.048-.384s.016-.234.016-.32a1.43,1.43,0,0,0-.144-.72,1.225,1.225,0,0,0-.56-.431,13.358,13.358,0,0,1,1.072-.8A5.689,5.689,0,0,1,69,114.1a4.888,4.888,0,0,1,1.088-.369,5.206,5.206,0,0,1,1.056-.112,1.77,1.77,0,0,1,1.312.481,1.972,1.972,0,0,1,.512,1.376,14.782,14.782,0,0,1,1.632-1.153,6.124,6.124,0,0,1,1.343-.608,3.393,3.393,0,0,1,.657-.128q.336-.031.688-.032a3.183,3.183,0,0,1,1.84.5,2.459,2.459,0,0,1,.976,1.425,10.453,10.453,0,0,1,1.36-.96,7.36,7.36,0,0,1,1.3-.609,5.477,5.477,0,0,1,1.856-.32,3.1,3.1,0,0,1,2.1.7,2.3,2.3,0,0,1,.816,1.824,2.909,2.909,0,0,1-.016.3,2.407,2.407,0,0,0-.016.272.324.324,0,0,0-.032.144.321.321,0,0,1-.032.144l-.865,4.1a.134.134,0,0,1-.015.064.138.138,0,0,0-.016.064l-.064.384a1.856,1.856,0,0,0-.033.288.986.986,0,0,0,.273.7.873.873,0,0,0,.656.288h.144a.577.577,0,0,0,.176-.032.406.406,0,0,0,.144-.032c.053-.021.1-.042.144-.064q.257-.1.448-.16a1.039,1.039,0,0,1,.32-.064.44.44,0,0,1,.336.16.555.555,0,0,1,.144.384,1.749,1.749,0,0,1-.32.784,4.162,4.162,0,0,1-.832.88,1.6,1.6,0,0,1-.208.176c-.075.053-.155.112-.24.176a5.824,5.824,0,0,1-1.28.72,7.068,7.068,0,0,1-1.376.4l-.512.064a4.206,4.206,0,0,1-.513.032,3.266,3.266,0,0,1-2.191-.72A2.341,2.341,0,0,1,80.9,123.7a1.432,1.432,0,0,1,.016-.208,1.648,1.648,0,0,0,.016-.24.83.83,0,0,0,.047-.112A.347.347,0,0,0,81,123.03l.768-3.328a1.165,1.165,0,0,0,.08-.32c.01-.107.016-.2.016-.288a1.076,1.076,0,0,0-.224-.752.876.876,0,0,0-.672-.239,1.211,1.211,0,0,0-.992.479,4.1,4.1,0,0,0-.64,1.6l-.769,3.616-.416,2.208H73.159l1.184-6.3a1.347,1.347,0,0,0,.048-.192,1.246,1.246,0,0,0,.016-.193.653.653,0,0,0,.031-.208v-.271a.766.766,0,0,0-.8-.8,1.272,1.272,0,0,0-1.024.512,4.074,4.074,0,0,0-.673,1.632l-1.247,5.824h-5.12Z" style="fill: #ff9d00"/>
    <path d="M87.719,133.654l4.32-18.336c.042-.213.08-.416.111-.608a2.716,2.716,0,0,0,.048-.416,1.058,1.058,0,0,0-.063-.384,1.317,1.317,0,0,0-.193-.32c-.063-.064-.128-.122-.191-.176s-.14-.112-.225-.176a16.765,16.765,0,0,1,1.617-1.088,5.154,5.154,0,0,1,1.423-.576,3.462,3.462,0,0,1,.624-.128,6.09,6.09,0,0,1,.624-.032,2.24,2.24,0,0,1,1.409.4,1.145,1.145,0,0,1,.448,1.072c0,.107-.006.219-.017.336a2.178,2.178,0,0,1-.079.4l-.224,1.152a8.976,8.976,0,0,1,1.007-.624,4.943,4.943,0,0,1,.913-.368,3.427,3.427,0,0,1,.624-.128,6.363,6.363,0,0,1,.656-.032,3.537,3.537,0,0,1,2.767,1.2,4.506,4.506,0,0,1,1.073,3.12,9.726,9.726,0,0,1-1.84,5.9,5.285,5.285,0,0,1-4.3,2.511,4.289,4.289,0,0,1-1.584-.271,3.632,3.632,0,0,1-1.3-.912.828.828,0,0,1-.177-.16,2.537,2.537,0,0,0-.175-.192L94.15,128.6l-1.183,5.056Zm10.048-17.6q-.481.224-1.073,1.616a12.754,12.754,0,0,0-.847,3.12.231.231,0,0,1-.016.1.3.3,0,0,0-.017.128,6.405,6.405,0,0,0-.031,1.9q.127.751.512.784.511.1,1.136-1.408a14.63,14.63,0,0,0,.912-3.521,6.6,6.6,0,0,0,.048-1.855q-.114-.7-.464-.832A.535.535,0,0,1,97.767,116.054Z" style="fill: #ff9d00"/>
    <path d="M111.751,121.617a1.188,1.188,0,0,0,.464.98,1.818,1.818,0,0,0,1.168.369,4.241,4.241,0,0,0,.9-.112,5.518,5.518,0,0,0,1.024-.336c.128-.042.257-.09.385-.144s.255-.112.383-.176c.042-.021.075-.037.1-.049a.218.218,0,0,0,.064-.047c.042-.021.133-.069.272-.144s.5-.293,1.072-.656c.085-.042.171-.08.256-.113s.171-.057.256-.08a.3.3,0,0,1,.128-.031h.128a.749.749,0,0,1,.528.192.7.7,0,0,1,.208.543,1.938,1.938,0,0,1-.448,1.121,7.25,7.25,0,0,1-1.279,1.28,11.406,11.406,0,0,1-2.865,1.648,8.132,8.132,0,0,1-2.927.56,5.623,5.623,0,0,1-3.985-1.443,4.929,4.929,0,0,1-1.552-3.787,6.949,6.949,0,0,1,2.544-5.324,8.622,8.622,0,0,1,5.936-2.278,4.65,4.65,0,0,1,2.992.931,2.944,2.944,0,0,1,1.168,2.409,3.667,3.667,0,0,1-1.935,3.1,9.909,9.909,0,0,1-4.977,1.429Zm2.256-3.579a1.028,1.028,0,0,0,.624-.895.75.75,0,0,0-.192-.529.627.627,0,0,0-.48-.208,1.489,1.489,0,0,0-1.12.576,3.731,3.731,0,0,0-.768,1.6A5.845,5.845,0,0,0,114.007,118.038Z" style="fill: #ff9d00"/>
    <path d="M130.76,109.814a1.457,1.457,0,0,0,.048-.192,1.067,1.067,0,0,0,.015-.16,2.1,2.1,0,0,1,.017-.288,2.185,2.185,0,0,0,.015-.256,1.677,1.677,0,0,0-.047-.432.691.691,0,0,0-.176-.3,2.245,2.245,0,0,0-.225-.192c-.085-.064-.191-.138-.319-.224a14.184,14.184,0,0,1,1.775-1.168,5.041,5.041,0,0,1,1.456-.528,2.819,2.819,0,0,1,.481-.08c.148-.011.308-.016.479-.016a2.123,2.123,0,0,1,1.441.448,1.61,1.61,0,0,1,.511,1.28v.288a.264.264,0,0,0-.032.113.272.272,0,0,1-.031.111l-2.816,12.736a.479.479,0,0,1-.016.1.206.206,0,0,1-.049.1c-.021.128-.037.255-.048.383s-.015.236-.015.321a.966.966,0,0,0,.255.688.841.841,0,0,0,.64.272,1.07,1.07,0,0,0,.208-.016.879.879,0,0,1,.177-.017.514.514,0,0,0,.128-.015.692.692,0,0,0,.128-.048q.286-.1.5-.16a1.194,1.194,0,0,1,.3-.064.485.485,0,0,1,.351.16.523.523,0,0,1,.16.384,1.652,1.652,0,0,1-.416,1.008,5.179,5.179,0,0,1-1.248,1.071,6.017,6.017,0,0,1-.9.513q-.481.224-.929.384c-.319.085-.635.154-.943.208a5.408,5.408,0,0,1-.912.08,2.723,2.723,0,0,1-1.937-.7,2.349,2.349,0,0,1-.752-1.792v-.144a.572.572,0,0,1,.032-.176v-.384a16.546,16.546,0,0,1-1.536,1.776,6.434,6.434,0,0,1-1.407,1.071c-.3.108-.593.2-.881.273a3.515,3.515,0,0,1-.88.112,2.8,2.8,0,0,1-2.336-1.12,4.857,4.857,0,0,1-.863-3.04,8.93,8.93,0,0,1,2.159-5.9,6.292,6.292,0,0,1,4.88-2.575,5.591,5.591,0,0,1,1.313.127,2.867,2.867,0,0,1,.992.48.409.409,0,0,1,.111.08.414.414,0,0,0,.112.08ZM128.2,115.8a2.63,2.63,0,0,0-.847,1.28,10.637,10.637,0,0,0-.689,2.464.124.124,0,0,1-.016.08.224.224,0,0,0-.015.111,4.74,4.74,0,0,0-.017,1.5c.075.406.208.608.4.608q.415.1.912-1.1a11.547,11.547,0,0,0,.719-2.8,4.908,4.908,0,0,0,.033-1.456c-.065-.373-.182-.591-.353-.656A.288.288,0,0,1,128.2,115.8Z" style="fill: #ff9d00"/>
  </g>
</svg>
