<?xml version="1.0" encoding="UTF-8" standalone="no"?>
<svg
   xmlns:dc="http://purl.org/dc/elements/1.1/"
   xmlns:cc="http://creativecommons.org/ns#"
   xmlns:rdf="http://www.w3.org/1999/02/22-rdf-syntax-ns#"
   xmlns:svg="http://www.w3.org/2000/svg"
   xmlns="http://www.w3.org/2000/svg"
   xmlns:xlink="http://www.w3.org/1999/xlink"
   xmlns:sodipodi="http://sodipodi.sourceforge.net/DTD/sodipodi-0.dtd"
   xmlns:inkscape="http://www.inkscape.org/namespaces/inkscape"
   inkscape:export-ydpi="55.650002"
   inkscape:export-xdpi="55.650002"
   inkscape:export-filename="T:\vtools\fritz\freetz_bauen\Dateien für die VM\mein-test\prisrak\favicon-vektografik\freetz-mod\freetz-mod-1.png"
   viewBox="0 0 177.1 139.1"
   version="1.1"
   id="svg30"
   sodipodi:docname="freetz-mod.svg"
   inkscape:version="1.0 (4035a4fb49, 2020-05-01)">
  <metadata
     id="metadata36">
    <rdf:RDF>
      <cc:Work
         rdf:about="">
        <dc:format>image/svg+xml</dc:format>
        <dc:type
           rdf:resource="http://purl.org/dc/dcmitype/StillImage" />
        <dc:title></dc:title>
      </cc:Work>
    </rdf:RDF>
  </metadata>
  <defs
     id="defs34">
    <linearGradient
       gradientTransform="matrix(2.4059395,0,0,2.8597668,-100.6217,-289.64425)"
       inkscape:collect="always"
       xlink:href="#linearGradient7957"
       id="linearGradient7959"
       x1="42.53957"
       y1="125.36596"
       x2="114.21795"
       y2="125.36596"
       gradientUnits="userSpaceOnUse" />
    <linearGradient
       inkscape:collect="always"
       id="linearGradient7957">
      <stop
         style="stop-color:#ae00ff;stop-opacity:1;"
         offset="0"
         id="stop7953" />
      <stop
         style="stop-color:#ae00ff;stop-opacity:0;"
         offset="1"
         id="stop7955" />
    </linearGradient>
  </defs>
  <sodipodi:namedview
     showguides="false"
     inkscape:document-rotation="0"
     pagecolor="#ffffff"
     bordercolor="#666666"
     borderopacity="1"
     objecttolerance="10"
     gridtolerance="10"
     guidetolerance="10"
     inkscape:pageopacity="0"
     inkscape:pageshadow="2"
     inkscape:window-width="1366"
     inkscape:window-height="745"
     id="namedview32"
     showgrid="true"
     inkscape:snap-page="true"
     inkscape:zoom="2.5098587"
     inkscape:cx="72.620567"
     inkscape:cy="99.734457"
     inkscape:window-x="-8"
     inkscape:window-y="-8"
     inkscape:window-maximized="1"
     inkscape:current-layer="layer3"
     inkscape:lockguides="false">
    <inkscape:grid
       type="xygrid"
       id="grid191" />
  </sodipodi:namedview>
  <g
     sodipodi:insensitive="true"
     inkscape:groupmode="layer"
     id="layer3"
     inkscape:label="Layer 3"
     style="display:none">
    <text
       id="text7855-7"
       y="105.53741"
       x="80.900284"
       style="font-style:normal;font-weight:normal;font-size:27.7574px;line-height:1.25;font-family:sans-serif;display:inline;fill:#ffffff;fill-opacity:1;stroke:none;stroke-width:0.69393"
       xml:space="preserve"
       transform="scale(1.1235158,0.89006313)"><tspan
         style="fill:#ffffff;stroke-width:0.69393"
         y="105.53741"
         x="80.900284"
         id="tspan7853-1"
         sodipodi:role="line">B</tspan></text>
    <text
       xml:space="preserve"
       style="font-size:42.5045px;line-height:1.25;font-family:'Times New Roman';-inkscape-font-specification:'Times New Roman, ';stroke-width:3.18784"
       x="47.509876"
       y="102.76318"
       id="text240"
       transform="scale(1.2909044,0.77465071)"><tspan
         sodipodi:role="line"
         id="tspan238"
         x="47.509876"
         y="102.76318"
         style="stroke-width:3.18784">F</tspan></text>
    <text
       xml:space="preserve"
       style="font-size:42.5045px;line-height:1.25;font-family:'Times New Roman';-inkscape-font-specification:'Times New Roman, ';stroke-width:3.18784"
       x="56.193485"
       y="121.27402"
       id="text244"
       transform="scale(1.2909044,0.77465072)"><tspan
         sodipodi:role="line"
         id="tspan242"
         x="56.193485"
         y="121.27402"
         rotate="0 0"
         style="stroke-width:3.18784">B</tspan></text>
  </g>
  <g
     sodipodi:insensitive="true"
     inkscape:groupmode="layer"
     id="layer2"
     inkscape:label="Layer 2"
     style="display:none">
    <rect
       rx="22.39279"
       ry="22.392794"
       y="4.0587749"
       x="1.9562149"
       height="129.62883"
       width="171.9933"
       id="rect3314"
       style="display:inline;fill:url(#linearGradient7959);fill-opacity:1;fill-rule:evenodd;stroke:#e61d60;stroke-width:0.502133;stroke-linecap:round;stroke-linejoin:round;stroke-miterlimit:4;stroke-dasharray:none;stroke-opacity:0.894928;paint-order:markers fill stroke" />
  </g>
  <g
     sodipodi:insensitive="true"
     inkscape:groupmode="layer"
     id="layer1"
     inkscape:label="Layer 1"
     style="display:inline">
    <path
       d="m 56.659562,16.089915 c 0.01648,0.129097 0.04146,0.222449 -0.0023,0.355135 -0.195455,0.596154 -1.455106,1.680961 -1.913779,2.118574 -2.606296,2.403485 -5.571783,4.569903 -8.807911,6.496886 -0.790397,0.470642 -1.610061,0.913129 -2.415095,1.369708 -0.756985,0.382792 -1.494873,0.787565 -2.270944,1.148347 -0.344388,0.160102 1.377669,-0.518319 0.97374,-0.54531 -0.673389,-0.04498 -1.269972,0.351258 -1.923095,0.481871 -0.554384,0.110867 -1.117318,0.243743 -1.691157,0.240824 -1.308739,-0.0063 -1.915444,-0.389107 -2.999482,-0.837246 -0.376823,-0.282548 -0.794457,-0.537607 -1.130468,-0.847596 -0.936109,-0.863607 -1.540054,-1.923877 -1.771139,-3.016655 -0.19057,-0.901274 -0.104344,-1.131704 -0.02726,-2.033862 0.174664,-0.356859 0.296846,-0.730626 0.523995,-1.070578 0.250894,-0.375614 0.568433,-0.726027 0.901892,-1.06382 0.956586,-0.969037 1.464946,-1.296176 2.859563,-1.979721 0.658202,-0.322598 1.293278,-0.711337 2.047809,-0.87866 0.372734,-0.08264 -0.556032,0.406333 -0.83407,0.609518 4.110547,-1.173538 8.477991,-1.608349 12.837775,-1.853911 2.441549,-0.059 4.93854,-0.273074 7.357616,0.09746 0.359442,0.05502 0.708846,0.141968 1.063265,0.212976 1.206827,0.321593 2.38632,0.733241 3.36669,1.361078 0.492186,0.31518 1.139646,0.838958 1.574696,1.177872 1.129859,0.989258 2.192926,2.026317 3.48316,2.906483 0.324053,0.221063 0.647454,0.446909 1.013745,0.627386 0.447199,0.220344 0.943323,0.379442 1.414988,0.569177 0.543762,0.161348 1.072387,0.354944 1.631367,0.484093 0.693747,0.160295 1.406348,0.272644 2.117579,0.382026 2.353878,0.36193 4.631191,0.463178 7.030927,0.412554 0.70405,-0.01484 1.40566,-0.06872 2.108484,-0.103067 0.611039,-0.07584 1.230142,-0.121489 1.833116,-0.227425 4.221477,-0.741549 8.380074,-2.866899 11.979172,-4.505295 1.462089,-0.969274 0.821502,-0.449779 1.944837,-1.542468 0,0 -3.882061,1.242485 -3.882061,1.242485 v 0 c -1.074176,0.991349 -0.47072,0.518778 -1.82806,1.404921 0.671522,-0.254605 1.268408,-0.688497 2.014581,-0.763832 0.649011,-0.06551 -1.12334,0.504639 -1.703096,0.732386 -2.2842,0.897282 -4.712293,1.630844 -7.26576,1.950093 -0.720172,0.05316 -1.437885,0.13034 -2.16051,0.159336 -3.547392,0.1424 -7.133409,-0.170628 -10.376996,-1.301108 -1.070364,-0.476192 -1.389499,-0.56311 -2.292522,-1.161504 -1.298498,-0.860429 -2.300895,-1.933193 -3.420679,-2.914627 -0.693048,-0.618442 -1.38758,-1.280687 -2.284558,-1.747304 -0.834161,-0.433942 -1.838122,-0.671498 -2.764067,-0.962189 -0.379721,-0.07229 -0.754441,-0.161396 -1.139187,-0.216948 -0.627324,-0.09057 -2.07721,-0.207329 -2.694151,-0.215799 -0.488267,-0.0063 -0.976085,0.02679 -1.463972,0.04306 -1.591391,0.05287 -1.848436,0.06934 -3.481463,0.142734 -4.457297,0.29451 -8.91601,0.739476 -13.137223,1.911173 -2.613588,0.988396 -7.107751,2.41484 -9.470304,4.095902 -0.676474,0.481346 -1.681626,1.57334 -2.084786,2.207572 -0.239989,0.377529 -0.370973,0.788613 -0.556487,1.182907 -0.04999,0.939826 -0.134904,1.176132 0.105311,2.108153 0.293324,1.138034 0.986702,2.220669 1.963459,3.121899 0.359327,0.331546 0.794382,0.612859 1.191574,0.919298 1.044544,0.449828 1.932116,0.959151 3.21279,0.985458 0.622161,0.01291 1.23025,-0.151728 1.831123,-0.273073 3.501092,-0.706968 6.585168,-2.233843 9.487286,-3.816135 0.784461,-0.454134 1.579871,-0.897904 2.35338,-1.362427 3.395583,-2.039154 6.600774,-4.268475 9.429788,-6.74769 0.353478,-0.311019 0.713559,-0.617917 1.060414,-0.933093 0.659717,-0.599451 1.296278,-1.145346 1.306984,-1.948533 0,0 -4.228267,1.610762 -4.228267,1.610762 z"
       id="path7833"
       style="display:inline;fill:#800000;fill-opacity:0.909091;fill-rule:evenodd;stroke:#e61d60;stroke-width:8.20998;stroke-linecap:round;stroke-linejoin:round;stroke-miterlimit:4;stroke-dasharray:none;stroke-opacity:0.0111421;paint-order:fill markers stroke" />
    <path
       d="m 57.134838,21.034653 c -1.500643,1.242953 -3.519148,2.349153 -5.537966,3.439296 -2.194115,1.153804 -4.599848,2.287653 -5.872161,3.70279 -0.200623,0.223119 -0.333709,0.456574 -0.500536,0.684899 -0.454869,0.985196 -0.619661,2.004771 -0.316557,3.004896 0.164896,0.544094 0.477248,0.987849 0.799053,1.518036 0.88338,1.536022 2.637684,2.928042 4.251653,4.334094 1.147207,1.088687 2.459452,2.23611 2.628072,3.455794 0.03409,0.247666 -0.03634,0.495969 -0.05453,0.743955 -0.403292,1.083391 -1.153967,1.672196 -3.149536,2.350411 -0.41272,0.140198 -1.748253,0.502089 -1.297731,0.385662 1.46194,-0.377719 2.889236,-0.780056 4.333856,-1.170102 -3.977391,0.65175 -8.177786,0.971421 -12.387917,1.171472 -1.41067,0.07206 -2.671929,0.0019 -4.026394,-0.148811 0,0 -5.97721,1.785564 -5.97721,1.785564 v 0 c 1.517065,0.16508 2.849344,0.248958 4.431199,0.161539 4.225103,-0.227761 8.435262,-0.541622 12.50791,-1.092693 2.94973,-0.703805 9.120865,-1.694355 11.000053,-3.382087 0.539162,-0.484251 0.606937,-0.907934 0.806988,-1.431678 0.0085,-0.265754 0.06635,-0.532071 0.02614,-0.797313 -0.191081,-1.263394 -1.58779,-2.398815 -2.765152,-3.528907 -1.561464,-1.394131 -3.375272,-2.749089 -4.190678,-4.274455 -0.772042,-1.451236 -1.220826,-2.931556 -0.223173,-4.388944 0.461513,-0.587039 0.51843,-0.733219 1.192853,-1.288811 1.311136,-1.080152 3.188091,-2.003397 4.971246,-2.93778 2.226797,-1.159549 4.300036,-2.366102 6.310804,-3.597012 0,0 -6.960406,1.300161 -6.960406,1.300161 z"
       id="path7835"
       style="display:inline;fill:#800000;fill-opacity:0.909091;fill-rule:evenodd;stroke:#e61d60;stroke-width:10.1474;stroke-linecap:round;stroke-linejoin:round;stroke-miterlimit:4;stroke-dasharray:none;stroke-opacity:0.0111421;paint-order:fill markers stroke" />
    <path
       d="m 41.147875,32.68318 c 0.139845,-0.04804 0.282304,-0.09196 0.419536,-0.143929 0.518884,-0.19666 1.300923,-0.534252 1.801053,-0.70792 1.309942,-0.4549 2.677086,-0.792365 4.04783,-1.125637 1.71819,-0.370829 3.489392,-0.716041 5.294095,-0.675024 0.30031,0.0063 0.598594,0.03924 0.897893,0.05875 1.747369,0.220248 2.412039,0.924087 3.429493,1.917698 0.83564,0.867622 1.533369,1.802254 2.36937,2.669292 0.725574,0.659334 1.48658,0.61297 2.481985,0.363891 0.492072,-0.154408 0.257028,-0.07469 0.706307,-0.23757 0,0 3.602919,-2.177835 3.602919,-2.177835 v 0 c -0.431806,0.210346 -0.201759,0.11302 -0.692997,0.288195 -0.511101,0.182401 -1.289779,0.484145 -1.852622,0.230154 -0.124169,-0.05598 -0.2188,-0.142446 -0.328201,-0.213598 -0.928297,-0.811863 -1.65628,-1.738543 -2.489907,-2.603729 -1.087497,-1.148858 -1.682245,-1.872099 -3.656319,-2.137973 -0.318545,-0.02344 -0.635886,-0.06043 -0.955712,-0.07086 -1.881438,-0.06153 -3.717138,0.253264 -5.501008,0.671233 -1.330186,0.32547 -2.689151,0.634641 -3.986138,1.029858 -0.818638,0.249486 -0.847589,0.315276 -1.550425,0.576829 -0.10417,0.03876 -0.213801,0.06871 -0.320703,0.103216 0,0 -3.71644,2.184997 -3.71644,2.184997 z"
       id="path7837"
       style="display:inline;fill:#800000;fill-opacity:0.909091;fill-rule:evenodd;stroke:#e61d60;stroke-width:8.20998;stroke-linecap:round;stroke-linejoin:round;stroke-miterlimit:4;stroke-dasharray:none;stroke-opacity:0.0111421;paint-order:fill markers stroke" />
    <path
       d="m 62.828408,38.318704 c 0.540298,0.0846 0.989236,0.340109 1.389484,0.608064 0.513658,0.398008 0.824051,0.765607 0.835211,1.391304 -0.174153,1.062294 -0.450948,2.134024 -0.869315,3.182112 -0.394432,0.738657 -1.048605,1.382193 -1.527317,2.090563 -0.212213,0.31408 -0.494574,0.831059 -0.677202,1.155466 -0.394602,0.68612 -0.47509,1.447085 -1.075706,2.068026 0,0 2.494198,-2.144355 2.494198,-2.144355 v 0 C 63.824,46.028766 63.93039,45.3264 64.321055,44.674651 c 0.283383,-0.486853 0.369097,-0.659446 0.708,-1.136246 0.503773,-0.708766 1.137193,-1.376068 1.471135,-2.140948 0.391193,-1.092429 0.71335,-2.207692 0.851413,-3.30941 -0.107917,-0.639041 -0.439646,-1.091227 -1.00776,-1.499359 -0.426184,-0.29432 -0.900432,-0.554513 -1.441172,-0.716175 0,0 -2.074279,2.446205 -2.074279,2.446205 z"
       id="path7885"
       style="display:inline;fill:#800000;fill-opacity:0.909091;fill-rule:evenodd;stroke:#e61d60;stroke-width:8.20998;stroke-linecap:round;stroke-linejoin:round;stroke-miterlimit:4;stroke-dasharray:none;stroke-opacity:0.0111421;paint-order:fill markers stroke" />
    <path
       d="m 75.316849,37.125442 c -1.053286,-0.0711 -2.126606,-0.04886 -3.19341,-0.03158 -3.708105,0.06196 -3.457707,0.632812 -7.881225,2.382796 -0.196251,0.248048 -0.409085,0.464277 -0.810827,0.62972 -0.12218,0.05033 -0.511102,0.182113 -0.385911,0.134216 4.80534,-1.833575 6.568163,-2.341578 4.448567,-1.718389 -0.630867,0.144504 -1.300662,0.210248 -1.953943,0.307525 0,0 -4.834087,2.304611 -4.834087,2.304611 v 0 c 0.661887,-0.10278 1.316526,-0.205846 1.99328,-0.263696 2.95404,-0.552344 5.510418,-1.593054 7.226278,-2.985878 -1.634696,0.604284 -3.25634,1.220062 -4.904042,1.812839 -0.111849,0.04019 0.181821,-0.110245 0.290482,-0.153117 0.56861,-0.224604 1.270302,-0.186994 1.910827,-0.21647 1.007453,-0.02727 2.028452,-0.0612 3.017932,0.02584 0,0 5.076072,-2.228114 5.076072,-2.228114 z"
       id="path7889"
       style="display:inline;fill:#800000;fill-opacity:0.909091;fill-rule:evenodd;stroke:#e61d60;stroke-width:12.5163;stroke-linecap:round;stroke-linejoin:round;stroke-miterlimit:4;stroke-dasharray:none;stroke-opacity:0.0111421;paint-order:fill markers stroke" />
    <path
       d="m 106.80544,33.577167 c -0.0436,0.04737 -0.069,0.09958 -0.13222,0.141297 -0.14673,0.09751 -0.61211,0.29652 -0.80506,0.35188 -0.21187,0.06081 -0.88775,0.206755 -0.67453,0.146946 12.93938,-3.626783 18.45101,-4.939293 12.53339,-3.515774 -2.34557,0.536023 -4.84183,0.864698 -7.40155,1.0535 -2.30899,0.185653 -4.6374,0.231063 -6.97144,0.177233 -0.91603,-0.06177 -1.84444,-0.0019 -2.75982,-0.05728 -0.45458,-0.02727 -0.689878,-0.06364 -1.13268,-0.118665 -0.651565,-0.07991 -1.131123,-0.248528 -1.598548,-0.469063 0,0 -15.102691,4.438964 -15.102691,4.438964 v 0 c 0.639087,0.304512 1.306115,0.601571 2.164628,0.757469 1.469516,0.27652 2.964736,0.40351 4.543714,0.294127 2.463019,-0.07355 4.933047,-0.07412 7.389428,-0.18063 2.594494,-0.196228 5.209649,-0.378437 7.639819,-0.883975 6.73512,-1.162505 1.41821,-0.210058 16.79007,-4.480628 0.70976,-0.197184 1.23575,-0.509069 1.932,-0.71256 0.1631,-0.04785 0.34531,-0.07823 0.51798,-0.117183 0,0 -16.93257,3.174223 -16.93257,3.174223 z"
       id="path7915"
       style="display:inline;fill:#800000;fill-opacity:0.909091;fill-rule:evenodd;stroke:#e61d60;stroke-width:9.1473;stroke-linecap:round;stroke-linejoin:round;stroke-miterlimit:4;stroke-dasharray:none;stroke-opacity:0.0111421;paint-order:fill markers stroke" />
    <path
       d="m 134.20695,30.639136 c 0.0836,0.172304 0.0318,0.250202 -0.13577,0.365422 3.5409,-1.663836 7.0606,-3.353201 10.62271,-4.991515 0.0968,-0.04449 -0.11228,0.156753 -0.20868,0.201827 -0.0984,0.04594 -0.22738,0.03684 -0.34104,0.05518 -1.27974,0.03541 -2.55729,-0.124264 -3.81585,-0.282021 -0.98013,-0.09566 -1.94476,-0.273745 -2.82386,-0.620028 -0.41594,-0.163835 -0.99335,-0.454612 -1.38938,-0.647586 -1.42927,-0.738698 -2.53793,-0.772637 -4.20846,-0.607424 -1.32741,0.111631 -2.62562,0.351929 -3.92385,0.57935 -0.39313,0.01627 -0.99897,0.283744 -1.35682,0.05814 0,0 -10.95225,4.971754 -10.95225,4.971754 v 0 c 0.71244,0.617649 1.33313,0.829978 2.43011,0.60595 1.31911,-0.240154 2.61684,-0.539573 3.96316,-0.691896 0.63293,-0.0879 1.30643,-0.241636 1.9539,-0.248958 0.63323,-0.0076 1.27278,0.117995 1.85189,0.296042 0.90172,0.358723 0.57959,0.215989 1.48184,0.637362 0.90964,0.424803 1.80153,0.894176 2.89507,0.997583 0.57656,0.03828 0.84174,0.04594 1.41352,0.12479 0.72658,0.10038 1.41999,0.300491 2.14978,0.390926 0.13616,0.02584 0.27589,0.04306 0.4083,0.07795 0.15609,0.04115 0.31132,0.212975 0.45439,0.150581 19.62666,-8.56353 10.20485,-1.831868 11.12772,-5.841179 0,0 -11.59653,4.417711 -11.59653,4.417711 z"
       id="path7919"
       style="display:inline;fill:#800000;fill-opacity:0.909091;fill-rule:evenodd;stroke:#e61d60;stroke-width:8.20998;stroke-linecap:round;stroke-linejoin:round;stroke-miterlimit:4;stroke-dasharray:none;stroke-opacity:0.0111421;paint-order:fill markers stroke" />
    <path
       d="m 105.74862,44.576723 c 0.13144,0.02248 0.26129,0.05053 0.39433,0.06665 0.18873,0.02297 0.38056,0.02967 0.56968,0.05053 0.36802,0.04115 0.72712,0.121105 1.09558,0.159671 0.28385,0.02967 1.26112,0.07733 1.53607,0.09193 0.67823,0.0037 1.35163,0.116418 2.02945,0.120531 0.29093,0.0013 0.58129,-0.02106 0.87217,-0.02584 0.73528,-0.01101 0.89722,-0.0013 1.60966,0.01482 1.0494,0.03684 2.11372,-0.04019 3.16088,0.04019 0.64321,0.04962 1.02855,0.144312 1.64592,0.266471 0.27304,0.05541 0.54263,0.121679 0.81927,0.166418 0.59737,0.09637 1.48951,0.177998 2.09054,0.245895 0.80628,0.09115 1.60839,0.198717 2.41513,0.287477 1.07826,0.164362 2.16023,-0.0076 3.23907,-0.0758 0,0 10.1238,-5.628097 10.1238,-5.628097 v 0 c -0.71591,0.07225 -1.44167,0.126512 -2.1525,0.222736 -0.18637,0.02536 -0.3683,0.06814 -0.55565,0.08947 -0.21891,0.02488 -0.44066,0.03206 -0.66102,0.04809 -1.79371,-0.01482 -3.58348,-0.08536 -5.30717,-0.496849 -1.20196,-0.24982 -0.52424,-0.113593 -1.74565,-0.348674 -0.28146,-0.05411 -0.55717,-0.128427 -0.84404,-0.163023 -0.76609,-0.09231 -1.5548,0.0057 -2.3241,-0.02871 -0.63921,0.0096 -0.97096,0.02345 -1.61061,-0.0013 -0.23602,-0.0096 -0.47022,-0.03779 -0.70633,-0.04545 -0.69765,-0.02152 -1.40009,0.03588 -2.0967,-0.02631 -0.94791,-0.07149 -1.92137,-0.14168 -2.79618,-0.441837 0,0 -10.80162,5.410414 -10.80162,5.410414 z"
       id="path7923"
       style="display:inline;fill:#800000;fill-opacity:0.909091;fill-rule:evenodd;stroke:#e61d60;stroke-width:8.20998;stroke-linecap:round;stroke-linejoin:round;stroke-miterlimit:4;stroke-dasharray:none;stroke-opacity:0.0111421;paint-order:fill markers stroke" />
    <path
       d="m 127.42345,31.529365 c -0.76707,0.0037 -1.54999,0.05584 -2.26563,0.281784 -0.21652,0.06833 -0.4181,0.16058 -0.62716,0.24087 -1.15503,0.53941 -2.33754,1.047279 -3.46515,1.618228 -0.23403,0.118474 -0.40392,0.295754 -0.60633,0.443273 -0.80959,0.59002 -1.5972,1.196778 -2.37509,1.81023 -0.43532,0.384944 -0.91464,0.756515 -1.28864,1.178606 -0.27532,0.31073 -0.45448,0.663731 -0.65257,1.003463 -0.16631,0.382791 -0.4932,0.872989 -0.24363,1.275748 0.0392,0.06345 0.10456,0.116034 0.15684,0.173883 0.0907,0.04995 0.18148,0.100349 0.27224,0.150294 0,0 2.95149,-1.413056 2.95149,-1.413056 v 0 c -0.0637,-0.02679 -0.12714,-0.05354 -0.19076,-0.08029 -0.37187,-0.324656 0.0557,-0.842051 0.19143,-1.183941 0.45931,-0.802159 1.06241,-1.430215 1.87356,-2.062783 0.77267,-0.608853 1.54756,-1.220754 2.36945,-1.792923 0.21073,-0.146752 0.91022,-0.509614 0.64138,-0.432506 -0.79476,0.227905 -1.5036,0.596877 -2.25539,0.895345 0.18721,-0.08684 0.36448,-0.186995 0.56159,-0.260634 0.64422,-0.240537 1.37675,-0.330492 2.08839,-0.290108 0,0 2.86395,-1.555709 2.86395,-1.555709 z"
       id="path7927"
       style="display:inline;fill:#800000;fill-opacity:0.909091;fill-rule:evenodd;stroke:#e61d60;stroke-width:8.20998;stroke-linecap:round;stroke-linejoin:round;stroke-miterlimit:4;stroke-dasharray:none;stroke-opacity:0.0111421;paint-order:fill markers stroke" />
    <path
       d="m 99.341742,25.823628 c -0.368312,1.493753 -0.591549,3.04447 -0.81169,4.582771 -0.115149,1.296194 -0.372321,2.622748 -0.213167,3.932914 0.02674,0.219006 0.07908,0.431598 0.118479,0.647463 0.383802,1.421837 1.223297,2.516137 1.919696,3.702508 0.73333,1.306593 1.41799,2.654659 2.03905,4.049375 0.40518,0.871133 0.56797,1.851318 0.75369,2.818417 0.0244,0.368915 0.17854,0.779061 0.13577,1.155317 -0.0216,0.1913 -0.13866,0.394276 -0.2136,0.550435 -0.67911,1.035567 -1.56702,1.836758 -2.3785,2.704374 -1.368461,1.311535 -2.61549,2.803221 -3.936196,4.184155 -0.54378,0.674794 -1.236064,1.166811 -1.696052,1.939064 0,0 2.859621,-1.522175 2.859621,-1.522175 v 0 c 0.488422,-0.654315 1.066757,-1.194309 1.584362,-1.811394 1.283855,-1.41448 2.550835,-2.850705 3.903505,-4.164413 0.86904,-0.906694 1.89135,-1.723905 2.49861,-2.942939 0.233,-0.757203 0.14196,-1.193988 -0.0238,-1.950556 -0.22817,-0.97964 -0.42856,-1.975697 -0.87093,-2.849023 -0.64337,-1.395197 -1.36382,-2.730633 -2.09469,-4.056053 -0.26494,-0.468011 -0.52372,-0.941571 -0.79388,-1.40484 -0.4009,-0.687593 -0.81273,-1.374236 -1.0095,-2.20464 -0.25288,-1.456617 -0.10467,-2.935312 0.0672,-4.39758 0.20721,-1.544368 0.4105,-3.204085 1.0736,-4.558625 0,0 -2.911783,1.595445 -2.911783,1.595445 z"
       id="path7929"
       style="display:inline;fill:#800000;fill-opacity:0.909091;fill-rule:evenodd;stroke:#e61d60;stroke-width:9.47854;stroke-linecap:round;stroke-linejoin:round;stroke-miterlimit:4;stroke-dasharray:none;stroke-opacity:0.0111421;paint-order:fill markers stroke" />
    <path
       d="m 88.528466,42.645238 c -1.09e-4,0.688494 0.580508,0.852567 1.34547,1.083238 0.955333,0.2458 1.965372,0.517347 2.990559,0.468871 1.065473,-0.465283 2.19189,-0.860108 3.196409,-1.395854 0.101439,-0.05406 -0.02501,-0.186801 -0.06224,-0.275609 -0.182279,-0.434899 -0.671201,-0.772196 -1.089231,-1.079328 -1.027769,-0.638837 -2.225412,-1.10478 -3.374469,-1.609362 -0.905085,-0.320586 -2.19464,-0.632639 -3.203916,-0.603198 -0.207447,0.0057 -0.411471,0.04163 -0.617196,0.06268 -1.91725,0.551746 -4.31097,1.504323 -5.583164,2.843371 -0.499343,0.670186 0.05056,1.216764 0.645735,1.715857 0.697945,0.595638 1.444711,1.161031 2.22119,1.69945 1.035802,0.630076 1.968318,1.359505 3.061394,1.934123 0.819724,0.425998 1.742326,0.521816 2.713036,0.460498 1.46438,-0.213263 2.751612,-0.908307 3.862906,-1.640822 0,0 -3.236939,0.973199 -3.236939,0.973199 v 0 c -1.534454,0.852889 3.890768,-1.552893 2.154024,-0.8813 -0.956507,0.113976 -1.768223,0.10106 -2.628249,-0.282549 -1.117784,-0.529831 -2.034192,-1.252705 -3.039848,-1.890736 -0.73707,-0.555024 -1.474671,-1.11111 -2.164397,-1.699259 -0.526552,-0.465618 -0.932314,-0.820786 -0.429536,-1.407123 0.274013,-0.260729 0.30179,-0.308004 0.643746,-0.541041 0.897028,-0.611357 3.038028,-1.442067 -1.445376,0.454085 -0.170518,0.07225 0.344958,-0.139049 0.517407,-0.208477 0.194888,-0.03541 0.385968,-0.08594 0.584717,-0.106126 1.037729,-0.105934 2.155319,0.216421 3.099336,0.502911 1.147499,0.455954 2.306641,0.932601 3.308174,1.554517 0.305422,0.243073 0.605623,0.47203 0.791924,0.780044 0.03123,0.05201 0.06985,0.105551 0.07181,0.162636 9e-4,0.02823 -0.0974,0.08441 -0.06375,0.07111 0.95863,-0.378869 1.900071,-0.781555 2.850113,-1.172352 -0.09936,0.02679 -0.194083,0.06666 -0.298091,0.08048 -0.789838,0.105169 -1.887057,-0.21001 -2.634072,-0.388534 -0.722184,-0.238957 -1.092896,-0.222307 -1.016263,-0.873516 0,0 -3.171208,1.208047 -3.171198,1.208047 z"
       id="path7931"
       style="display:inline;fill:#800000;fill-opacity:0.909091;fill-rule:evenodd;stroke:#e61d60;stroke-width:8.20998;stroke-linecap:round;stroke-linejoin:round;stroke-miterlimit:4;stroke-dasharray:none;stroke-opacity:0.0111421;paint-order:fill markers stroke" />
    <path
       d="m 73.04214,42.874583 c 0.644568,0.06532 1.244036,0.293457 1.908474,0.246518 0.163077,-0.01101 0.322178,-0.04449 0.483269,-0.06666 2.488414,-0.639137 4.100594,-1.424133 5.266631,-3.012813 0.167564,-0.295085 0.508716,-0.751721 0.192842,-1.068826 -0.216643,-0.21752 -0.466172,-0.259293 -0.783745,-0.363603 -1.474128,-0.29762 -2.99078,-0.25939 -4.484148,-0.08273 -1.131422,0.198238 -2.150648,0.629423 -3.179304,1.018498 0.04374,0.549406 -3.576167,0.963543 -3.984323,2.100971 -0.0777,0.216467 -0.02045,0.330636 0.02614,0.54564 0.719734,1.152384 1.596428,2.259038 2.572714,3.300763 0.188922,0.1535 0.357169,0.322789 0.566768,0.460498 0.243168,0.159672 0.519962,0.288386 0.784879,0.427435 1.03332,0.542387 2.116636,1.03424 3.201895,1.515758 1.136149,0.513731 2.442597,0.765028 3.748821,0.895038 0.17779,-0.0013 0.357511,0.01482 0.533369,-0.0037 0.508943,-0.05651 0.865164,-0.194411 1.31167,-0.387194 1.198528,-0.517472 2.383025,-1.052896 3.574544,-1.579336 0,0 -3.085299,0.896384 -3.085299,0.896384 v 0 c 0.705512,-0.296232 1.405855,-0.599475 2.116533,-0.888747 0.297584,-0.121106 -0.59381,0.32901 -1.161191,0.441311 -0.166144,0.03254 -0.341265,0.03109 -0.51184,0.04641 -1.298045,-0.07804 -2.591834,-0.318436 -3.75094,-0.769053 -1.275159,-0.521271 -2.831736,-1.17516 -3.922334,-1.886989 -0.200283,-0.13082 -0.370972,-0.284845 -0.556486,-0.427244 -0.982358,-0.980616 -1.892053,-2.05972 -2.333079,-3.248823 -0.0074,-0.176324 -0.0409,-0.240297 0.06525,-0.401979 0.500024,-0.762875 3.607596,-1.633807 -1.876853,0.573068 1.025429,-0.420593 2.074569,-0.831514 3.181855,-1.116876 1.426319,-0.228527 2.87081,-0.281161 4.294357,0.0057 0.10281,0.02871 0.469353,0.109287 0.575122,0.200775 0.247599,0.214602 -0.161203,0.656865 -0.247882,0.842835 -0.279578,0.358341 -0.568801,0.688962 -0.970838,0.980243 -0.137517,0.09957 -0.609578,0.340733 -0.437202,0.278432 0.692622,-0.25025 3.659131,-1.455823 2.007508,-0.851107 -0.893439,0.20106 -1.364263,0.117374 -2.215824,-0.136275 0,0 -2.911508,1.516802 -2.911508,1.516802 z"
       id="path7933"
       style="display:inline;fill:#800000;fill-opacity:0.909091;fill-rule:evenodd;stroke:#e61d60;stroke-width:8.20998;stroke-linecap:round;stroke-linejoin:round;stroke-miterlimit:4;stroke-dasharray:none;stroke-opacity:0.0111421;paint-order:fill markers stroke" />
    <path
       id="path7949"
       style="display:inline;fill:#800000;fill-opacity:1;fill-rule:evenodd;stroke:#e61d60;stroke-width:10.1572;stroke-linecap:round;stroke-linejoin:round;stroke-miterlimit:4;stroke-dasharray:none;stroke-opacity:0.0111421;paint-order:fill markers stroke"
       d="m 107.9489,113.50938 c -0.38932,0.0487 -0.77712,0.11435 -1.16195,0.1957 -0.14996,0.0512 -0.30734,0.0828 -0.4499,0.15312 -0.15359,0.0756 -0.30029,0.17082 -0.43186,0.28327 -1.04514,0.8953 -2.10849,1.76998 -3.09397,2.73691 -0.23116,0.2268 -0.39264,1.16172 -0.45782,1.49288 -0.034,0.49672 -0.14207,1.04087 -0.0424,1.53906 0.0286,0.14259 0.20992,0.61888 0.26058,0.75606 0.30936,0.84268 0.68379,1.33561 1.25778,1.98157 0.58437,0.64438 1.16893,1.25259 1.94199,1.63538 0.8126,0.30336 1.67571,0.25982 2.52122,0.19523 0.70212,-0.043 1.38889,-0.1957 2.04208,-0.46796 l 2.56672,-2.73281 c -0.63028,0.31198 -1.27566,0.53204 -1.97879,0.57376 -0.79924,0.0929 -1.61841,0.17561 -2.40583,-0.0479 -0.75478,-0.31341 -1.29606,-0.90515 -1.83802,-1.52451 -0.49592,-0.55629 -0.93861,-1.12144 -1.16925,-1.86056 -0.22884,-0.68677 -0.26097,-1.38192 -0.12275,-2.09913 0.0183,-0.0756 0.031,-0.1268 0.0458,-0.18997 -0.41313,0.0561 -0.82461,0.12297 -1.23053,0.21916 -0.0379,0.0191 -0.0781,0.0334 -0.11747,0.0479 -0.20934,0.16891 -0.42,0.33495 -0.63596,0.49347 -0.13181,0.0972 0.2147,-0.25647 0.3474,-0.35217 0.0878,-0.0632 0.18834,-0.10141 0.28858,-0.14114 0.6009,-0.4841 1.18696,-0.99039 1.82722,-1.41395 0.13891,-0.0918 -0.17922,0.28997 -0.25142,0.44452 -0.12609,0.27035 -0.17237,0.46223 -0.2278,0.70181 0.35217,-0.0479 0.70517,-0.0871 1.05761,-0.12585 0.65346,-0.0383 1.34265,-0.12823 1.8509,0.38519 0.47207,0.49752 0.91917,1.01506 1.50604,1.37144 l 2.83016,-2.5347 c -0.61503,-0.23495 -1.0484,-0.72889 -1.48443,-1.21441 -0.55136,-0.63346 -1.31074,-0.6325 -2.07212,-0.60888 -0.39214,0.0239 -0.78266,0.0564 -1.17187,0.10623 z" />
    <path
       id="path7941"
       style="display:inline;fill:#800000;fill-opacity:1;fill-rule:evenodd;stroke:#e61d60;stroke-width:10.1572;stroke-linecap:round;stroke-linejoin:round;stroke-miterlimit:4;stroke-dasharray:none;stroke-opacity:0.0111421;paint-order:fill markers stroke"
       d="m 61.724977,112.87337 -3.19144,1.96114 c -0.475421,0.94678 -0.747133,1.97903 -0.919369,3.02827 0.01774,1.16091 0.705844,2.05577 1.297306,2.97467 0.198733,0.45408 1.156,1.36355 1.20159,1.8305 0.0048,0.0502 -0.03055,0.0943 -0.04938,0.14116 -2.362371,1.6917 -4.60196,3.56283 -6.826248,5.44716 -0.698206,0.64975 -1.373522,1.3271 -2.092379,1.95229 -0.178874,0.15551 -0.729788,0.60486 -0.547104,0.45409 0.728008,-0.60036 1.250966,-1.01932 1.667984,-1.35081 l 0.324832,-0.35361 c 0.818323,-0.53137 0.658868,-0.42826 -0.324832,0.35361 l -2.185822,2.38081 c 2.319879,-1.31757 4.153502,-3.41283 6.157263,-5.17649 0.01429,-0.01 0.03844,-0.0336 0.05366,-0.043 -0.2963,0.23063 -0.741855,0.5817 -0.560428,0.43065 4.09475,-3.40767 1.465595,-1.18351 0.560428,-0.43065 0.08501,-0.0665 0.106832,-0.0823 0.160691,-0.12297 0.651482,-0.49303 0.767814,-0.56807 1.437907,-1.04799 1.7926,-1.29071 0.690514,-0.47801 4.007945,-3.17597 0.490252,-0.39858 1.077877,-0.80596 1.21358,-1.4793 -0.01971,-0.0957 -0.02513,-0.1957 -0.06002,-0.28613 -0.224456,-0.57768 -1.033972,-1.21623 -1.31785,-1.7873 -0.524352,-0.84692 -1.152935,-1.71352 -1.098558,-2.77303 0.174735,-1.04091 0.455316,-2.08077 1.090388,-2.92416 z m 56.709863,-7.45553 -3.20518,1.96994 c -0.93066,1.42552 -1.47899,3.04529 -2.02698,4.66212 -0.49843,1.64255 -0.89618,3.32024 -0.97397,5.04567 -0.037,0.83634 0.0957,1.64604 0.30087,2.44819 0.17888,0.90214 0.70353,1.59897 1.37133,2.16525 0.78389,0.62462 1.45191,1.38442 2.11733,2.14019 0.72698,0.85812 1.35187,0.99124 2.4042,1.03138 1.20732,-0.0191 2.38523,-0.28614 3.56223,-0.53753 1.32791,-0.25312 2.49132,-0.9542 3.61657,-1.70146 l 2.41436,-2.65997 c -1.07655,0.76022 -2.21742,1.45216 -3.49259,1.76653 -1.14331,0.25792 -2.29034,0.51845 -3.46424,0.55361 -0.95544,0.01 -1.52855,-0.0336 -2.22544,-0.79075 -0.68495,-0.75897 -1.35306,-1.54561 -2.13272,-2.20042 -0.62354,-0.50228 -1.06671,-1.15833 -1.21579,-1.98081 -0.1835,-0.76337 -0.27817,-1.54393 -0.27728,-2.33249 0.0335,-1.64442 0.34834,-3.26191 0.84533,-4.82101 0.59948,-1.68984 1.26217,-3.36397 2.38197,-4.75844 z m -42.175528,7.60066 c -0.538086,0.0928 -1.05147,0.36843 -1.538352,0.61735 -0.518173,0.29906 -1.026585,0.716 -1.631884,0.76951 l -2.680566,2.70241 c 0.658977,-0.0684 1.226097,-0.39907 1.791073,-0.73397 0.600017,-0.33398 1.229107,-0.69562 1.918039,-0.75242 0.463102,0.068 0.800115,0.49357 1.146346,0.79574 0.515251,0.54102 0.9006,1.16942 1.192308,1.866 0.34326,0.75271 0.226524,1.41782 -0.08274,2.15034 -0.256731,0.61486 -0.539687,1.20909 -0.784153,1.82821 -0.299159,0.59821 -0.373862,1.27445 -0.38968,1.93994 -0.01823,0.72017 0.210904,1.03531 0.868831,1.21182 0.439547,0.0479 0.881056,0.0828 1.322742,0.0995 l 2.684384,-2.62385 c -0.427672,10e-4 -0.849889,-0.0498 -1.275959,-0.0622 -0.550775,-0.043 -0.576738,-0.17751 -0.559294,-0.76261 0.03794,-0.64046 0.171482,-1.25188 0.457877,-1.82486 0.246384,-0.61035 0.537682,-1.20111 0.757792,-1.82338 0.264221,-0.8274 0.291027,-1.59749 -0.08151,-2.40091 -0.333307,-0.73124 -0.738208,-1.41446 -1.265468,-2.01168 -0.396283,-0.37896 -0.78851,-0.82486 -1.303835,-1.00918 -0.184788,-0.0191 -0.366618,-0.01 -0.545976,0.0239 z m -8.344357,1.62964 c -0.164288,0.0191 -0.331089,0.0517 -0.500636,0.0928 -0.616643,0.12153 -1.233798,0.24929 -1.840132,0.41772 l -2.615924,2.76921 c 0.58376,-0.27179 1.217518,-0.39667 1.841123,-0.52347 0.586308,-0.12345 1.181644,-0.26939 1.744896,0.004 0.352525,0.31819 0.511579,0.84371 0.671157,1.29417 0.154187,0.57681 0.309457,1.15598 0.545329,1.70294 0.210658,0.52686 0.540964,0.98603 0.796262,1.48792 0.121565,0.29952 -0.01872,0.50331 -0.142163,0.76562 -0.103333,0.22011 -0.112104,0.26987 -0.18873,0.5038 -0.162613,0.56084 -0.38012,1.04177 -0.763137,1.4717 -0.542191,0.41197 -0.949842,0.95993 -1.403133,1.46772 -1.078355,0.91113 -0.262348,0.2201 2.474959,-2.03699 l -2.52558,2.80495 c 3.122857,-2.54576 2.172665,-1.50546 3.229343,-2.68428 0.431565,-0.52714 0.927121,-0.97951 1.385965,-1.47789 0.332568,-0.48573 0.527635,-1.02422 0.714486,-1.58672 0.200655,-0.51467 0.435113,-1.00159 0.1499,-1.54103 -0.258604,-0.48725 -0.571032,-0.94353 -0.776826,-1.46045 -0.221598,-0.54643 -0.384802,-1.11244 -0.53446,-1.68405 -0.192277,-0.54259 -0.409242,-1.13655 -0.834859,-1.51943 -0.462954,-0.27417 -0.934842,-0.32777 -1.42788,-0.26892 z m 27.896423,0.18853 c -0.934802,0.16411 -1.874183,0.30192 -2.811508,0.4493 -1.135841,0.15311 -2.264912,0.27034 -3.359626,0.63414 -1.56846,0.66542 -2.593587,1.79443 -3.994679,3.00802 -0.09032,0.0785 -0.143297,0.1957 -0.194199,0.30623 -0.103876,0.22585 -0.121714,0.44979 -0.159312,0.6919 0.02316,0.12967 0.02513,0.26508 0.07066,0.38806 0.34952,0.945 1.344194,1.53518 2.053836,2.13865 0.210362,0.17321 0.841014,0.70625 1.077375,0.85156 0.377064,0.23159 1.264719,0.63214 1.654182,0.81396 3.318879,1.54926 -1.614027,-0.75452 1.699906,0.79362 0.927893,0.44357 1.850898,0.89909 2.84782,1.14872 0.506804,0.1268 0.829374,0.15934 1.338204,0.23111 0.431812,0.01 0.747651,0.0383 1.170902,-0.0335 0.214357,-0.0383 0.579765,-0.14785 0.762766,-0.30097 3.079245,-2.57953 2.643635,-1.3311 3.132625,-2.98764 0.0555,-0.64428 0.0197,-1.48417 -0.38964,-2.01941 -0.10204,-0.1335 -0.2408,-0.23159 -0.36124,-0.3469 -0.764917,-0.56779 -1.703739,-0.73348 -2.515976,-1.20169 -0.527893,-0.378 -0.606232,-1.05798 -0.905421,-1.60299 -0.303691,-0.41724 -0.816247,-0.47371 -1.215092,-0.73108 l 0.03745,-0.0287 c -0.0276,2.5e-4 -0.05563,0.004 -0.08332,0.004 0.01379,0.01 0.03055,0.0144 0.04484,0.0239 l -3.009284,2.19939 c 0.03942,0.0905 0.07899,0.18086 0.11851,0.27081 0.377557,0.23639 0.831779,0.29619 1.178682,0.58888 0.351194,0.58875 0.460736,1.33283 1.059876,1.73683 0.798829,0.44738 1.7061,0.61323 2.475525,1.12066 0.09054,0.0837 0.19637,0.15216 0.271414,0.25169 0.107475,0.14211 0.177893,0.31198 0.224062,0.49285 0.183011,0.0191 0.365342,0.0335 0.618108,0.0569 0.468872,-0.004 0.946467,-0.0144 1.369216,-0.2335 0.14996,-0.12059 0.28384,-0.23256 0.45045,-0.36127 0.10116,-0.0785 -0.1777,0.18948 -0.28295,0.26174 -0.0546,0.0383 -0.11073,0.0699 -0.1675,0.0995 -2.239532,1.79658 -2.668494,2.62657 -2.02004,1.43409 0.104316,-0.37131 0.137874,-0.8454 0.03255,-1.25747 -0.208102,-0.0239 -0.415598,-0.0531 -0.703012,-0.11485 -0.99837,-0.21484 -1.92446,-0.66193 -2.865447,-1.05635 -1.492165,-0.69722 -3.056107,-1.30241 -4.30859,-2.43791 -0.526836,-0.46079 -1.563814,-1.16756 -1.769219,-1.92109 0.67376,-0.1445 1.358025,-0.22872 2.053983,-0.32776 0.904143,-0.11963 1.807605,-0.24881 2.71366,-0.35121 z m -6.99804,2.23329 c 0.08298,-0.064 -0.14852,0.15024 -0.210855,0.23637 -0.158621,0.21868 -0.158818,0.29093 -0.237169,0.54602 -6.94e-4,0.0947 -0.02119,0.19091 -0.0018,0.28326 0.0043,0.0191 0.01479,0.0383 0.0202,0.0607 -0.426539,0.0914 -0.850351,0.20145 -1.26733,0.37083 -1.141518,0.61844 -3.144327,2.23216 1.697062,-1.49763 z m -27.70389,4.95749 1.23e-4,9.6e-4 c 0.02119,-0.005 -0.716378,0.58456 -2.319036,1.89921 -0.15744,0.1292 0.31261,-0.26125 0.468718,-0.39188 0.488381,-0.41007 0.232684,-0.18469 0.623433,-0.55314 0.05874,-0.0555 0.118363,-0.11005 0.177446,-0.16507 7.83e-4,-0.002 0.0028,-0.004 0.0038,-0.01 0.07145,-0.0512 0.140438,-0.10576 0.212087,-0.15645 0.536154,-0.40434 0.821051,-0.62219 0.833568,-0.62559 z" />
    <path
       style="display:inline;fill:#800000;fill-rule:evenodd;stroke:#e61d60;stroke-width:10.9052;stroke-linecap:round;stroke-linejoin:round;stroke-opacity:0.0111421;paint-order:fill markers stroke"
       id="path891"
       d="m 47.668105,109.67529 c 2.343559,0.79601 4.707505,1.53854 7.075249,2.27507 2.557041,0.77769 5.10704,1.66501 7.797084,1.98521 0.46089,0.055 0.925891,0.0756 1.388842,0.1134 1.267536,0.0143 2.896978,0.30432 4.14548,0.0191 0.745703,-0.17178 0.978977,-0.3737 1.615757,-0.7441 1.983233,-1.43613 4.022971,-2.80988 5.949682,-4.30837 0.115145,-0.0894 1.430677,-1.8072 1.465788,-1.85338 0.841232,-1.10587 1.667412,-2.20721 2.562601,-3.27803 0.994462,-1.3514 2.354989,-2.49838 3.099624,-3.99979 0.387729,-0.781806 0.443678,-1.259285 0.632442,-2.090659 0.05339,-0.330639 0.106384,-0.661275 0.159614,-0.991911 0,0 -5.544462,3.30823 -5.544462,3.30823 v 0 c -0.04828,0.30719 -0.09674,0.61428 -0.145127,0.92142 -0.262651,0.90382 -0.263503,1.09967 -0.732198,1.93956 -0.788468,1.41288 -2.014852,2.57438 -3.00031,3.86649 -0.88011,1.09574 -1.715139,2.22066 -2.610147,3.3064 -0.275601,0.33446 -0.547284,0.67219 -0.843767,0.99143 -1.607237,1.7306 -3.580012,2.73289 3.618496,-2.26287 -0.406699,0.30719 -0.880995,0.71232 -1.378401,0.9086 -1.311852,0.51768 -2.87203,0.23925 -4.24436,0.2938 -0.904187,-0.0613 -1.832041,-0.10958 -2.730413,-0.22777 -2.246887,-0.29522 -4.407083,-0.93261 -6.55283,-1.587 -1.376892,-0.47965 -1.967543,-0.65323 -3.27275,-1.22795 -0.421753,-0.18566 -0.825307,-0.40431 -1.241209,-0.6005 -0.60517,-0.28566 -1.249796,-0.52562 -1.772366,-0.93579 0,0 -5.442319,4.18167 -5.442319,4.18167 z" />
  </g>
</svg>
